<?xml version="1.0" encoding="UTF-8"?>
<!DOCTYPE svg PUBLIC "-//W3C//DTD SVG 1.1//EN" "http://www.w3.org/Graphics/SVG/1.1/DTD/svg11.dtd">
<svg xmlns="http://www.w3.org/2000/svg" version="1.1" viewBox="188 -69 255 474" style="shape-rendering:geometricPrecision; text-rendering:geometricPrecision; image-rendering:optimizeQuality; fill-rule:evenodd; clip-rule:evenodd" xmlns:xlink="http://www.w3.org/1999/xlink">
<g><path style="opacity:1" fill="#203761" d="M -0.5,-0.5 C 18.8333,-0.5 38.1667,-0.5 57.5,-0.5C 57.5,112.833 57.5,226.167 57.5,339.5C 38.1667,339.5 18.8333,339.5 -0.5,339.5C -0.5,226.167 -0.5,112.833 -0.5,-0.5 Z"/></g>
<g><path style="opacity:1" fill="#223a66" d="M 57.5,-0.5 C 67.1667,-0.5 76.8333,-0.5 86.5,-0.5C 86.5,112.833 86.5,226.167 86.5,339.5C 76.8333,339.5 67.1667,339.5 57.5,339.5C 57.5,226.167 57.5,112.833 57.5,-0.5 Z"/></g>
<g><path style="opacity:1" fill="#233b69" d="M 86.5,-0.5 C 95.5,-0.5 104.5,-0.5 113.5,-0.5C 113.5,112.833 113.5,226.167 113.5,339.5C 104.5,339.5 95.5,339.5 86.5,339.5C 86.5,226.167 86.5,112.833 86.5,-0.5 Z"/></g>
<g><path style="opacity:1" fill="#243c6c" d="M 113.5,-0.5 C 121.5,-0.5 129.5,-0.5 137.5,-0.5C 137.5,112.833 137.5,226.167 137.5,339.5C 129.5,339.5 121.5,339.5 113.5,339.5C 113.5,226.167 113.5,112.833 113.5,-0.5 Z"/></g>
<g><path style="opacity:1" fill="#253f6e" d="M 137.5,-0.5 C 152.167,-0.5 166.833,-0.5 181.5,-0.5C 181.831,71.7376 181.498,143.904 180.5,216C 181.5,216.333 182.5,216.667 183.5,217C 179.63,217.105 175.963,217.938 172.5,219.5C 176.048,219.619 179.715,219.785 183.5,220C 185.751,220.748 187.084,222.248 187.5,224.5C 177.09,221.411 168.257,223.745 161,231.5C 155.641,241.798 156.808,251.298 164.5,260C 166.5,261.333 168.5,262.667 170.5,264C 174.821,264.499 179.154,264.666 183.5,264.5C 184.574,266.284 186.24,267.451 188.5,268C 186.559,268.743 184.726,268.576 183,267.5C 180.175,268.584 180.008,269.751 182.5,271C 181.506,293.758 181.173,316.592 181.5,339.5C 166.833,339.5 152.167,339.5 137.5,339.5C 137.5,226.167 137.5,112.833 137.5,-0.5 Z"/></g>
<g><path style="opacity:1" fill="#274273" d="M 181.5,-0.5 C 205.167,-0.5 228.833,-0.5 252.5,-0.5C 252.667,42.8346 252.5,86.1679 252,129.5C 250.867,127.789 249.367,127.289 247.5,128C 249.019,129.218 250.186,130.718 251,132.5C 252.155,131.662 253.322,130.662 254.5,129.5C 254.557,130.609 254.89,131.609 255.5,132.5C 254.069,132.881 253.236,133.881 253,135.5C 252.667,162.833 252.333,190.167 252,217.5C 248.583,219.072 248.749,220.239 252.5,221C 258.833,221.333 265.167,221.667 271.5,222C 264.321,222.171 257.321,222.671 250.5,223.5C 250.5,236.833 250.5,250.167 250.5,263.5C 253.962,264.482 257.629,264.815 261.5,264.5C 262.091,265.151 262.757,265.818 263.5,266.5C 263.167,266.833 262.833,267.167 262.5,267.5C 260.484,266.294 258.484,266.294 256.5,267.5C 257.025,268.192 257.692,268.692 258.5,269C 256.564,269.813 254.564,270.313 252.5,270.5C 252.5,293.5 252.5,316.5 252.5,339.5C 228.833,339.5 205.167,339.5 181.5,339.5C 181.173,316.592 181.506,293.758 182.5,271C 180.008,269.751 180.175,268.584 183,267.5C 184.726,268.576 186.559,268.743 188.5,268C 186.24,267.451 184.574,266.284 183.5,264.5C 187.361,263.151 191.027,261.318 194.5,259C 195.517,257.951 195.684,256.784 195,255.5C 193.316,253.649 191.483,251.982 189.5,250.5C 185.374,253.819 180.708,254.986 175.5,254C 167.813,249.045 166.647,242.879 172,235.5C 174.879,233.427 178.046,232.593 181.5,233C 184.791,234.155 187.791,235.488 190.5,237C 191.975,234.691 193.642,232.524 195.5,230.5C 193.426,227.606 190.76,225.606 187.5,224.5C 187.084,222.248 185.751,220.748 183.5,220C 179.715,219.785 176.048,219.619 172.5,219.5C 175.963,217.938 179.63,217.105 183.5,217C 182.5,216.667 181.5,216.333 180.5,216C 181.498,143.904 181.831,71.7376 181.5,-0.5 Z"/></g>
<g><path style="opacity:1" fill="#29467a" d="M 252.5,-0.5 C 264.833,-0.5 277.167,-0.5 289.5,-0.5C 289.167,24.1757 289.5,48.8423 290.5,73.5C 291.609,72.4104 292.609,72.4104 293.5,73.5C 292.388,74.2652 291.721,75.2652 291.5,76.5C 286.785,73.4012 284.785,74.5678 285.5,80C 287.598,80.6776 289.598,80.5109 291.5,79.5C 292.738,79.81 292.738,80.31 291.5,81C 306.064,82.2237 306.064,83.7237 291.5,85.5C 288.678,85.4479 286.011,84.7813 283.5,83.5C 283.167,83.8333 282.833,84.1667 282.5,84.5C 284.5,85.3333 286.5,86.1667 288.5,87C 287.304,87.6543 287.304,88.1543 288.5,88.5C 290.323,87.2528 292.323,86.5861 294.5,86.5C 290.281,90.29 290.614,93.6233 295.5,96.5C 291.398,96.9056 290.898,98.239 294,100.5C 296.593,98.1627 299.426,97.996 302.5,100C 301.584,100.374 300.75,100.874 300,101.5C 295.304,100.086 294.804,100.586 298.5,103C 297.333,106.167 295.833,106.333 294,103.5C 291.423,104.165 290.59,105.499 291.5,107.5C 285,106.499 282.5,109.165 284,115.5C 284.899,117.368 286.399,118.368 288.5,118.5C 290.765,117.568 292.765,116.235 294.5,114.5C 295.167,116.5 295.833,118.5 296.5,120.5C 290.126,123.252 288.126,127.919 290.5,134.5C 290.714,136.144 290.38,137.644 289.5,139C 291.298,140.505 293.132,140.672 295,139.5C 295.626,141.991 296.459,141.991 297.5,139.5C 298.548,140.548 299.548,141.548 300.5,142.5C 299.055,152.721 303.388,156.721 313.5,154.5C 313.393,156.379 313.893,156.712 315,155.5C 316.728,156.352 316.895,157.352 315.5,158.5C 315.167,159.5 314.5,160.167 313.5,160.5C 313.082,159.778 312.416,159.278 311.5,159C 312.5,158.667 313.5,158.333 314.5,158C 311.833,157.333 309.167,157.333 306.5,158C 307.833,158.333 309.167,158.667 310.5,159C 307.743,159.782 305.243,159.282 303,157.5C 302.667,157.833 302.333,158.167 302,158.5C 301.749,156.567 301.249,154.734 300.5,153C 299.5,152.333 298.5,152.333 297.5,153C 298.711,153.893 298.711,154.726 297.5,155.5C 296.833,153.833 296.167,152.167 295.5,150.5C 294.583,151.127 293.583,151.461 292.5,151.5C 295.835,144.324 293.502,141.157 285.5,142C 282.46,146.264 283.126,149.764 287.5,152.5C 289.529,154.084 291.862,155.417 294.5,156.5C 292.328,156.676 289.995,156.843 287.5,157C 289.837,158.951 292.337,159.451 295,158.5C 298.338,158.951 298.838,159.951 296.5,161.5C 294.414,159.977 292.748,160.31 291.5,162.5C 291.957,163.298 292.624,163.631 293.5,163.5C 291.35,165.922 291.017,168.589 292.5,171.5C 291.957,171.56 291.624,171.893 291.5,172.5C 296.943,176.96 296.609,180.96 290.5,184.5C 286.341,186.586 284.341,185.252 284.5,180.5C 282.654,180.222 281.32,180.889 280.5,182.5C 281.274,183.711 282.107,183.711 283,182.5C 283.333,184.167 283.667,185.833 284,187.5C 286.116,188.743 288.282,189.909 290.5,191C 289.173,215.101 289.173,239.268 290.5,263.5C 291.666,210.179 292.5,210.179 293,263.5C 293.77,264.598 294.603,264.598 295.5,263.5C 295.5,264.167 295.833,264.5 296.5,264.5C 301.316,265.326 306.316,265.826 311.5,266C 306.167,266.333 300.833,266.667 295.5,267C 327.441,268.656 327.441,269.656 295.5,270C 300.833,270.333 306.167,270.667 311.5,271C 305.833,271.667 300.167,271.667 294.5,271C 293.338,270.173 292.171,269.34 291,268.5C 289.189,269.424 289.355,270.257 291.5,271C 289.517,293.603 288.85,316.436 289.5,339.5C 277.167,339.5 264.833,339.5 252.5,339.5C 252.5,316.5 252.5,293.5 252.5,270.5C 254.564,270.313 256.564,269.813 258.5,269C 257.692,268.692 257.025,268.192 256.5,267.5C 258.484,266.294 260.484,266.294 262.5,267.5C 262.833,267.167 263.167,266.833 263.5,266.5C 262.757,265.818 262.091,265.151 261.5,264.5C 262.482,261.038 262.815,257.371 262.5,253.5C 264.833,253.5 267.167,253.5 269.5,253.5C 270.789,257.044 272.456,260.377 274.5,263.5C 278.683,264.811 283.016,264.811 287.5,263.5C 287.376,262.893 287.043,262.56 286.5,262.5C 284.427,258.692 282.094,255.026 279.5,251.5C 285.237,246.046 287.07,239.379 285,231.5C 282.693,227.444 279.193,225.111 274.5,224.5C 266.684,223.508 258.684,223.174 250.5,223.5C 257.321,222.671 264.321,222.171 271.5,222C 265.167,221.667 258.833,221.333 252.5,221C 248.749,220.239 248.583,219.072 252,217.5C 252.333,190.167 252.667,162.833 253,135.5C 253.236,133.881 254.069,132.881 255.5,132.5C 257.167,132.5 258.833,132.5 260.5,132.5C 260.739,130.533 260.406,128.699 259.5,127C 257.072,126.253 255.406,127.086 254.5,129.5C 253.322,130.662 252.155,131.662 251,132.5C 250.186,130.718 249.019,129.218 247.5,128C 249.367,127.289 250.867,127.789 252,129.5C 252.5,86.1679 252.667,42.8346 252.5,-0.5 Z"/></g>
<g><path style="opacity:1" fill="#2d4c86" d="M 358.5,-0.5 C 383.833,-0.5 409.167,-0.5 434.5,-0.5C 434.333,77.1674 434.5,154.834 435,232.5C 435.417,233.756 436.25,234.423 437.5,234.5C 435.237,240.002 434.904,245.668 436.5,251.5C 432.02,255.802 432.687,259.469 438.5,262.5C 437.635,262.564 436.635,262.897 435.5,263.5C 434.5,288.825 434.167,314.158 434.5,339.5C 409.167,339.5 383.833,339.5 358.5,339.5C 358.5,314.167 358.5,288.833 358.5,263.5C 355.627,263.198 352.961,262.531 350.5,261.5C 350.33,260.178 350.663,259.011 351.5,258C 357.167,257.333 362.833,257.333 368.5,258C 369.639,259.78 370.639,261.614 371.5,263.5C 375.298,264.483 379.298,264.817 383.5,264.5C 383.737,263.209 383.404,262.209 382.5,261.5C 377.368,249.226 372.201,236.892 367,224.5C 362.934,223.536 358.767,223.203 354.5,223.5C 355.688,222.636 356.855,221.636 358,220.5C 358.617,219.551 358.451,218.718 357.5,218C 364.167,217.333 364.167,216.667 357.5,216C 358.66,194.573 358.826,173.073 358,151.5C 356.224,149.789 355.058,147.789 354.5,145.5C 354.5,145.167 354.5,144.833 354.5,144.5C 354.56,143.957 354.893,143.624 355.5,143.5C 356.281,144.729 356.781,146.062 357,147.5C 358.252,144.634 358.252,141.634 357,138.5C 355.175,137.897 353.341,137.23 351.5,136.5C 352.121,133.436 352.955,130.436 354,127.5C 354.212,130.332 354.379,132.998 354.5,135.5C 355.251,134.624 355.751,133.624 356,132.5C 356.249,133.624 356.749,134.624 357.5,135.5C 358.265,134.388 359.265,133.721 360.5,133.5C 365.783,135.054 368.283,133.054 368,127.5C 365.028,123.561 362.194,123.561 359.5,127.5C 358.679,124.359 358.179,121.025 358,117.5C 357.465,119.271 356.631,119.604 355.5,118.5C 357.433,115.905 357.433,113.572 355.5,111.5C 357.622,111.377 359.789,111.377 362,111.5C 362.311,110.258 361.811,109.258 360.5,108.5C 362.022,106.844 361.689,105.677 359.5,105C 360.517,103.951 360.684,102.784 360,101.5C 358.035,104.491 355.868,107.157 353.5,109.5C 349.678,106.504 346.344,106.837 343.5,110.5C 342.113,112.877 341.279,115.543 341,118.5C 340.026,116.122 339.359,116.456 339,119.5C 338.209,118.255 337.709,116.922 337.5,115.5C 337.5,114.167 337.5,112.833 337.5,111.5C 338.222,111.082 338.722,110.416 339,109.5C 339.805,111.901 340.638,111.734 341.5,109C 339.078,107.112 339.078,105.112 341.5,103C 339.887,102.911 338.72,103.745 338,105.5C 337.56,103.924 336.727,102.59 335.5,101.5C 337.423,100.692 339.423,100.192 341.5,100C 339.249,99.2525 337.916,97.7525 337.5,95.5C 343.293,96.8776 345.793,94.5442 345,88.5C 344.184,87.1772 343.017,86.5106 341.5,86.5C 343.969,85.6829 346.635,85.1829 349.5,85C 345.712,83.3731 341.879,83.2065 338,84.5C 337.167,84.3333 336.333,84.1667 335.5,84C 340.037,82.1806 344.703,82.0139 349.5,83.5C 350.386,82.675 350.719,81.675 350.5,80.5C 351.167,80.5 351.5,80.1667 351.5,79.5C 353.054,77.1079 354.387,74.4412 355.5,71.5C 355.782,74.0567 355.949,76.7234 356,79.5C 356.219,78.062 356.719,76.7287 357.5,75.5C 358.5,50.1754 358.833,24.8421 358.5,-0.5 Z"/></g>
<g><path style="opacity:1" fill="#2f508d" d="M 434.5,-0.5 C 448.5,-0.5 462.5,-0.5 476.5,-0.5C 476.167,74.1696 476.5,148.836 477.5,223.5C 478.888,224.591 479.388,225.924 479,227.5C 478.333,226.833 477.667,226.167 477,225.5C 477.347,227.61 477.18,229.61 476.5,231.5C 474.023,228.685 471.023,226.685 467.5,225.5C 466.653,224.034 465.32,223.2 463.5,223C 459.311,222.188 455.311,222.355 451.5,223.5C 445.08,224.919 440.413,228.585 437.5,234.5C 436.25,234.423 435.417,233.756 435,232.5C 434.5,154.834 434.333,77.1674 434.5,-0.5 Z"/></g>
<g><path style="opacity:1" fill="#305291" d="M 476.5,-0.5 C 484.167,-0.5 491.833,-0.5 499.5,-0.5C 499.5,112.833 499.5,226.167 499.5,339.5C 491.833,339.5 484.167,339.5 476.5,339.5C 477.145,313.674 476.478,288.007 474.5,262.5C 475.912,260.803 476.246,259.136 475.5,257.5C 480.319,248.969 480.653,240.302 476.5,231.5C 477.18,229.61 477.347,227.61 477,225.5C 477.667,226.167 478.333,226.833 479,227.5C 479.388,225.924 478.888,224.591 477.5,223.5C 476.5,148.836 476.167,74.1696 476.5,-0.5 Z"/></g>
<g><path style="opacity:1" fill="#315593" d="M 499.5,-0.5 C 502.833,-0.5 506.167,-0.5 509.5,-0.5C 509.5,112.833 509.5,226.167 509.5,339.5C 506.167,339.5 502.833,339.5 499.5,339.5C 499.5,226.167 499.5,112.833 499.5,-0.5 Z"/></g>
<g><path style="opacity:1" fill="#325595" d="M 509.5,-0.5 C 516.167,-0.5 522.833,-0.5 529.5,-0.5C 529.5,112.833 529.5,226.167 529.5,339.5C 522.833,339.5 516.167,339.5 509.5,339.5C 509.5,226.167 509.5,112.833 509.5,-0.5 Z"/></g>
<g><path style="opacity:1" fill="#335698" d="M 529.5,-0.5 C 537.833,-0.5 546.167,-0.5 554.5,-0.5C 554.5,112.833 554.5,226.167 554.5,339.5C 546.167,339.5 537.833,339.5 529.5,339.5C 529.5,226.167 529.5,112.833 529.5,-0.5 Z"/></g>
<g><path style="opacity:1" fill="#34589b" d="M 554.5,-0.5 C 559.5,-0.5 564.5,-0.5 569.5,-0.5C 569.5,112.833 569.5,226.167 569.5,339.5C 564.5,339.5 559.5,339.5 554.5,339.5C 554.5,226.167 554.5,112.833 554.5,-0.5 Z"/></g>
<g><path style="opacity:1" fill="#345b9e" d="M 569.5,-0.5 C 585.833,-0.5 602.167,-0.5 618.5,-0.5C 618.5,112.833 618.5,226.167 618.5,339.5C 602.167,339.5 585.833,339.5 569.5,339.5C 569.5,226.167 569.5,112.833 569.5,-0.5 Z"/></g>
<g><path style="opacity:1" fill="#365ca3" d="M 618.5,-0.5 C 625.5,-0.5 632.5,-0.5 639.5,-0.5C 639.5,112.833 639.5,226.167 639.5,339.5C 632.5,339.5 625.5,339.5 618.5,339.5C 618.5,226.167 618.5,112.833 618.5,-0.5 Z"/></g>
<g><path style="opacity:1" fill="#e2e6eb" d="M 351.5,79.5 C 351.5,80.1667 351.167,80.5 350.5,80.5C 346.862,81.2634 345.362,79.9301 346,76.5C 348.574,73.7406 350.74,74.074 352.5,77.5C 352.137,78.1835 351.804,78.8501 351.5,79.5 Z"/></g>
<g><path style="opacity:1" fill="#e1e4e9" d="M 291.5,76.5 C 291.5,77.5 291.5,78.5 291.5,79.5C 289.598,80.5109 287.598,80.6776 285.5,80C 284.785,74.5678 286.785,73.4012 291.5,76.5 Z"/></g>
<g><path style="opacity:1" fill="#ebecef" d="M 341.5,86.5 C 343.017,86.5106 344.184,87.1772 345,88.5C 345.793,94.5442 343.293,96.8776 337.5,95.5C 336.61,93.2181 336.444,90.8848 337,88.5C 338.11,86.9632 339.61,86.2965 341.5,86.5 Z"/></g>
<g><path style="opacity:1" fill="#f0f2f3" d="M 294.5,86.5 C 299.722,86.9446 301.389,89.6113 299.5,94.5C 298.423,95.7051 297.09,96.3718 295.5,96.5C 290.614,93.6233 290.281,90.29 294.5,86.5 Z"/></g>
<g><path style="opacity:1" fill="#e9ebef" d="M 268.5,98.5 C 274.452,98.6091 275.786,101.109 272.5,106C 270.888,106.72 269.388,106.554 268,105.5C 267.297,103.071 267.463,100.738 268.5,98.5 Z"/></g>
<g><path style="opacity:1" fill="#e8ebef" d="M 364.5,98.5 C 369.068,98.0826 370.568,100.083 369,104.5C 367.084,107.033 365.084,107.033 363,104.5C 362.252,102.16 362.752,100.16 364.5,98.5 Z"/></g>
<g><path style="opacity:1" fill="#ebedf0" d="M 291.5,107.5 C 293.85,109.213 294.85,111.547 294.5,114.5C 292.765,116.235 290.765,117.568 288.5,118.5C 286.399,118.368 284.899,117.368 284,115.5C 282.5,109.165 285,106.499 291.5,107.5 Z"/></g>
<g><path style="opacity:1" fill="#f2f3f5" d="M 296.5,120.5 C 304.523,120.683 308.023,124.683 307,132.5C 304.025,138.192 299.525,139.858 293.5,137.5C 292.712,136.23 291.712,135.23 290.5,134.5C 288.126,127.919 290.126,123.252 296.5,120.5 Z"/></g>
<g><path style="opacity:1" fill="#e6e9ec" d="M 271.5,125.5 C 278.486,125.331 280.153,128.164 276.5,134C 268.897,134.272 267.231,131.438 271.5,125.5 Z"/></g>
<g><path style="opacity:1" fill="#ebecf0" d="M 360.5,133.5 C 359.659,131.621 359.325,129.621 359.5,127.5C 362.194,123.561 365.028,123.561 368,127.5C 368.283,133.054 365.783,135.054 360.5,133.5 Z"/></g>
<g><path style="opacity:1" fill="#e3e6e9" d="M 255.5,132.5 C 254.89,131.609 254.557,130.609 254.5,129.5C 255.406,127.086 257.072,126.253 259.5,127C 260.406,128.699 260.739,130.533 260.5,132.5C 258.833,132.5 257.167,132.5 255.5,132.5 Z"/></g>
<g><path style="opacity:1" fill="#e5e6ec" d="M 377.5,126.5 C 382.159,126.015 383.492,127.848 381.5,132C 376.728,132.81 375.395,130.977 377.5,126.5 Z"/></g>
<g><path style="opacity:1" fill="#f6f7f8" d="M 313.5,154.5 C 303.388,156.721 299.055,152.721 300.5,142.5C 305.021,137.811 310.021,137.311 315.5,141C 318.46,146.072 317.793,150.572 313.5,154.5 Z"/></g>
<g><path style="opacity:1" fill="#eaecef" d="M 292.5,151.5 C 290.883,152.038 289.216,152.371 287.5,152.5C 283.126,149.764 282.46,146.264 285.5,142C 293.502,141.157 295.835,144.324 292.5,151.5 Z"/></g>
<g><path style="opacity:1" fill="#ebedf1" d="M 268.5,153.5 C 274.158,152.679 275.825,154.846 273.5,160C 267.741,161.139 266.074,158.972 268.5,153.5 Z"/></g>
<g><path style="opacity:1" fill="#e8ebf0" d="M 363.5,153.5 C 370.19,152.331 371.857,154.497 368.5,160C 363.262,160.594 361.595,158.427 363.5,153.5 Z"/></g>
<g><path style="opacity:1" fill="#2b487f" d="M 289.5,-0.5 C 312.5,-0.5 335.5,-0.5 358.5,-0.5C 358.833,24.8421 358.5,50.1754 357.5,75.5C 356.719,76.7287 356.219,78.062 356,79.5C 355.949,76.7234 355.782,74.0567 355.5,71.5C 354.387,74.4412 353.054,77.1079 351.5,79.5C 351.804,78.8501 352.137,78.1835 352.5,77.5C 350.74,74.074 348.574,73.7406 346,76.5C 345.362,79.9301 346.862,81.2634 350.5,80.5C 350.719,81.675 350.386,82.675 349.5,83.5C 344.703,82.0139 340.037,82.1806 335.5,84C 336.333,84.1667 337.167,84.3333 338,84.5C 341.879,83.2065 345.712,83.3731 349.5,85C 346.635,85.1829 343.969,85.6829 341.5,86.5C 339.61,86.2965 338.11,86.9632 337,88.5C 336.444,90.8848 336.61,93.2181 337.5,95.5C 337.916,97.7525 339.249,99.2525 341.5,100C 339.423,100.192 337.423,100.692 335.5,101.5C 336.727,102.59 337.56,103.924 338,105.5C 338.72,103.745 339.887,102.911 341.5,103C 339.078,105.112 339.078,107.112 341.5,109C 340.638,111.734 339.805,111.901 339,109.5C 338.722,110.416 338.222,111.082 337.5,111.5C 333.857,102.642 328.357,101.308 321,107.5C 318.116,116.95 321.616,121.45 331.5,121C 334.023,119.64 336.023,117.807 337.5,115.5C 337.709,116.922 338.209,118.255 339,119.5C 339.359,116.456 340.026,116.122 341,118.5C 341.279,115.543 342.113,112.877 343.5,110.5C 342.52,114.841 344.187,117.174 348.5,117.5C 353.545,116.809 355.212,114.143 353.5,109.5C 355.868,107.157 358.035,104.491 360,101.5C 360.684,102.784 360.517,103.951 359.5,105C 361.689,105.677 362.022,106.844 360.5,108.5C 361.811,109.258 362.311,110.258 362,111.5C 359.789,111.377 357.622,111.377 355.5,111.5C 357.433,113.572 357.433,115.905 355.5,118.5C 356.631,119.604 357.465,119.271 358,117.5C 358.179,121.025 358.679,124.359 359.5,127.5C 359.325,129.621 359.659,131.621 360.5,133.5C 359.265,133.721 358.265,134.388 357.5,135.5C 356.749,134.624 356.249,133.624 356,132.5C 355.751,133.624 355.251,134.624 354.5,135.5C 354.379,132.998 354.212,130.332 354,127.5C 352.955,130.436 352.121,133.436 351.5,136.5C 353.341,137.23 355.175,137.897 357,138.5C 358.252,141.634 358.252,144.634 357,147.5C 356.781,146.062 356.281,144.729 355.5,143.5C 354.893,143.624 354.56,143.957 354.5,144.5C 349.286,139.867 345.286,140.701 342.5,147C 344.181,151.126 347.181,152.46 351.5,151C 353.607,149.736 354.607,147.903 354.5,145.5C 355.058,147.789 356.224,149.789 358,151.5C 358.826,173.073 358.66,194.573 357.5,216C 364.167,216.667 364.167,217.333 357.5,218C 358.451,218.718 358.617,219.551 358,220.5C 356.855,221.636 355.688,222.636 354.5,223.5C 348.939,236.305 343.605,249.305 338.5,262.5C 337.957,262.56 337.624,262.893 337.5,263.5C 341.315,264.808 344.981,264.808 348.5,263.5C 349.167,262.833 349.833,262.167 350.5,261.5C 352.961,262.531 355.627,263.198 358.5,263.5C 358.5,288.833 358.5,314.167 358.5,339.5C 335.5,339.5 312.5,339.5 289.5,339.5C 288.85,316.436 289.517,293.603 291.5,271C 289.355,270.257 289.189,269.424 291,268.5C 292.171,269.34 293.338,270.173 294.5,271C 300.167,271.667 305.833,271.667 311.5,271C 306.167,270.667 300.833,270.333 295.5,270C 327.441,269.656 327.441,268.656 295.5,267C 300.833,266.667 306.167,266.333 311.5,266C 306.316,265.826 301.316,265.326 296.5,264.5C 304.352,264.825 312.018,264.492 319.5,263.5C 332.435,258.637 337.268,249.304 334,235.5C 330.715,229.706 325.882,226.039 319.5,224.5C 311.684,223.508 303.684,223.174 295.5,223.5C 295.5,236.833 295.5,250.167 295.5,263.5C 294.603,264.598 293.77,264.598 293,263.5C 292.5,210.179 291.666,210.179 290.5,263.5C 289.173,239.268 289.173,215.101 290.5,191C 288.282,189.909 286.116,188.743 284,187.5C 283.667,185.833 283.333,184.167 283,182.5C 282.107,183.711 281.274,183.711 280.5,182.5C 281.32,180.889 282.654,180.222 284.5,180.5C 284.341,185.252 286.341,186.586 290.5,184.5C 296.609,180.96 296.943,176.96 291.5,172.5C 291.624,171.893 291.957,171.56 292.5,171.5C 296.706,173.573 299.373,172.406 300.5,168C 299.859,164.078 297.525,162.578 293.5,163.5C 292.624,163.631 291.957,163.298 291.5,162.5C 292.748,160.31 294.414,159.977 296.5,161.5C 298.838,159.951 298.338,158.951 295,158.5C 292.337,159.451 289.837,158.951 287.5,157C 289.995,156.843 292.328,156.676 294.5,156.5C 291.862,155.417 289.529,154.084 287.5,152.5C 289.216,152.371 290.883,152.038 292.5,151.5C 293.583,151.461 294.583,151.127 295.5,150.5C 296.167,152.167 296.833,153.833 297.5,155.5C 298.711,154.726 298.711,153.893 297.5,153C 298.5,152.333 299.5,152.333 300.5,153C 301.249,154.734 301.749,156.567 302,158.5C 302.333,158.167 302.667,157.833 303,157.5C 305.243,159.282 307.743,159.782 310.5,159C 309.167,158.667 307.833,158.333 306.5,158C 309.167,157.333 311.833,157.333 314.5,158C 313.5,158.333 312.5,158.667 311.5,159C 312.416,159.278 313.082,159.778 313.5,160.5C 313.248,163.32 313.748,165.986 315,168.5C 321.529,169.972 324.196,167.305 323,160.5C 320.772,158.887 318.272,158.22 315.5,158.5C 316.895,157.352 316.728,156.352 315,155.5C 313.893,156.712 313.393,156.379 313.5,154.5C 317.793,150.572 318.46,146.072 315.5,141C 310.021,137.311 305.021,137.811 300.5,142.5C 299.548,141.548 298.548,140.548 297.5,139.5C 296.459,141.991 295.626,141.991 295,139.5C 293.132,140.672 291.298,140.505 289.5,139C 290.38,137.644 290.714,136.144 290.5,134.5C 291.712,135.23 292.712,136.23 293.5,137.5C 299.525,139.858 304.025,138.192 307,132.5C 308.023,124.683 304.523,120.683 296.5,120.5C 295.833,118.5 295.167,116.5 294.5,114.5C 294.85,111.547 293.85,109.213 291.5,107.5C 290.59,105.499 291.423,104.165 294,103.5C 295.833,106.333 297.333,106.167 298.5,103C 294.804,100.586 295.304,100.086 300,101.5C 300.75,100.874 301.584,100.374 302.5,100C 299.426,97.996 296.593,98.1627 294,100.5C 290.898,98.239 291.398,96.9056 295.5,96.5C 297.09,96.3718 298.423,95.7051 299.5,94.5C 301.389,89.6113 299.722,86.9446 294.5,86.5C 292.323,86.5861 290.323,87.2528 288.5,88.5C 287.304,88.1543 287.304,87.6543 288.5,87C 286.5,86.1667 284.5,85.3333 282.5,84.5C 282.833,84.1667 283.167,83.8333 283.5,83.5C 286.011,84.7813 288.678,85.4479 291.5,85.5C 306.064,83.7237 306.064,82.2237 291.5,81C 292.738,80.31 292.738,79.81 291.5,79.5C 291.5,78.5 291.5,77.5 291.5,76.5C 291.721,75.2652 292.388,74.2652 293.5,73.5C 292.609,72.4104 291.609,72.4104 290.5,73.5C 289.5,48.8423 289.167,24.1757 289.5,-0.5 Z"/></g>
<g><path style="opacity:1" fill="#eceef1" d="M 354.5,144.5 C 354.5,144.833 354.5,145.167 354.5,145.5C 354.607,147.903 353.607,149.736 351.5,151C 347.181,152.46 344.181,151.126 342.5,147C 345.286,140.701 349.286,139.867 354.5,144.5 Z"/></g>
<g><path style="opacity:1" fill="#f6f7f8" d="M 324.5,138.5 C 336.814,137.968 340.147,143.135 334.5,154C 325.109,157.593 320.275,154.427 320,144.5C 321.332,142.34 322.832,140.34 324.5,138.5 Z"/></g>
<g><path style="opacity:1" fill="#f2f3f5" d="M 335.5,120.5 C 346.166,120.81 349.499,125.81 345.5,135.5C 339.277,139.955 334.11,138.955 330,132.5C 328.873,127.089 330.707,123.089 335.5,120.5 Z"/></g>
<g><path style="opacity:1" fill="#f0f2f4" d="M 353.5,109.5 C 355.212,114.143 353.545,116.809 348.5,117.5C 344.187,117.174 342.52,114.841 343.5,110.5C 346.344,106.837 349.678,106.504 353.5,109.5 Z"/></g>
<g><path style="opacity:1" fill="#f3f4f5" d="M 337.5,111.5 C 337.5,112.833 337.5,114.167 337.5,115.5C 336.023,117.807 334.023,119.64 331.5,121C 321.616,121.45 318.116,116.95 321,107.5C 328.357,101.308 333.857,102.642 337.5,111.5 Z"/></g>
<g><path style="opacity:1" fill="#f3f4f6" d="M 305.5,103.5 C 313.986,103.151 317.82,107.151 317,115.5C 314.647,120.426 310.814,122.26 305.5,121C 297.555,115.17 297.555,109.336 305.5,103.5 Z"/></g>
<g><path style="opacity:1" fill="#f2f4f5" d="M 315.5,90.5 C 323.486,89.998 325.486,93.1647 321.5,100C 313.424,100.805 311.424,97.638 315.5,90.5 Z"/></g>
<g><path style="opacity:1" fill="#dddfe5" d="M 316.5,71.5 C 322.362,71.6621 323.695,74.1621 320.5,79C 314.412,79.0841 313.079,76.5841 316.5,71.5 Z"/></g>
<g><path style="opacity:1" fill="#eeeff2" d="M 315.5,158.5 C 318.272,158.22 320.772,158.887 323,160.5C 324.196,167.305 321.529,169.972 315,168.5C 313.748,165.986 313.248,163.32 313.5,160.5C 314.5,160.167 315.167,159.5 315.5,158.5 Z"/></g>
<g><path style="opacity:1" fill="#eaedf0" d="M 293.5,163.5 C 297.525,162.578 299.859,164.078 300.5,168C 299.373,172.406 296.706,173.573 292.5,171.5C 291.017,168.589 291.35,165.922 293.5,163.5 Z"/></g>
<g><path style="opacity:1" fill="#edeff2" d="M 338.5,163.5 C 345.486,163.331 347.153,166.164 343.5,172C 336.416,172.475 334.749,169.642 338.5,163.5 Z"/></g>
<g><path style="opacity:1" fill="#e0e4ea" d="M 290.5,184.5 C 285.841,184.985 284.508,183.152 286.5,179C 291.272,178.19 292.605,180.023 290.5,184.5 Z"/></g>
<g><path style="opacity:1" fill="#e3e7ea" d="M 347.5,178.5 C 352.159,178.015 353.492,179.848 351.5,184C 346.728,184.81 345.395,182.977 347.5,178.5 Z"/></g>
<g><path style="opacity:1" fill="#e1e5e9" d="M 315.5,180.5 C 323.304,180.917 324.304,183.583 318.5,188.5C 314.534,187.054 313.534,184.387 315.5,180.5 Z"/></g>
<g><path style="opacity:1" fill="#6375a0" d="M 451.5,223.5 C 455.311,222.355 459.311,222.188 463.5,223C 465.32,223.2 466.653,224.034 467.5,225.5C 462.324,223.816 456.991,223.15 451.5,223.5 Z"/></g>
<g><path style="opacity:1" fill="#f6f6f7" d="M 187.5,224.5 C 190.76,225.606 193.426,227.606 195.5,230.5C 193.642,232.524 191.975,234.691 190.5,237C 187.791,235.488 184.791,234.155 181.5,233C 178.046,232.593 174.879,233.427 172,235.5C 166.647,242.879 167.813,249.045 175.5,254C 180.708,254.986 185.374,253.819 189.5,250.5C 191.483,251.982 193.316,253.649 195,255.5C 195.684,256.784 195.517,257.951 194.5,259C 191.027,261.318 187.361,263.151 183.5,264.5C 179.154,264.666 174.821,264.499 170.5,264C 168.5,262.667 166.5,261.333 164.5,260C 156.808,251.298 155.641,241.798 161,231.5C 168.257,223.745 177.09,221.411 187.5,224.5 Z"/></g>
<g><path style="opacity:1" fill="#f6f7f8" d="M 451.5,223.5 C 456.991,223.15 462.324,223.816 467.5,225.5C 471.023,226.685 474.023,228.685 476.5,231.5C 480.653,240.302 480.319,248.969 475.5,257.5C 468.087,264.116 459.42,266.283 449.5,264C 446.833,262.333 444.167,260.667 441.5,259C 439.699,256.557 438.032,254.057 436.5,251.5C 434.904,245.668 435.237,240.002 437.5,234.5C 440.413,228.585 445.08,224.919 451.5,223.5 Z"/></g>
<g><path style="opacity:1" fill="#f4f5f6" d="M 243.5,262.5 C 241.866,263.161 240.033,263.494 238,263.5C 235.551,263.342 233.384,262.675 231.5,261.5C 231.461,260.417 231.127,259.417 230.5,258.5C 224.5,257.167 218.5,257.167 212.5,258.5C 211.826,260.195 211.159,261.862 210.5,263.5C 206.351,264.08 202.684,263.414 199.5,261.5C 204.505,249.142 209.839,236.809 215.5,224.5C 219.5,223.167 223.5,223.167 227.5,224.5C 233.386,236.937 238.719,249.604 243.5,262.5 Z"/></g>
<g><path style="opacity:1" fill="#fafafb" d="M 274.5,224.5 C 279.193,225.111 282.693,227.444 285,231.5C 287.07,239.379 285.237,246.046 279.5,251.5C 282.094,255.026 284.427,258.692 286.5,262.5C 282.702,263.483 278.702,263.817 274.5,263.5C 272.456,260.377 270.789,257.044 269.5,253.5C 267.052,252.527 264.385,252.194 261.5,252.5C 261.5,256.167 261.5,259.833 261.5,263.5C 258.167,263.5 254.833,263.5 251.5,263.5C 251.5,250.5 251.5,237.5 251.5,224.5C 259.167,224.5 266.833,224.5 274.5,224.5 Z"/></g>
<g><path style="opacity:1" fill="#fafafa" d="M 319.5,224.5 C 325.882,226.039 330.715,229.706 334,235.5C 337.268,249.304 332.435,258.637 319.5,263.5C 311.833,263.5 304.167,263.5 296.5,263.5C 296.5,250.5 296.5,237.5 296.5,224.5C 304.167,224.5 311.833,224.5 319.5,224.5 Z"/></g>
<g><path style="opacity:1" fill="#f5f6f7" d="M 354.5,223.5 C 358.767,223.203 362.934,223.536 367,224.5C 372.201,236.892 377.368,249.226 382.5,261.5C 379.316,263.414 375.649,264.08 371.5,263.5C 370.639,261.614 369.639,259.78 368.5,258C 362.833,257.333 357.167,257.333 351.5,258C 350.663,259.011 350.33,260.178 350.5,261.5C 349.833,262.167 349.167,262.833 348.5,263.5C 344.958,263.813 341.625,263.479 338.5,262.5C 343.605,249.305 348.939,236.305 354.5,223.5 Z"/></g>
<g><path style="opacity:1" fill="#fbfcfc" d="M 399.5,224.5 C 405.183,230.854 410.516,237.52 415.5,244.5C 415.783,245.289 416.283,245.956 417,246.5C 417.5,239.174 417.666,231.841 417.5,224.5C 420.5,224.5 423.5,224.5 426.5,224.5C 426.5,237.5 426.5,250.5 426.5,263.5C 423.5,263.5 420.5,263.5 417.5,263.5C 412.198,256.524 406.864,249.524 401.5,242.5C 401.44,241.957 401.107,241.624 400.5,241.5C 399.503,248.803 399.169,256.137 399.5,263.5C 396.5,263.5 393.5,263.5 390.5,263.5C 390.5,250.5 390.5,237.5 390.5,224.5C 393.5,224.5 396.5,224.5 399.5,224.5 Z"/></g>
<g><path style="opacity:1" fill="#bfc3d0" d="M 417.5,224.5 C 417.5,224.167 417.5,223.833 417.5,223.5C 420.833,223.5 424.167,223.5 427.5,223.5C 427.5,237.167 427.5,250.833 427.5,264.5C 423.958,264.813 420.625,264.479 417.5,263.5C 420.5,263.5 423.5,263.5 426.5,263.5C 426.5,250.5 426.5,237.5 426.5,224.5C 423.5,224.5 420.5,224.5 417.5,224.5 Z"/></g>
<g><path style="opacity:1" fill="#bfc2ce" d="M 319.5,224.5 C 311.833,224.5 304.167,224.5 296.5,224.5C 296.5,237.5 296.5,250.5 296.5,263.5C 304.167,263.5 311.833,263.5 319.5,263.5C 312.018,264.492 304.352,264.825 296.5,264.5C 295.833,264.5 295.5,264.167 295.5,263.5C 295.5,250.167 295.5,236.833 295.5,223.5C 303.684,223.174 311.684,223.508 319.5,224.5 Z"/></g>
<g><path style="opacity:1" fill="#cbced7" d="M 250.5,223.5 C 258.684,223.174 266.684,223.508 274.5,224.5C 266.833,224.5 259.167,224.5 251.5,224.5C 251.5,237.5 251.5,250.5 251.5,263.5C 251.167,263.5 250.833,263.5 250.5,263.5C 250.5,250.167 250.5,236.833 250.5,223.5 Z"/></g>
<g><path style="opacity:1" fill="#bec2ce" d="M 399.5,224.5 C 396.5,224.5 393.5,224.5 390.5,224.5C 390.5,237.5 390.5,250.5 390.5,263.5C 393.5,263.5 396.5,263.5 399.5,263.5C 399.169,256.137 399.503,248.803 400.5,241.5C 401.107,241.624 401.44,241.957 401.5,242.5C 400.508,249.648 400.175,256.981 400.5,264.5C 396.833,264.5 393.167,264.5 389.5,264.5C 389.5,250.833 389.5,237.167 389.5,223.5C 393.042,223.187 396.375,223.521 399.5,224.5 Z"/></g>
<g><path style="opacity:1" fill="#8794b0" d="M 417.5,223.5 C 417.5,223.833 417.5,224.167 417.5,224.5C 417.666,231.841 417.5,239.174 417,246.5C 416.283,245.956 415.783,245.289 415.5,244.5C 416.167,237.5 416.833,230.5 417.5,223.5 Z"/></g>
<g><path style="opacity:1" fill="#2d477a" d="M 271.5,233.5 C 275.775,235.316 276.608,238.316 274,242.5C 273.329,243.252 272.496,243.586 271.5,243.5C 268.5,243.5 265.5,243.5 262.5,243.5C 262.5,240.167 262.5,236.833 262.5,233.5C 265.5,233.5 268.5,233.5 271.5,233.5 Z"/></g>
<g><path style="opacity:1" fill="#6d7995" d="M 271.5,233.5 C 268.5,233.5 265.5,233.5 262.5,233.5C 262.5,236.833 262.5,240.167 262.5,243.5C 265.5,243.5 268.5,243.5 271.5,243.5C 268.375,244.479 265.042,244.813 261.5,244.5C 261.5,240.5 261.5,236.5 261.5,232.5C 265.042,232.187 268.375,232.521 271.5,233.5 Z"/></g>
<g><path style="opacity:1" fill="#33538e" d="M 453.5,232.5 C 465.676,232.211 470.176,237.878 467,249.5C 460.157,257.745 453.823,257.412 448,248.5C 447.333,245.5 447.333,242.5 448,239.5C 449.666,237.004 451.5,234.671 453.5,232.5 Z"/></g>
<g><path style="opacity:1" fill="#8a92a9" d="M 315.5,233.5 C 312.833,233.5 310.167,233.5 307.5,233.5C 307.5,240.5 307.5,247.5 307.5,254.5C 310.167,254.5 312.833,254.5 315.5,254.5C 312.713,255.477 309.713,255.81 306.5,255.5C 306.5,247.833 306.5,240.167 306.5,232.5C 309.713,232.19 312.713,232.523 315.5,233.5 Z"/></g>
<g><path style="opacity:1" fill="#2d487e" d="M 315.5,233.5 C 323.758,237.34 325.591,243.34 321,251.5C 319.512,253.16 317.679,254.16 315.5,254.5C 312.833,254.5 310.167,254.5 307.5,254.5C 307.5,247.5 307.5,240.5 307.5,233.5C 310.167,233.5 312.833,233.5 315.5,233.5 Z"/></g>
<g><path style="opacity:1" fill="#385186" d="M 359.5,236.5 C 362.707,239.768 364.373,243.768 364.5,248.5C 361.5,248.5 358.5,248.5 355.5,248.5C 356.825,244.547 358.159,240.547 359.5,236.5 Z"/></g>
<g><path style="opacity:1" fill="#384c7a" d="M 220.5,236.5 C 221.79,237.058 222.623,238.058 223,239.5C 223.532,242.264 224.366,244.93 225.5,247.5C 222.5,248.833 219.5,248.833 216.5,247.5C 217.989,243.87 219.322,240.204 220.5,236.5 Z"/></g>
<g><path style="opacity:1" fill="#8890a8" d="M 269.5,253.5 C 267.167,253.5 264.833,253.5 262.5,253.5C 262.815,257.371 262.482,261.038 261.5,264.5C 257.629,264.815 253.962,264.482 250.5,263.5C 250.833,263.5 251.167,263.5 251.5,263.5C 254.833,263.5 258.167,263.5 261.5,263.5C 261.5,259.833 261.5,256.167 261.5,252.5C 264.385,252.194 267.052,252.527 269.5,253.5 Z"/></g>
<g><path style="opacity:1" fill="#2f508d" d="M 436.5,251.5 C 438.032,254.057 439.699,256.557 441.5,259C 444.167,260.667 446.833,262.333 449.5,264C 459.42,266.283 468.087,264.116 475.5,257.5C 476.246,259.136 475.912,260.803 474.5,262.5C 476.478,288.007 477.145,313.674 476.5,339.5C 462.5,339.5 448.5,339.5 434.5,339.5C 434.167,314.158 434.5,288.825 435.5,263.5C 436.635,262.897 437.635,262.564 438.5,262.5C 432.687,259.469 432.02,255.802 436.5,251.5 Z"/></g>
<g><path style="opacity:1" fill="#a5a9b7" d="M 199.5,261.5 C 202.684,263.414 206.351,264.08 210.5,263.5C 206.702,264.483 202.702,264.817 198.5,264.5C 198.263,263.209 198.596,262.209 199.5,261.5 Z"/></g>
<g><path style="opacity:1" fill="#a2a7b4" d="M 231.5,261.5 C 233.384,262.675 235.551,263.342 238,263.5C 240.033,263.494 241.866,263.161 243.5,262.5C 244.043,262.56 244.376,262.893 244.5,263.5C 240.217,264.492 235.884,264.826 231.5,264.5C 231.5,263.5 231.5,262.5 231.5,261.5 Z"/></g>
<g><path style="opacity:1" fill="#a0a7b5" d="M 286.5,262.5 C 287.043,262.56 287.376,262.893 287.5,263.5C 283.016,264.811 278.683,264.811 274.5,263.5C 278.702,263.817 282.702,263.483 286.5,262.5 Z"/></g>
<g><path style="opacity:1" fill="#a8aebd" d="M 338.5,262.5 C 341.625,263.479 344.958,263.813 348.5,263.5C 344.981,264.808 341.315,264.808 337.5,263.5C 337.624,262.893 337.957,262.56 338.5,262.5 Z"/></g>
<g><path style="opacity:1" fill="#a4abbf" d="M 382.5,261.5 C 383.404,262.209 383.737,263.209 383.5,264.5C 379.298,264.817 375.298,264.483 371.5,263.5C 375.649,264.08 379.316,263.414 382.5,261.5 Z"/></g>
</svg>
