<?xml version="1.0" encoding="UTF-8"?>
<!DOCTYPE svg PUBLIC "-//W3C//DTD SVG 1.1//EN" "http://www.w3.org/Graphics/SVG/1.1/DTD/svg11.dtd">
<svg xmlns="http://www.w3.org/2000/svg" version="1.1" viewBox="614 -135 45 941" style="shape-rendering:geometricPrecision; text-rendering:geometricPrecision; image-rendering:optimizeQuality; fill-rule:evenodd; clip-rule:evenodd" xmlns:xlink="http://www.w3.org/1999/xlink">
<g><path style="opacity:1" fill="#000000" d="M -0.5,-0.5 C 426.167,-0.5 852.833,-0.5 1279.5,-0.5C 1279.5,226.167 1279.5,452.833 1279.5,679.5C 852.833,679.5 426.167,679.5 -0.5,679.5C -0.5,452.833 -0.5,226.167 -0.5,-0.5 Z"/></g>
<g><path style="opacity:1" fill="#5b626f" d="M 652.5,149.5 C 648.102,149.294 643.768,149.627 639.5,150.5C 639.611,149.883 639.944,149.383 640.5,149C 644.689,148.188 648.689,148.355 652.5,149.5 Z"/></g>
<g><path style="opacity:1" fill="#4a5c6c" d="M 666.5,154.5 C 668.027,154.427 669.027,155.094 669.5,156.5C 667.973,156.573 666.973,155.906 666.5,154.5 Z"/></g>
<g><path style="opacity:1" fill="#697e8f" d="M 613.5,164.5 C 610.986,167.644 607.653,169.644 603.5,170.5C 603.953,169.542 604.619,168.708 605.5,168C 608.064,166.604 610.731,165.437 613.5,164.5 Z"/></g>
<g><path style="opacity:1" fill="#88a4bd" d="M 603.5,170.5 C 603.5,171.5 603.5,172.5 603.5,173.5C 601.139,173.674 598.806,174.007 596.5,174.5C 596.33,175.822 596.663,176.989 597.5,178C 595.63,179.366 593.63,180.533 591.5,181.5C 590.833,181.167 590.167,180.833 589.5,180.5C 585.638,182.563 581.638,184.23 577.5,185.5C 578.936,184.571 580.269,183.405 581.5,182C 588.723,177.941 596.056,174.108 603.5,170.5 Z"/></g>
<g><path style="opacity:1" fill="#2b3a44" d="M 732.5,192.5 C 735.546,192.725 737.879,194.058 739.5,196.5C 736.9,195.532 734.566,194.199 732.5,192.5 Z"/></g>
<g><path style="opacity:1" fill="#8faabd" d="M 577.5,185.5 C 575.903,187.764 573.903,189.764 571.5,191.5C 570.24,193.353 570.24,195.186 571.5,197C 567.129,197.172 562.796,197.672 558.5,198.5C 557.184,199.807 556.184,201.307 555.5,203C 551.371,203.327 547.371,204.16 543.5,205.5C 554.167,197.828 565.5,191.162 577.5,185.5 Z"/></g>
<g><path style="opacity:1" fill="#0f131a" d="M 745.5,199.5 C 748.572,200.589 751.572,201.922 754.5,203.5C 755.086,203.291 755.586,202.957 756,202.5C 758.333,203.5 760.667,204.5 763,205.5C 763.414,205.043 763.914,204.709 764.5,204.5C 765.474,206.743 765.808,209.076 765.5,211.5C 759.429,208.626 753.429,205.459 747.5,202C 746.619,201.292 745.953,200.458 745.5,199.5 Z"/></g>
<g><path style="opacity:1" fill="#95bcd9" d="M 652.5,149.5 C 654.199,149.34 655.866,149.506 657.5,150C 660.553,151.527 663.553,153.027 666.5,154.5C 666.973,155.906 667.973,156.573 669.5,156.5C 689.979,169.233 710.979,181.233 732.5,192.5C 734.566,194.199 736.9,195.532 739.5,196.5C 741.181,198.008 743.181,199.008 745.5,199.5C 745.953,200.458 746.619,201.292 747.5,202C 753.429,205.459 759.429,208.626 765.5,211.5C 765.5,212.167 765.833,212.5 766.5,212.5C 768.396,215.284 770.063,218.284 771.5,221.5C 770.391,223.214 771.058,223.881 773.5,223.5C 775.553,228.018 777.387,232.685 779,237.5C 779.167,240.5 779.333,243.5 779.5,246.5C 779.784,286.162 779.284,325.829 778,365.5C 775.933,368.109 773.766,370.609 771.5,373C 772.099,374.622 772.766,376.122 773.5,377.5C 770.681,380.075 767.681,382.408 764.5,384.5C 752.505,391.165 740.505,397.831 728.5,404.5C 726.658,402.966 725.325,403.3 724.5,405.5C 718.203,407.325 712.203,409.658 706.5,412.5C 703.506,411.252 700.506,411.252 697.5,412.5C 698.252,416.23 696.918,417.063 693.5,415C 694.624,414.161 695.291,412.994 695.5,411.5C 694.201,410.224 693.534,408.224 693.5,405.5C 701.113,400.884 708.446,395.884 715.5,390.5C 718.944,388.444 722.611,386.944 726.5,386C 727.252,385.329 727.586,384.496 727.5,383.5C 731.275,382.113 734.941,380.447 738.5,378.5C 739.872,377.488 741.205,376.488 742.5,375.5C 750.208,372.641 757.041,368.307 763,362.5C 763.5,354.507 763.666,346.507 763.5,338.5C 763.667,303.498 763.5,268.498 763,233.5C 762.722,232.584 762.222,231.918 761.5,231.5C 728.524,211.686 695.191,192.519 661.5,174C 659.167,172.167 656.833,170.333 654.5,168.5C 651.365,167.217 648.365,167.217 645.5,168.5C 641.895,168.799 638.561,169.965 635.5,172C 629.156,175.504 623.156,179.504 617.5,184C 611.457,187.022 605.457,190.022 599.5,193C 588.538,199.819 577.538,206.652 566.5,213.5C 557.326,218.213 548.326,223.046 539.5,228C 537.536,229.451 536.203,231.284 535.5,233.5C 534.662,233.842 534.328,234.508 534.5,235.5C 533.502,268.662 533.168,301.996 533.5,335.5C 530.845,340.139 528.179,344.806 525.5,349.5C 523.167,350.167 520.833,350.833 518.5,351.5C 518.512,317.366 518.512,283.199 518.5,249C 519.279,242.203 519.779,235.37 520,228.5C 521.946,223.441 524.779,218.941 528.5,215C 535.23,214.415 540.23,211.248 543.5,205.5C 547.371,204.16 551.371,203.327 555.5,203C 556.184,201.307 557.184,199.807 558.5,198.5C 562.796,197.672 567.129,197.172 571.5,197C 570.24,195.186 570.24,193.353 571.5,191.5C 573.903,189.764 575.903,187.764 577.5,185.5C 581.638,184.23 585.638,182.563 589.5,180.5C 590.167,180.833 590.833,181.167 591.5,181.5C 593.63,180.533 595.63,179.366 597.5,178C 596.663,176.989 596.33,175.822 596.5,174.5C 598.806,174.007 601.139,173.674 603.5,173.5C 603.5,172.5 603.5,171.5 603.5,170.5C 607.653,169.644 610.986,167.644 613.5,164.5C 621.553,158.805 630.22,154.138 639.5,150.5C 643.768,149.627 648.102,149.294 652.5,149.5 Z"/></g>
<g><path style="opacity:1" fill="#2e3e58" d="M 645.5,168.5 C 648.97,168.71 648.97,169.877 645.5,172C 643.655,173.128 641.655,173.628 639.5,173.5C 639.5,174.5 639.5,175.5 639.5,176.5C 635.25,176.791 631.25,177.957 627.5,180C 625.167,182 623.667,184.5 623,187.5C 620.546,185.987 618.879,186.654 618,189.5C 612.827,188.526 608.993,190.526 606.5,195.5C 604.587,196.373 602.753,197.373 601,198.5C 599.374,198.146 597.541,198.146 595.5,198.5C 595.62,201.205 594.62,201.872 592.5,200.5C 591.646,201.948 590.646,203.281 589.5,204.5C 586.871,205.209 584.371,206.209 582,207.5C 581.127,207.265 580.293,206.931 579.5,206.5C 577.677,208.158 576.01,209.991 574.5,212C 571.986,213.252 569.32,213.752 566.5,213.5C 577.538,206.652 588.538,199.819 599.5,193C 605.457,190.022 611.457,187.022 617.5,184C 623.156,179.504 629.156,175.504 635.5,172C 638.561,169.965 641.895,168.799 645.5,168.5 Z"/></g>
<g><path style="opacity:1" fill="#2e374c" d="M 645.5,168.5 C 648.365,167.217 651.365,167.217 654.5,168.5C 656.833,170.333 659.167,172.167 661.5,174C 695.191,192.519 728.524,211.686 761.5,231.5C 762.137,265.321 761.47,298.988 759.5,332.5C 758.728,331.306 757.728,330.306 756.5,329.5C 752.335,323.843 748.668,317.843 745.5,311.5C 745.873,308.018 744.873,305.018 742.5,302.5C 741.914,302.709 741.414,303.043 741,303.5C 740.583,302.244 739.75,301.577 738.5,301.5C 731.188,290.892 724.354,279.892 718,268.5C 716.961,267.29 715.794,266.29 714.5,265.5C 712.089,261.682 709.923,257.682 708,253.5C 705.333,248.167 702.667,248.167 700,253.5C 698.677,256.965 697.177,260.299 695.5,263.5C 692.227,269.106 688.56,274.44 684.5,279.5C 683.913,275.737 683.913,272.071 684.5,268.5C 687.845,268.674 689.012,267.341 688,264.5C 689.907,262.554 691.74,260.554 693.5,258.5C 692.609,257.41 691.609,257.41 690.5,258.5C 689.373,256.731 689.873,255.397 692,254.5C 692.973,252.608 693.64,250.608 694,248.5C 694.689,247.643 695.522,246.977 696.5,246.5C 696.296,247.529 696.796,248.529 698,249.5C 698.71,248.027 699.876,247.36 701.5,247.5C 702.576,243.143 702.576,238.81 701.5,234.5C 686.131,234.859 670.797,234.359 655.5,233C 658.167,232.667 660.833,232.333 663.5,232C 658.431,230.505 654.264,231.672 651,235.5C 650.333,234.833 649.667,234.167 649,233.5C 647.863,234.364 646.53,235.364 645,236.5C 644.598,237.872 644.098,239.205 643.5,240.5C 643.257,244.085 643.591,247.418 644.5,250.5C 643,254.173 641,257.506 638.5,260.5C 635.871,261.129 634.204,262.795 633.5,265.5C 631.584,264.752 629.584,264.752 627.5,265.5C 627.5,263.5 627.5,261.5 627.5,259.5C 631.1,251.951 635.433,244.951 640.5,238.5C 641.404,237.791 641.737,236.791 641.5,235.5C 631.652,235.173 621.986,235.506 612.5,236.5C 606.864,237.16 601.864,239.16 597.5,242.5C 593.833,243.5 591.5,245.833 590.5,249.5C 588.413,250.585 587.08,252.251 586.5,254.5C 582.447,259.892 578.78,265.559 575.5,271.5C 573.142,274.546 571.142,277.879 569.5,281.5C 564.387,287.622 560.054,294.289 556.5,301.5C 554.674,303.147 553.34,305.147 552.5,307.5C 546.349,315.788 540.683,324.455 535.5,333.5C 534.521,330.375 534.187,327.042 534.5,323.5C 535.117,323.611 535.617,323.944 536,324.5C 536.862,322.913 537.529,321.246 538,319.5C 538.333,313.167 538.667,306.833 539,300.5C 540.079,298.606 541.413,298.273 543,299.5C 543.499,294.511 543.666,289.511 543.5,284.5C 541.61,284.703 540.11,284.037 539,282.5C 538.333,277.833 538.333,273.167 539,268.5C 540.079,266.606 541.413,266.273 543,267.5C 543.167,264.667 543.333,261.833 543.5,259C 543.442,255.724 542.776,252.724 541.5,250C 542.167,249.333 542.833,248.667 543.5,248C 542.175,248.148 541.008,247.982 540,247.5C 539.834,251.511 539,252.011 537.5,249C 537.229,245.487 537.563,241.82 538.5,238C 537.922,236.189 537.422,234.355 537,232.5C 536.617,233.056 536.117,233.389 535.5,233.5C 536.203,231.284 537.536,229.451 539.5,228C 548.326,223.046 557.326,218.213 566.5,213.5C 569.32,213.752 571.986,213.252 574.5,212C 576.01,209.991 577.677,208.158 579.5,206.5C 580.293,206.931 581.127,207.265 582,207.5C 584.371,206.209 586.871,205.209 589.5,204.5C 590.646,203.281 591.646,201.948 592.5,200.5C 594.62,201.872 595.62,201.205 595.5,198.5C 597.541,198.146 599.374,198.146 601,198.5C 602.753,197.373 604.587,196.373 606.5,195.5C 608.993,190.526 612.827,188.526 618,189.5C 618.879,186.654 620.546,185.987 623,187.5C 623.667,184.5 625.167,182 627.5,180C 631.25,177.957 635.25,176.791 639.5,176.5C 639.5,175.5 639.5,174.5 639.5,173.5C 641.655,173.628 643.655,173.128 645.5,172C 648.97,169.877 648.97,168.71 645.5,168.5 Z"/></g>
<g><path style="opacity:1" fill="#b2b6c2" d="M 612.5,236.5 C 621.986,235.506 631.652,235.173 641.5,235.5C 641.737,236.791 641.404,237.791 640.5,238.5C 631.56,236.528 622.227,235.861 612.5,236.5 Z"/></g>
<g><path style="opacity:1" fill="#fbfbfc" d="M 612.5,236.5 C 622.227,235.861 631.56,236.528 640.5,238.5C 635.433,244.951 631.1,251.951 627.5,259.5C 625.674,261.147 624.34,263.147 623.5,265.5C 621.178,266.802 619.845,268.802 619.5,271.5C 617.137,274.549 615.137,277.882 613.5,281.5C 611,284.494 609,287.827 607.5,291.5C 605.172,292.736 604.006,294.736 604,297.5C 600.64,300.117 598.473,303.45 597.5,307.5C 595.178,308.802 593.845,310.802 593.5,313.5C 592.094,313.973 591.427,314.973 591.5,316.5C 587.047,321.967 583.381,327.967 580.5,334.5C 578.75,335.659 577.75,337.326 577.5,339.5C 575.178,340.802 573.845,342.802 573.5,345.5C 571.025,346.687 570.025,348.687 570.5,351.5C 566.962,355.416 563.962,359.749 561.5,364.5C 560.094,364.973 559.427,365.973 559.5,367.5C 556.791,371.308 554.458,375.308 552.5,379.5C 550.738,380.262 549.738,381.596 549.5,383.5C 548.167,386.493 546.167,388.827 543.5,390.5C 542.508,390.672 541.842,390.338 541.5,389.5C 540.058,388.18 539.392,386.514 539.5,384.5C 537.5,384.5 535.5,384.5 533.5,384.5C 531.71,383.239 530.043,381.739 528.5,380C 526.866,379.506 525.199,379.34 523.5,379.5C 522.738,377.738 521.404,376.738 519.5,376.5C 518.833,376.5 518.167,376.5 517.5,376.5C 517.5,376.167 517.5,375.833 517.5,375.5C 516.564,371.265 516.231,366.931 516.5,362.5C 519.734,358.378 522.734,354.045 525.5,349.5C 528.179,344.806 530.845,340.139 533.5,335.5C 534.5,335.167 535.167,334.5 535.5,333.5C 540.683,324.455 546.349,315.788 552.5,307.5C 554.822,306.198 556.155,304.198 556.5,301.5C 560.054,294.289 564.387,287.622 569.5,281.5C 571.075,279.475 572.908,277.475 575,275.5C 575.49,274.207 575.657,272.873 575.5,271.5C 578.78,265.559 582.447,259.892 586.5,254.5C 588.587,253.415 589.92,251.749 590.5,249.5C 591.5,245.833 593.833,243.5 597.5,242.5C 602.735,240.871 607.735,238.871 612.5,236.5 Z"/></g>
<g><path style="opacity:1" fill="#fafbfb" d="M 653.5,236.5 C 668.206,235.85 682.539,236.517 696.5,238.5C 691.093,246.577 686.093,254.91 681.5,263.5C 680.094,263.973 679.427,264.973 679.5,266.5C 677.271,269.184 675.605,272.184 674.5,275.5C 672.025,276.687 671.025,278.687 671.5,281.5C 668.443,285.258 665.61,289.258 663,293.5C 657.236,303.362 651.736,313.362 646.5,323.5C 643.579,326.242 641.579,329.575 640.5,333.5C 637.665,337.164 635.332,341.164 633.5,345.5C 624.666,359.162 616.333,373.162 608.5,387.5C 607.094,387.973 606.427,388.973 606.5,390.5C 604.404,393.262 602.738,396.262 601.5,399.5C 598.777,402.586 596.277,405.92 594,409.5C 592.589,411.65 591.755,413.984 591.5,416.5C 589.263,415.551 586.929,414.884 584.5,414.5C 584.027,413.094 583.027,412.427 581.5,412.5C 579.181,412.008 577.181,411.008 575.5,409.5C 574.738,407.738 573.404,406.738 571.5,406.5C 568.515,405.674 565.849,404.341 563.5,402.5C 563.027,401.094 562.027,400.427 560.5,400.5C 558.847,400.34 557.514,399.674 556.5,398.5C 558.357,395.583 560.024,392.583 561.5,389.5C 563.942,387.879 565.275,385.546 565.5,382.5C 565.932,381.29 566.599,380.29 567.5,379.5C 570.652,377.883 572.318,375.216 572.5,371.5C 579.11,359.566 586.11,347.9 593.5,336.5C 595.408,335.514 596.408,333.848 596.5,331.5C 597.669,328.489 599.336,325.822 601.5,323.5C 603.074,323.063 604.241,322.063 605,320.5C 606.18,317.479 607.346,314.479 608.5,311.5C 613.335,302.491 618.668,293.824 624.5,285.5C 627.974,283.247 629.974,279.914 630.5,275.5C 633.423,270.654 636.09,265.654 638.5,260.5C 641,257.506 643,254.173 644.5,250.5C 647.985,246.21 650.985,241.543 653.5,236.5 Z"/></g>
<g><path style="opacity:1" fill="#29394c" d="M 534.5,323.5 C 534.5,294.167 534.5,264.833 534.5,235.5C 534.328,234.508 534.662,233.842 535.5,233.5C 536.117,233.389 536.617,233.056 537,232.5C 537.422,234.355 537.922,236.189 538.5,238C 537.563,241.82 537.229,245.487 537.5,249C 539,252.011 539.834,251.511 540,247.5C 541.008,247.982 542.175,248.148 543.5,248C 542.833,248.667 542.167,249.333 541.5,250C 542.776,252.724 543.442,255.724 543.5,259C 543.333,261.833 543.167,264.667 543,267.5C 541.413,266.273 540.079,266.606 539,268.5C 538.333,273.167 538.333,277.833 539,282.5C 540.11,284.037 541.61,284.703 543.5,284.5C 543.666,289.511 543.499,294.511 543,299.5C 541.413,298.273 540.079,298.606 539,300.5C 538.667,306.833 538.333,313.167 538,319.5C 537.529,321.246 536.862,322.913 536,324.5C 535.617,323.944 535.117,323.611 534.5,323.5 Z"/></g>
<g><path style="opacity:1" fill="#c6ced4" d="M 612.5,236.5 C 607.735,238.871 602.735,240.871 597.5,242.5C 601.864,239.16 606.864,237.16 612.5,236.5 Z"/></g>
<g><path style="opacity:1" fill="#95b2c6" d="M 766.5,212.5 C 774.216,216.584 779.049,222.917 781,231.5C 781.667,275.833 781.667,320.167 781,364.5C 780.392,366.154 779.892,367.821 779.5,369.5C 777.885,372.45 775.885,375.116 773.5,377.5C 772.766,376.122 772.099,374.622 771.5,373C 773.766,370.609 775.933,368.109 778,365.5C 779.284,325.829 779.784,286.162 779.5,246.5C 779.333,243.5 779.167,240.5 779,237.5C 777.387,232.685 775.553,228.018 773.5,223.5C 771.058,223.881 770.391,223.214 771.5,221.5C 770.063,218.284 768.396,215.284 766.5,212.5 Z"/></g>
<g><path style="opacity:1" fill="#1c282f" d="M 515.5,235.5 C 514.838,282.512 515.505,329.179 517.5,375.5C 517.5,375.833 517.5,376.167 517.5,376.5C 516.5,376.5 515.5,376.5 514.5,376.5C 514.168,329.33 514.501,282.33 515.5,235.5 Z"/></g>
<g><path style="opacity:1" fill="#718792" d="M 516.5,228.5 C 516.5,273.167 516.5,317.833 516.5,362.5C 516.231,366.931 516.564,371.265 517.5,375.5C 515.505,329.179 514.838,282.512 515.5,235.5C 515.198,232.941 515.532,230.607 516.5,228.5 Z"/></g>
<g><path style="opacity:1" fill="#9dbbcf" d="M 543.5,205.5 C 540.23,211.248 535.23,214.415 528.5,215C 524.779,218.941 521.946,223.441 520,228.5C 519.779,235.37 519.279,242.203 518.5,249C 518.512,283.199 518.512,317.366 518.5,351.5C 520.833,350.833 523.167,350.167 525.5,349.5C 522.734,354.045 519.734,358.378 516.5,362.5C 516.5,317.833 516.5,273.167 516.5,228.5C 522.134,216.865 531.134,209.199 543.5,205.5 Z"/></g>
<g><path style="opacity:1" fill="#bab9c5" d="M 590.5,249.5 C 589.92,251.749 588.587,253.415 586.5,254.5C 587.08,252.251 588.413,250.585 590.5,249.5 Z"/></g>
<g><path style="opacity:1" fill="#5a768b" d="M 534.5,235.5 C 534.5,264.833 534.5,294.167 534.5,323.5C 534.187,327.042 534.521,330.375 535.5,333.5C 535.167,334.5 534.5,335.167 533.5,335.5C 533.168,301.996 533.502,268.662 534.5,235.5 Z"/></g>
<g><path style="opacity:1" fill="#3289c4" d="M 714.5,265.5 C 710.499,261.814 707.166,257.48 704.5,252.5C 701.731,256.381 698.731,260.048 695.5,263.5C 697.177,260.299 698.677,256.965 700,253.5C 702.667,248.167 705.333,248.167 708,253.5C 709.923,257.682 712.089,261.682 714.5,265.5 Z"/></g>
<g><path style="opacity:1" fill="#279eed" d="M 714.5,265.5 C 715.794,266.29 716.961,267.29 718,268.5C 724.354,279.892 731.188,290.892 738.5,301.5C 739.655,305.144 741.322,308.477 743.5,311.5C 743.5,313.5 743.5,315.5 743.5,317.5C 747.272,318.274 749.272,320.607 749.5,324.5C 752.388,324.22 753.888,325.553 754,328.5C 754.671,329.252 755.504,329.586 756.5,329.5C 756.337,331.857 756.503,334.19 757,336.5C 758.011,337.337 759.178,337.67 760.5,337.5C 761.544,345.557 761.544,353.891 760.5,362.5C 758.062,364.535 755.395,366.201 752.5,367.5C 751.452,370.835 749.118,372.335 745.5,372C 743.937,372.759 742.937,373.926 742.5,375.5C 741.205,376.488 739.872,377.488 738.5,378.5C 733.784,367.13 727.451,356.797 719.5,347.5C 719.005,345.518 718.505,343.518 718,341.5C 711.04,332.549 704.874,323.216 699.5,313.5C 698.662,313.158 698.328,312.492 698.5,311.5C 695.49,306.642 692.656,301.642 690,296.5C 689.329,295.748 688.496,295.414 687.5,295.5C 687.567,294.041 687.234,292.708 686.5,291.5C 686.567,289.599 686.233,287.766 685.5,286C 686.635,281.435 688.635,277.268 691.5,273.5C 693.933,272.977 695.933,271.81 697.5,270C 695.997,268.079 695.331,265.912 695.5,263.5C 698.731,260.048 701.731,256.381 704.5,252.5C 707.166,257.48 710.499,261.814 714.5,265.5 Z"/></g>
<g><path style="opacity:1" fill="#9e9ea0" d="M 681.5,263.5 C 681.573,265.027 680.906,266.027 679.5,266.5C 679.427,264.973 680.094,263.973 681.5,263.5 Z"/></g>
<g><path style="opacity:1" fill="#8e919a" d="M 623.5,265.5 C 622.66,267.853 621.326,269.853 619.5,271.5C 619.845,268.802 621.178,266.802 623.5,265.5 Z"/></g>
<g><path style="opacity:1" fill="#c7ced3" d="M 575.5,271.5 C 575.657,272.873 575.49,274.207 575,275.5C 572.908,277.475 571.075,279.475 569.5,281.5C 571.142,277.879 573.142,274.546 575.5,271.5 Z"/></g>
<g><path style="opacity:1" fill="#31394a" d="M 684.5,279.5 C 683.25,279.577 682.417,280.244 682,281.5C 680.482,281.943 679.315,281.276 678.5,279.5C 677.384,281.838 676.05,284.004 674.5,286C 675.167,286.333 675.833,286.667 676.5,287C 675.019,290.821 675.352,294.488 677.5,298C 675.423,298.192 673.423,298.692 671.5,299.5C 670.561,301.053 669.394,302.387 668,303.5C 666.946,302.518 666.446,301.351 666.5,300C 665.146,298.706 663.812,298.54 662.5,299.5C 660.323,303.822 657.989,307.988 655.5,312C 655.547,314.256 656.547,315.756 658.5,316.5C 657.911,318.398 657.744,320.398 658,322.5C 655.502,326.829 653.002,331.162 650.5,335.5C 649.817,335.863 649.15,336.196 648.5,336.5C 647.542,336.953 646.708,337.619 646,338.5C 645.667,338.167 645.333,337.833 645,337.5C 644.167,338.5 643.333,339.5 642.5,340.5C 640.829,338.49 640.162,336.157 640.5,333.5C 642.173,332.657 643.34,331.324 644,329.5C 644.333,329.833 644.667,330.167 645,330.5C 645.44,328.134 645.94,325.801 646.5,323.5C 651.736,313.362 657.236,303.362 663,293.5C 665.61,289.258 668.443,285.258 671.5,281.5C 673.245,279.967 674.245,277.967 674.5,275.5C 675.605,272.184 677.271,269.184 679.5,266.5C 680.906,266.027 681.573,265.027 681.5,263.5C 686.093,254.91 691.093,246.577 696.5,238.5C 697.404,237.791 697.737,236.791 697.5,235.5C 682.657,235.171 667.99,235.504 653.5,236.5C 650.985,241.543 647.985,246.21 644.5,250.5C 643.591,247.418 643.257,244.085 643.5,240.5C 644.098,239.205 644.598,237.872 645,236.5C 646.53,235.364 647.863,234.364 649,233.5C 649.667,234.167 650.333,234.833 651,235.5C 654.264,231.672 658.431,230.505 663.5,232C 660.833,232.333 658.167,232.667 655.5,233C 670.797,234.359 686.131,234.859 701.5,234.5C 702.576,238.81 702.576,243.143 701.5,247.5C 699.876,247.36 698.71,248.027 698,249.5C 696.796,248.529 696.296,247.529 696.5,246.5C 695.522,246.977 694.689,247.643 694,248.5C 693.64,250.608 692.973,252.608 692,254.5C 689.873,255.397 689.373,256.731 690.5,258.5C 691.609,257.41 692.609,257.41 693.5,258.5C 691.74,260.554 689.907,262.554 688,264.5C 689.012,267.341 687.845,268.674 684.5,268.5C 683.913,272.071 683.913,275.737 684.5,279.5 Z"/></g>
<g><path style="opacity:1" fill="#8b8e96" d="M 653.5,236.5 C 667.99,235.504 682.657,235.171 697.5,235.5C 697.737,236.791 697.404,237.791 696.5,238.5C 682.539,236.517 668.206,235.85 653.5,236.5 Z"/></g>
<g><path style="opacity:1" fill="#bfc5cb" d="M 630.5,275.5 C 629.974,279.914 627.974,283.247 624.5,285.5C 626,281.827 628,278.494 630.5,275.5 Z"/></g>
<g><path style="opacity:1" fill="#37526b" d="M 761.5,231.5 C 762.222,231.918 762.722,232.584 763,233.5C 763.5,268.498 763.667,303.498 763.5,338.5C 761.018,337.337 759.684,335.337 759.5,332.5C 761.47,298.988 762.137,265.321 761.5,231.5 Z"/></g>
<g><path style="opacity:1" fill="#70737d" d="M 674.5,275.5 C 674.245,277.967 673.245,279.967 671.5,281.5C 671.025,278.687 672.025,276.687 674.5,275.5 Z"/></g>
<g><path style="opacity:1" fill="#2d93d3" d="M 695.5,263.5 C 695.331,265.912 695.997,268.079 697.5,270C 695.933,271.81 693.933,272.977 691.5,273.5C 688.635,277.268 686.635,281.435 685.5,286C 686.233,287.766 686.567,289.599 686.5,291.5C 684.407,290.062 683.073,288.062 682.5,285.5C 683.651,283.675 684.318,281.675 684.5,279.5C 688.56,274.44 692.227,269.106 695.5,263.5 Z"/></g>
<g><path style="opacity:1" fill="#4f575f" d="M 613.5,281.5 C 613.523,286.132 611.523,289.466 607.5,291.5C 609,287.827 611,284.494 613.5,281.5 Z"/></g>
<g><path style="opacity:1" fill="#2c374c" d="M 684.5,279.5 C 684.318,281.675 683.651,283.675 682.5,285.5C 683.073,288.062 684.407,290.062 686.5,291.5C 687.234,292.708 687.567,294.041 687.5,295.5C 687.382,300.597 689.382,304.597 693.5,307.5C 694.429,308.689 694.762,310.022 694.5,311.5C 695.833,311.5 697.167,311.5 698.5,311.5C 698.328,312.492 698.662,313.158 699.5,313.5C 698.701,316.43 698.368,319.43 698.5,322.5C 699.93,322.421 701.264,322.754 702.5,323.5C 703.65,325.763 704.65,328.096 705.5,330.5C 708.517,333.184 711.183,336.184 713.5,339.5C 715.083,341.99 716.083,344.657 716.5,347.5C 717.5,347.5 718.5,347.5 719.5,347.5C 727.451,356.797 733.784,367.13 738.5,378.5C 734.941,380.447 731.275,382.113 727.5,383.5C 727.509,381.692 727.009,380.025 726,378.5C 720.45,371.759 715.616,364.426 711.5,356.5C 710.017,351.773 708.35,347.107 706.5,342.5C 705.675,341.614 704.675,341.281 703.5,341.5C 703.182,336.159 700.515,332.825 695.5,331.5C 692.908,325.976 689.575,320.976 685.5,316.5C 683.034,310.038 679.367,304.372 674.5,299.5C 671.512,304.159 668.512,308.825 665.5,313.5C 662.909,314.99 660.576,315.99 658.5,316.5C 656.547,315.756 655.547,314.256 655.5,312C 657.989,307.988 660.323,303.822 662.5,299.5C 663.812,298.54 665.146,298.706 666.5,300C 666.446,301.351 666.946,302.518 668,303.5C 669.394,302.387 670.561,301.053 671.5,299.5C 673.423,298.692 675.423,298.192 677.5,298C 675.352,294.488 675.019,290.821 676.5,287C 675.833,286.667 675.167,286.333 674.5,286C 676.05,284.004 677.384,281.838 678.5,279.5C 679.315,281.276 680.482,281.943 682,281.5C 682.417,280.244 683.25,279.577 684.5,279.5 Z"/></g>
<g><path style="opacity:1" fill="#575960" d="M 607.5,291.5 C 606.255,294.009 605.255,296.675 604.5,299.5C 602.511,302.457 600.178,305.124 597.5,307.5C 598.473,303.45 600.64,300.117 604,297.5C 604.006,294.736 605.172,292.736 607.5,291.5 Z"/></g>
<g><path style="opacity:1" fill="#b5b9c4" d="M 556.5,301.5 C 556.155,304.198 554.822,306.198 552.5,307.5C 553.34,305.147 554.674,303.147 556.5,301.5 Z"/></g>
<g><path style="opacity:1" fill="#2b466c" d="M 738.5,301.5 C 739.75,301.577 740.583,302.244 741,303.5C 741.414,303.043 741.914,302.709 742.5,302.5C 744.873,305.018 745.873,308.018 745.5,311.5C 744.833,311.5 744.167,311.5 743.5,311.5C 741.322,308.477 739.655,305.144 738.5,301.5 Z"/></g>
<g><path style="opacity:1" fill="#1f4368" d="M 687.5,295.5 C 688.496,295.414 689.329,295.748 690,296.5C 692.656,301.642 695.49,306.642 698.5,311.5C 697.167,311.5 695.833,311.5 694.5,311.5C 694.762,310.022 694.429,308.689 693.5,307.5C 689.382,304.597 687.382,300.597 687.5,295.5 Z"/></g>
<g><path style="opacity:1" fill="#3590c9" d="M 743.5,311.5 C 744.167,311.5 744.833,311.5 745.5,311.5C 748.668,317.843 752.335,323.843 756.5,329.5C 755.504,329.586 754.671,329.252 754,328.5C 753.888,325.553 752.388,324.22 749.5,324.5C 749.272,320.607 747.272,318.274 743.5,317.5C 743.5,315.5 743.5,313.5 743.5,311.5 Z"/></g>
<g><path style="opacity:1" fill="#8d8d97" d="M 593.5,313.5 C 593.573,315.027 592.906,316.027 591.5,316.5C 591.427,314.973 592.094,313.973 593.5,313.5 Z"/></g>
<g><path style="opacity:1" fill="#299eec" d="M 685.5,316.5 C 685.433,318.401 685.767,320.234 686.5,322C 686.012,323.584 685.012,324.751 683.5,325.5C 685.707,326.635 688.04,327.301 690.5,327.5C 690.284,329.681 691.117,331.347 693,332.5C 693.333,332.167 693.667,331.833 694,331.5C 695.459,335.8 696.793,340.133 698,344.5C 698.72,342.944 699.887,341.944 701.5,341.5C 705.081,346.328 708.415,351.328 711.5,356.5C 715.616,364.426 720.45,371.759 726,378.5C 727.009,380.025 727.509,381.692 727.5,383.5C 727.586,384.496 727.252,385.329 726.5,386C 722.611,386.944 718.944,388.444 715.5,390.5C 708.446,395.884 701.113,400.884 693.5,405.5C 692.041,405.567 690.708,405.234 689.5,404.5C 684.776,398.403 680.776,391.736 677.5,384.5C 674.781,382.693 672.781,380.36 671.5,377.5C 666.534,367.572 661.034,357.905 655,348.5C 653.483,346.76 651.983,345.094 650.5,343.5C 650.343,342.127 650.51,340.793 651,339.5C 655.587,330.655 660.421,321.988 665.5,313.5C 668.512,308.825 671.512,304.159 674.5,299.5C 679.367,304.372 683.034,310.038 685.5,316.5 Z"/></g>
<g><path style="opacity:1" fill="#babcc4" d="M 608.5,311.5 C 607.346,314.479 606.18,317.479 605,320.5C 604.241,322.063 603.074,323.063 601.5,323.5C 603.467,319.242 605.8,315.242 608.5,311.5 Z"/></g>
<g><path style="opacity:1" fill="#254064" d="M 699.5,313.5 C 704.874,323.216 711.04,332.549 718,341.5C 718.505,343.518 719.005,345.518 719.5,347.5C 718.5,347.5 717.5,347.5 716.5,347.5C 716.083,344.657 715.083,341.99 713.5,339.5C 711.183,336.184 708.517,333.184 705.5,330.5C 704.65,328.096 703.65,325.763 702.5,323.5C 701.264,322.754 699.93,322.421 698.5,322.5C 698.368,319.43 698.701,316.43 699.5,313.5 Z"/></g>
<g><path style="opacity:1" fill="#5e5f6d" d="M 646.5,323.5 C 645.94,325.801 645.44,328.134 645,330.5C 644.667,330.167 644.333,329.833 644,329.5C 643.34,331.324 642.173,332.657 640.5,333.5C 641.579,329.575 643.579,326.242 646.5,323.5 Z"/></g>
<g><path style="opacity:1" fill="#b6bbc0" d="M 596.5,331.5 C 596.408,333.848 595.408,335.514 593.5,336.5C 593.75,334.326 594.75,332.659 596.5,331.5 Z"/></g>
<g><path style="opacity:1" fill="#293e5e" d="M 695.5,331.5 C 700.515,332.825 703.182,336.159 703.5,341.5C 704.675,341.281 705.675,341.614 706.5,342.5C 708.35,347.107 710.017,351.773 711.5,356.5C 708.415,351.328 705.081,346.328 701.5,341.5C 699.511,338.194 697.511,334.861 695.5,331.5 Z"/></g>
<g><path style="opacity:1" fill="#274565" d="M 665.5,313.5 C 660.421,321.988 655.587,330.655 651,339.5C 650.51,340.793 650.343,342.127 650.5,343.5C 648.656,341.721 647.99,339.388 648.5,336.5C 649.15,336.196 649.817,335.863 650.5,335.5C 653.002,331.162 655.502,326.829 658,322.5C 657.744,320.398 657.911,318.398 658.5,316.5C 660.576,315.99 662.909,314.99 665.5,313.5 Z"/></g>
<g><path style="opacity:1" fill="#676974" d="M 580.5,334.5 C 580.408,336.848 579.408,338.514 577.5,339.5C 577.75,337.326 578.75,335.659 580.5,334.5 Z"/></g>
<g><path style="opacity:1" fill="#2e96d6" d="M 685.5,316.5 C 689.575,320.976 692.908,325.976 695.5,331.5C 697.511,334.861 699.511,338.194 701.5,341.5C 699.887,341.944 698.72,342.944 698,344.5C 696.793,340.133 695.459,335.8 694,331.5C 693.667,331.833 693.333,332.167 693,332.5C 691.117,331.347 690.284,329.681 690.5,327.5C 688.04,327.301 685.707,326.635 683.5,325.5C 685.012,324.751 686.012,323.584 686.5,322C 685.767,320.234 685.433,318.401 685.5,316.5 Z"/></g>
<g><path style="opacity:1" fill="#2e374c" d="M 640.5,333.5 C 640.162,336.157 640.829,338.49 642.5,340.5C 643.333,339.5 644.167,338.5 645,337.5C 645.333,337.833 645.667,338.167 646,338.5C 646.708,337.619 647.542,336.953 648.5,336.5C 647.99,339.388 648.656,341.721 650.5,343.5C 650.778,348.11 652.778,351.777 656.5,354.5C 651.181,356.155 651.181,357.821 656.5,359.5C 657.086,359.291 657.586,358.957 658,358.5C 658.494,360.134 658.66,361.801 658.5,363.5C 659.978,363.238 661.311,363.571 662.5,364.5C 665.197,368.218 667.53,372.218 669.5,376.5C 669.957,377.298 670.624,377.631 671.5,377.5C 672.781,380.36 674.781,382.693 677.5,384.5C 680.776,391.736 684.776,398.403 689.5,404.5C 689.586,405.496 689.252,406.329 688.5,407C 676.004,413.747 663.671,420.747 651.5,428C 648.833,428.667 646.167,428.667 643.5,428C 638.955,425.234 634.622,422.234 630.5,419C 624.086,416.959 618.419,413.626 613.5,409C 610.19,407.373 606.856,405.707 603.5,404C 601.963,402.89 601.297,401.39 601.5,399.5C 603.371,399.141 604.871,398.141 606,396.5C 606.974,398.878 607.641,398.544 608,395.5C 608.333,395.833 608.667,396.167 609,396.5C 609.7,393.169 610.867,390.169 612.5,387.5C 615.205,387.38 615.872,388.38 614.5,390.5C 615.325,391.386 616.325,391.719 617.5,391.5C 617.678,388.121 617.678,384.955 617.5,382C 618.988,380.283 620.821,379.116 623,378.5C 625.823,374.534 625.99,370.367 623.5,366C 624.148,364.56 624.481,363.06 624.5,361.5C 626.451,361.773 627.951,361.107 629,359.5C 629.333,360.167 629.667,360.833 630,361.5C 630.333,359.833 630.667,358.167 631,356.5C 631.667,357.833 632.333,357.833 633,356.5C 632.947,353.344 634.114,350.844 636.5,349C 635.747,347.513 634.914,347.346 634,348.5C 633.517,347.552 633.351,346.552 633.5,345.5C 635.332,341.164 637.665,337.164 640.5,333.5 Z"/></g>
<g><path style="opacity:1" fill="#6b6d7a" d="M 577.5,339.5 C 576.702,341.966 575.369,343.966 573.5,345.5C 573.845,342.802 575.178,340.802 577.5,339.5 Z"/></g>
<g><path style="opacity:1" fill="#6a717e" d="M 573.5,345.5 C 573.245,347.967 572.245,349.967 570.5,351.5C 570.025,348.687 571.025,346.687 573.5,345.5 Z"/></g>
<g><path style="opacity:1" fill="#419cd8" d="M 756.5,329.5 C 757.728,330.306 758.728,331.306 759.5,332.5C 759.684,335.337 761.018,337.337 763.5,338.5C 763.666,346.507 763.5,354.507 763,362.5C 757.041,368.307 750.208,372.641 742.5,375.5C 742.937,373.926 743.937,372.759 745.5,372C 749.118,372.335 751.452,370.835 752.5,367.5C 755.395,366.201 758.062,364.535 760.5,362.5C 761.544,353.891 761.544,345.557 760.5,337.5C 759.178,337.67 758.011,337.337 757,336.5C 756.503,334.19 756.337,331.857 756.5,329.5 Z"/></g>
<g><path style="opacity:1" fill="#33394b" d="M 627.5,259.5 C 627.5,261.5 627.5,263.5 627.5,265.5C 629.584,264.752 631.584,264.752 633.5,265.5C 634.204,262.795 635.871,261.129 638.5,260.5C 636.09,265.654 633.423,270.654 630.5,275.5C 628,278.494 626,281.827 624.5,285.5C 618.668,293.824 613.335,302.491 608.5,311.5C 605.8,315.242 603.467,319.242 601.5,323.5C 599.336,325.822 597.669,328.489 596.5,331.5C 594.75,332.659 593.75,334.326 593.5,336.5C 586.11,347.9 579.11,359.566 572.5,371.5C 570.05,373.629 568.383,376.296 567.5,379.5C 566.599,380.29 565.932,381.29 565.5,382.5C 563.801,384.566 562.468,386.9 561.5,389.5C 560.024,392.583 558.357,395.583 556.5,398.5C 552.431,395.469 548.098,392.802 543.5,390.5C 546.167,388.827 548.167,386.493 549.5,383.5C 551.262,382.738 552.262,381.404 552.5,379.5C 554.458,375.308 556.791,371.308 559.5,367.5C 560.906,367.027 561.573,366.027 561.5,364.5C 563.962,359.749 566.962,355.416 570.5,351.5C 572.245,349.967 573.245,347.967 573.5,345.5C 575.369,343.966 576.702,341.966 577.5,339.5C 579.408,338.514 580.408,336.848 580.5,334.5C 583.381,327.967 587.047,321.967 591.5,316.5C 592.906,316.027 593.573,315.027 593.5,313.5C 593.845,310.802 595.178,308.802 597.5,307.5C 600.178,305.124 602.511,302.457 604.5,299.5C 605.255,296.675 606.255,294.009 607.5,291.5C 611.523,289.466 613.523,286.132 613.5,281.5C 615.137,277.882 617.137,274.549 619.5,271.5C 621.326,269.853 622.66,267.853 623.5,265.5C 624.34,263.147 625.674,261.147 627.5,259.5 Z"/></g>
<g><path style="opacity:1" fill="#224368" d="M 650.5,343.5 C 651.983,345.094 653.483,346.76 655,348.5C 661.034,357.905 666.534,367.572 671.5,377.5C 670.624,377.631 669.957,377.298 669.5,376.5C 667.53,372.218 665.197,368.218 662.5,364.5C 661.311,363.571 659.978,363.238 658.5,363.5C 658.66,361.801 658.494,360.134 658,358.5C 657.586,358.957 657.086,359.291 656.5,359.5C 651.181,357.821 651.181,356.155 656.5,354.5C 652.778,351.777 650.778,348.11 650.5,343.5 Z"/></g>
<g><path style="opacity:1" fill="#a2a6b1" d="M 561.5,364.5 C 561.573,366.027 560.906,367.027 559.5,367.5C 559.427,365.973 560.094,364.973 561.5,364.5 Z"/></g>
<g><path style="opacity:1" fill="#373c4c" d="M 633.5,345.5 C 633.351,346.552 633.517,347.552 634,348.5C 634.914,347.346 635.747,347.513 636.5,349C 634.114,350.844 632.947,353.344 633,356.5C 632.333,357.833 631.667,357.833 631,356.5C 630.667,358.167 630.333,359.833 630,361.5C 629.667,360.833 629.333,360.167 629,359.5C 627.951,361.107 626.451,361.773 624.5,361.5C 624.481,363.06 624.148,364.56 623.5,366C 625.99,370.367 625.823,374.534 623,378.5C 620.821,379.116 618.988,380.283 617.5,382C 617.678,384.955 617.678,388.121 617.5,391.5C 616.325,391.719 615.325,391.386 614.5,390.5C 615.872,388.38 615.205,387.38 612.5,387.5C 610.867,390.169 609.7,393.169 609,396.5C 608.667,396.167 608.333,395.833 608,395.5C 607.641,398.544 606.974,398.878 606,396.5C 604.871,398.141 603.371,399.141 601.5,399.5C 602.738,396.262 604.404,393.262 606.5,390.5C 607.906,390.027 608.573,389.027 608.5,387.5C 616.333,373.162 624.666,359.162 633.5,345.5 Z"/></g>
<g><path style="opacity:1" fill="#9d9d9d" d="M 519.5,376.5 C 521.404,376.738 522.738,377.738 523.5,379.5C 521.596,379.262 520.262,378.262 519.5,376.5 Z"/></g>
<g><path style="opacity:1" fill="#121821" d="M 779.5,369.5 C 779.11,372.839 778.61,376.173 778,379.5C 773.623,381.679 769.123,383.346 764.5,384.5C 767.681,382.408 770.681,380.075 773.5,377.5C 775.885,375.116 777.885,372.45 779.5,369.5 Z"/></g>
<g><path style="opacity:1" fill="#c1c5ce" d="M 572.5,371.5 C 572.318,375.216 570.652,377.883 567.5,379.5C 568.383,376.296 570.05,373.629 572.5,371.5 Z"/></g>
<g><path style="opacity:1" fill="#9095a3" d="M 552.5,379.5 C 552.262,381.404 551.262,382.738 549.5,383.5C 549.738,381.596 550.738,380.262 552.5,379.5 Z"/></g>
<g><path style="opacity:1" fill="#b7b7b7" d="M 523.5,379.5 C 525.199,379.34 526.866,379.506 528.5,380C 530.043,381.739 531.71,383.239 533.5,384.5C 529.691,383.668 526.357,382.001 523.5,379.5 Z"/></g>
<g><path style="opacity:1" fill="#cccccc" d="M 533.5,384.5 C 535.5,384.5 537.5,384.5 539.5,384.5C 539.392,386.514 540.058,388.18 541.5,389.5C 538.489,388.331 535.822,386.664 533.5,384.5 Z"/></g>
<g><path style="opacity:1" fill="#b3b4c0" d="M 565.5,382.5 C 565.275,385.546 563.942,387.879 561.5,389.5C 562.468,386.9 563.801,384.566 565.5,382.5 Z"/></g>
<g><path style="opacity:1" fill="#9295a0" d="M 608.5,387.5 C 608.573,389.027 607.906,390.027 606.5,390.5C 606.427,388.973 607.094,387.973 608.5,387.5 Z"/></g>
<g><path style="opacity:1" fill="#808080" d="M 560.5,400.5 C 562.027,400.427 563.027,401.094 563.5,402.5C 561.973,402.573 560.973,401.906 560.5,400.5 Z"/></g>
<g><path style="opacity:1" fill="#929292" d="M 571.5,406.5 C 573.404,406.738 574.738,407.738 575.5,409.5C 573.596,409.262 572.262,408.262 571.5,406.5 Z"/></g>
<g><path style="opacity:1" fill="#0f151c" d="M 721.5,409.5 C 719.752,412.22 718.086,414.886 716.5,417.5C 714.362,417.703 712.695,418.703 711.5,420.5C 707.581,418.579 704.747,419.579 703,423.5C 702.667,422.833 702.333,422.167 702,421.5C 701.329,422.252 700.496,422.586 699.5,422.5C 706.431,417.693 713.764,413.36 721.5,409.5 Z"/></g>
<g><path style="opacity:1" fill="#878989" d="M 581.5,412.5 C 583.027,412.427 584.027,413.094 584.5,414.5C 582.973,414.573 581.973,413.906 581.5,412.5 Z"/></g>
<g><path style="opacity:1" fill="#96bad6" d="M 601.5,399.5 C 601.297,401.39 601.963,402.89 603.5,404C 606.856,405.707 610.19,407.373 613.5,409C 618.419,413.626 624.086,416.959 630.5,419C 634.622,422.234 638.955,425.234 643.5,428C 646.167,428.667 648.833,428.667 651.5,428C 663.671,420.747 676.004,413.747 688.5,407C 689.252,406.329 689.586,405.496 689.5,404.5C 690.708,405.234 692.041,405.567 693.5,405.5C 693.534,408.224 694.201,410.224 695.5,411.5C 695.291,412.994 694.624,414.161 693.5,415C 696.918,417.063 698.252,416.23 697.5,412.5C 700.506,411.252 703.506,411.252 706.5,412.5C 712.203,409.658 718.203,407.325 724.5,405.5C 725.325,403.3 726.658,402.966 728.5,404.5C 726.343,406.412 724.009,408.079 721.5,409.5C 713.764,413.36 706.431,417.693 699.5,422.5C 695.345,423.742 691.678,425.742 688.5,428.5C 682.995,430.749 677.995,433.749 673.5,437.5C 667.456,440.577 661.456,443.577 655.5,446.5C 649.346,446.822 643.346,446.155 637.5,444.5C 637.167,444.5 636.833,444.5 636.5,444.5C 636.027,443.094 635.027,442.427 633.5,442.5C 625.005,438.087 616.672,433.42 608.5,428.5C 608.027,427.094 607.027,426.427 605.5,426.5C 598.329,422.749 591.329,418.749 584.5,414.5C 586.929,414.884 589.263,415.551 591.5,416.5C 591.755,413.984 592.589,411.65 594,409.5C 596.277,405.92 598.777,402.586 601.5,399.5 Z"/></g>
<g><path style="opacity:1" fill="#111824" d="M 699.5,422.5 C 699.649,423.552 699.483,424.552 699,425.5C 697,426.167 695.667,427.5 695,429.5C 692.959,428.577 690.792,428.244 688.5,428.5C 691.678,425.742 695.345,423.742 699.5,422.5 Z"/></g>
<g><path style="opacity:1" fill="#50636e" d="M 605.5,426.5 C 607.027,426.427 608.027,427.094 608.5,428.5C 606.973,428.573 605.973,427.906 605.5,426.5 Z"/></g>
<g><path style="opacity:1" fill="#1d2931" d="M 673.5,437.5 C 673.279,438.735 672.612,439.735 671.5,440.5C 667.965,440.969 664.965,442.469 662.5,445C 660.26,445.977 657.927,446.477 655.5,446.5C 661.456,443.577 667.456,440.577 673.5,437.5 Z"/></g>
<g><path style="opacity:1" fill="#475764" d="M 633.5,442.5 C 635.027,442.427 636.027,443.094 636.5,444.5C 634.973,444.573 633.973,443.906 633.5,442.5 Z"/></g>
<g><path style="opacity:1" fill="#536878" d="M 637.5,444.5 C 643.346,446.155 649.346,446.822 655.5,446.5C 651.019,447.648 646.352,447.815 641.5,447C 639.934,446.392 638.6,445.558 637.5,444.5 Z"/></g>
<g><path style="opacity:1" fill="#747474" d="M 629.5,497.5 C 635.825,496.834 642.325,496.5 649,496.5C 655.869,496.503 662.369,497.17 668.5,498.5C 655.579,497.52 642.579,497.186 629.5,497.5 Z"/></g>
<g><path style="opacity:1" fill="#eaeaea" d="M 511.5,517.5 C 510.5,517.5 509.5,517.5 508.5,517.5C 508.263,518.791 508.596,519.791 509.5,520.5C 510.803,522.142 512.136,523.809 513.5,525.5C 513.427,527.027 514.094,528.027 515.5,528.5C 513.052,529.473 510.385,529.806 507.5,529.5C 505.5,526.5 503.5,523.5 501.5,520.5C 499.257,519.188 496.59,518.522 493.5,518.5C 490.645,518.503 487.978,518.836 485.5,519.5C 484.521,522.625 484.187,525.958 484.5,529.5C 482.5,529.5 480.5,529.5 478.5,529.5C 477.506,519.013 477.172,508.346 477.5,497.5C 488.936,497.044 500.269,497.544 511.5,499C 514.028,501.573 515.028,504.739 514.5,508.5C 514.594,512.03 513.594,515.03 511.5,517.5 Z"/></g>
<g><path style="opacity:1" fill="#f2f2f2" d="M 568.5,497.5 C 571.857,497.216 574.191,498.549 575.5,501.5C 575.658,504.902 575.324,508.236 574.5,511.5C 576.404,516.269 576.904,521.269 576,526.5C 574.385,527.386 572.885,528.386 571.5,529.5C 560.833,529.5 550.167,529.5 539.5,529.5C 539.5,518.833 539.5,508.167 539.5,497.5C 549.167,497.5 558.833,497.5 568.5,497.5 Z"/></g>
<g><path style="opacity:1" fill="#e9e9e9" d="M 606.5,497.5 C 607.833,508.167 607.833,518.833 606.5,529.5C 604.5,529.5 602.5,529.5 600.5,529.5C 600.5,518.833 600.5,508.167 600.5,497.5C 602.5,497.5 604.5,497.5 606.5,497.5 Z"/></g>
<g><path style="opacity:1" fill="#f6f6f6" d="M 629.5,497.5 C 642.579,497.186 655.579,497.52 668.5,498.5C 668.784,500.415 668.451,502.081 667.5,503.5C 662.5,503.5 657.5,503.5 652.5,503.5C 651.507,511.984 651.174,520.651 651.5,529.5C 649.833,529.5 648.167,529.5 646.5,529.5C 646.826,520.983 646.493,512.65 645.5,504.5C 640.36,503.512 635.026,503.179 629.5,503.5C 629.5,501.5 629.5,499.5 629.5,497.5 Z"/></g>
<g><path style="opacity:1" fill="#e4e4e4" d="M 724.5,499.5 C 726.811,504.956 727.145,510.623 725.5,516.5C 724.185,517.476 722.852,518.476 721.5,519.5C 723.509,522.196 725.509,524.863 727.5,527.5C 725.721,529.344 723.388,530.01 720.5,529.5C 719.396,527.611 718.063,525.945 716.5,524.5C 716.267,522.938 715.6,521.605 714.5,520.5C 712.257,519.188 709.59,518.522 706.5,518.5C 703.645,518.503 700.978,518.836 698.5,519.5C 698.5,522.833 698.5,526.167 698.5,529.5C 695.998,530.779 693.498,530.779 691,529.5C 690.333,518.833 690.333,508.167 691,497.5C 700.756,496.349 710.589,496.182 720.5,497C 722.32,497.2 723.653,498.034 724.5,499.5 Z"/></g>
<g><path style="opacity:1" fill="#f7f7f7" d="M 757.5,497.5 C 757.334,505.507 757.5,513.507 758,521.5C 758.383,522.056 758.883,522.389 759.5,522.5C 766.42,523.628 773.42,523.795 780.5,523C 781.71,521.961 782.71,520.794 783.5,519.5C 784.491,512.687 784.825,505.687 784.5,498.5C 786.167,498.5 787.833,498.5 789.5,498.5C 789.5,506.5 789.5,514.5 789.5,522.5C 789.167,523.833 788.833,525.167 788.5,526.5C 786.453,528.075 784.119,529.075 781.5,529.5C 774.159,529.666 766.826,529.5 759.5,529C 757.372,528.345 755.372,527.511 753.5,526.5C 752.058,525.18 751.392,523.514 751.5,521.5C 751.5,513.5 751.5,505.5 751.5,497.5C 753.5,497.5 755.5,497.5 757.5,497.5 Z"/></g>
<g><path style="opacity:1" fill="#3e3e3e" d="M 790.5,497.5 C 791.657,505.99 791.824,514.657 791,523.5C 790.764,525.119 789.931,526.119 788.5,526.5C 788.833,525.167 789.167,523.833 789.5,522.5C 790.493,514.35 790.826,506.017 790.5,497.5 Z"/></g>
<g><path style="opacity:1" fill="#a5a5a5" d="M 757.5,497.5 C 755.5,497.5 753.5,497.5 751.5,497.5C 751.5,505.5 751.5,513.5 751.5,521.5C 750.507,513.35 750.174,505.017 750.5,496.5C 753.059,496.198 755.393,496.532 757.5,497.5 Z"/></g>
<g><path style="opacity:1" fill="#f2f2f2" d="M 827.5,498.5 C 827.427,500.027 828.094,501.027 829.5,501.5C 830.537,502.93 831.204,504.597 831.5,506.5C 831.889,510.847 833.556,514.514 836.5,517.5C 836.12,519.698 836.787,521.365 838.5,522.5C 839.167,523.833 839.833,523.833 840.5,522.5C 844.597,518.838 846.597,514.171 846.5,508.5C 848.834,506.824 849.834,504.491 849.5,501.5C 850.906,501.027 851.573,500.027 851.5,498.5C 855.5,497.167 859.5,497.167 863.5,498.5C 863.5,508.833 863.5,519.167 863.5,529.5C 861.5,529.5 859.5,529.5 857.5,529.5C 857.831,521.14 857.498,512.807 856.5,504.5C 855.893,504.624 855.56,504.957 855.5,505.5C 854.326,506.514 853.66,507.847 853.5,509.5C 853.5,510.167 853.5,510.833 853.5,511.5C 852.094,511.973 851.427,512.973 851.5,514.5C 850.069,515.78 849.402,517.447 849.5,519.5C 847.659,521.849 846.326,524.515 845.5,527.5C 842.495,529.299 839.162,529.966 835.5,529.5C 834.542,529.047 833.708,528.381 833,527.5C 830.769,521.374 828.269,515.374 825.5,509.5C 825.573,507.973 824.906,506.973 823.5,506.5C 823.5,506.167 823.5,505.833 823.5,505.5C 822.791,504.596 821.791,504.263 820.5,504.5C 820.5,512.833 820.5,521.167 820.5,529.5C 818.833,529.5 817.167,529.5 815.5,529.5C 815.5,519.167 815.5,508.833 815.5,498.5C 819.5,497.167 823.5,497.167 827.5,498.5 Z"/></g>
<g><path style="opacity:1" fill="#7c7c7c" d="M 851.5,498.5 C 851.573,500.027 850.906,501.027 849.5,501.5C 849.427,499.973 850.094,498.973 851.5,498.5 Z"/></g>
<g><path style="opacity:1" fill="#7e7e7e" d="M 827.5,498.5 C 828.906,498.973 829.573,499.973 829.5,501.5C 828.094,501.027 827.427,500.027 827.5,498.5 Z"/></g>
<g><path style="opacity:1" fill="#afafaf" d="M 428.5,498.5 C 428.408,500.848 427.408,502.514 425.5,503.5C 425.75,501.326 426.75,499.659 428.5,498.5 Z"/></g>
<g><path style="opacity:1" fill="#959595" d="M 606.5,497.5 C 604.5,497.5 602.5,497.5 600.5,497.5C 600.5,508.167 600.5,518.833 600.5,529.5C 602.5,529.5 604.5,529.5 606.5,529.5C 604.393,530.468 602.059,530.802 599.5,530.5C 599.5,519.167 599.5,507.833 599.5,496.5C 602.059,496.198 604.393,496.532 606.5,497.5 Z"/></g>
<g><path style="opacity:1" fill="#a2a2a2" d="M 863.5,498.5 C 864.494,508.987 864.828,519.654 864.5,530.5C 861.941,530.802 859.607,530.468 857.5,529.5C 859.5,529.5 861.5,529.5 863.5,529.5C 863.5,519.167 863.5,508.833 863.5,498.5 Z"/></g>
<g><path style="opacity:1" fill="#efefef" d="M 441.5,503.5 C 441.427,505.027 442.094,506.027 443.5,506.5C 444.814,509.128 446.147,511.795 447.5,514.5C 447.427,516.027 448.094,517.027 449.5,517.5C 450.674,518.514 451.34,519.847 451.5,521.5C 451.427,523.027 452.094,524.027 453.5,524.5C 454.338,524.842 454.672,525.508 454.5,526.5C 454.5,527.5 454.5,528.5 454.5,529.5C 452.167,529.5 449.833,529.5 447.5,529.5C 446.833,527.833 446.167,526.167 445.5,524.5C 445.611,523.883 445.944,523.383 446.5,523C 438.323,522.177 430.323,522.344 422.5,523.5C 421.471,525.517 420.471,527.517 419.5,529.5C 416.612,530.01 414.279,529.344 412.5,527.5C 412.992,525.181 413.992,523.181 415.5,521.5C 417.408,520.514 418.408,518.848 418.5,516.5C 418.975,514.216 419.975,512.216 421.5,510.5C 422.906,510.027 423.573,509.027 423.5,507.5C 423.5,507.167 423.5,506.833 423.5,506.5C 424.906,506.027 425.573,505.027 425.5,503.5C 427.408,502.514 428.408,500.848 428.5,498.5C 431.304,497.362 434.304,497.195 437.5,498C 439.819,499.147 441.152,500.981 441.5,503.5 Z"/></g>
<g><path style="opacity:1" fill="#c6c6c6" d="M 790.5,497.5 C 790.826,506.017 790.493,514.35 789.5,522.5C 789.5,514.5 789.5,506.5 789.5,498.5C 787.833,498.5 786.167,498.5 784.5,498.5C 784.825,505.687 784.491,512.687 783.5,519.5C 783.5,511.833 783.5,504.167 783.5,496.5C 786.059,496.198 788.393,496.532 790.5,497.5 Z"/></g>
<g><path style="opacity:1" fill="#adadad" d="M 815.5,498.5 C 815.5,508.833 815.5,519.167 815.5,529.5C 817.167,529.5 818.833,529.5 820.5,529.5C 820.5,521.167 820.5,512.833 820.5,504.5C 821.791,504.263 822.791,504.596 823.5,505.5C 821.533,513.097 820.866,521.097 821.5,529.5C 819.393,530.468 817.059,530.802 814.5,530.5C 814.172,519.654 814.506,508.987 815.5,498.5 Z"/></g>
<g><path style="opacity:1" fill="#141414" d="M 546.5,503.5 C 553.508,503.334 560.508,503.5 567.5,504C 568.056,504.383 568.389,504.883 568.5,505.5C 568.714,507.144 568.38,508.644 567.5,510C 560.508,510.5 553.508,510.666 546.5,510.5C 546.5,508.167 546.5,505.833 546.5,503.5 Z"/></g>
<g><path style="opacity:1" fill="#7d7d7d" d="M 575.5,501.5 C 576.638,504.304 576.805,507.304 576,510.5C 575.617,511.056 575.117,511.389 574.5,511.5C 575.324,508.236 575.658,504.902 575.5,501.5 Z"/></g>
<g><path style="opacity:1" fill="#121212" d="M 698.5,503.5 C 705.175,503.334 711.842,503.5 718.5,504C 721.167,507 721.167,510 718.5,513C 711.842,513.5 705.175,513.666 698.5,513.5C 698.5,510.167 698.5,506.833 698.5,503.5 Z"/></g>
<g><path style="opacity:1" fill="#ababab" d="M 724.5,499.5 C 725.458,499.953 726.292,500.619 727,501.5C 727.667,505.833 727.667,510.167 727,514.5C 726.722,515.416 726.222,516.082 725.5,516.5C 727.145,510.623 726.811,504.956 724.5,499.5 Z"/></g>
<g><path style="opacity:1" fill="#898989" d="M 849.5,501.5 C 849.834,504.491 848.834,506.824 846.5,508.5C 846.935,505.843 847.935,503.509 849.5,501.5 Z"/></g>
<g><path style="opacity:1" fill="#707070" d="M 425.5,503.5 C 425.573,505.027 424.906,506.027 423.5,506.5C 423.427,504.973 424.094,503.973 425.5,503.5 Z"/></g>
<g><path style="opacity:1" fill="#151515" d="M 440.5,515.5 C 436.285,517.436 431.619,518.103 426.5,517.5C 427.011,514.978 428.011,512.645 429.5,510.5C 430.906,510.027 431.573,509.027 431.5,507.5C 431.511,505.314 432.511,504.481 434.5,505C 436.891,508.283 438.891,511.783 440.5,515.5 Z"/></g>
<g><path style="opacity:1" fill="#818181" d="M 441.5,503.5 C 442.906,503.973 443.573,504.973 443.5,506.5C 442.094,506.027 441.427,505.027 441.5,503.5 Z"/></g>
<g><path style="opacity:1" fill="#121212" d="M 485.5,503.5 C 492.175,503.334 498.842,503.5 505.5,504C 508.167,507 508.167,510 505.5,513C 498.842,513.5 492.175,513.666 485.5,513.5C 485.5,510.167 485.5,506.833 485.5,503.5 Z"/></g>
<g><path style="opacity:1" fill="#5b5b5b" d="M 629.5,503.5 C 635.026,503.179 640.36,503.512 645.5,504.5C 645.5,512.833 645.5,521.167 645.5,529.5C 644.507,521.35 644.174,513.017 644.5,504.5C 639.305,504.821 634.305,504.487 629.5,503.5 Z"/></g>
<g><path style="opacity:1" fill="#818181" d="M 757.5,497.5 C 758.224,505.703 758.89,514.036 759.5,522.5C 758.883,522.389 758.383,522.056 758,521.5C 757.5,513.507 757.334,505.507 757.5,497.5 Z"/></g>
<g><path style="opacity:1" fill="#8a8a8a" d="M 823.5,506.5 C 824.906,506.973 825.573,507.973 825.5,509.5C 824.094,509.027 823.427,508.027 823.5,506.5 Z"/></g>
<g><path style="opacity:1" fill="#505050" d="M 855.5,505.5 C 855.843,507.483 855.176,508.817 853.5,509.5C 853.66,507.847 854.326,506.514 855.5,505.5 Z"/></g>
<g><path style="opacity:1" fill="#828282" d="M 423.5,507.5 C 423.573,509.027 422.906,510.027 421.5,510.5C 421.427,508.973 422.094,507.973 423.5,507.5 Z"/></g>
<g><path style="opacity:1" fill="#757575" d="M 431.5,507.5 C 431.573,509.027 430.906,510.027 429.5,510.5C 429.427,508.973 430.094,507.973 431.5,507.5 Z"/></g>
<g><path style="opacity:1" fill="#929292" d="M 831.5,506.5 C 833.565,509.925 835.231,513.592 836.5,517.5C 833.556,514.514 831.889,510.847 831.5,506.5 Z"/></g>
<g><path style="opacity:1" fill="#a6a6a6" d="M 546.5,503.5 C 546.5,505.833 546.5,508.167 546.5,510.5C 553.508,510.666 560.508,510.5 567.5,510C 568.38,508.644 568.714,507.144 568.5,505.5C 569.807,507.223 569.807,509.057 568.5,511C 560.841,511.5 553.174,511.666 545.5,511.5C 545.194,508.615 545.527,505.948 546.5,503.5 Z"/></g>
<g><path style="opacity:1" fill="#525252" d="M 652.5,503.5 C 657.5,503.5 662.5,503.5 667.5,503.5C 663.03,504.486 658.363,504.819 653.5,504.5C 653.826,513.017 653.493,521.35 652.5,529.5C 652.5,520.833 652.5,512.167 652.5,503.5 Z"/></g>
<g><path style="opacity:1" fill="#373737" d="M 823.5,505.5 C 823.5,505.833 823.5,506.167 823.5,506.5C 822.833,514.167 822.167,521.833 821.5,529.5C 820.866,521.097 821.533,513.097 823.5,505.5 Z"/></g>
<g><path style="opacity:1" fill="#5e5e5e" d="M 855.5,505.5 C 855.56,504.957 855.893,504.624 856.5,504.5C 857.498,512.807 857.831,521.14 857.5,529.5C 856.833,521.5 856.167,513.5 855.5,505.5 Z"/></g>
<g><path style="opacity:1" fill="#5c5c5c" d="M 853.5,511.5 C 853.573,513.027 852.906,514.027 851.5,514.5C 851.427,512.973 852.094,511.973 853.5,511.5 Z"/></g>
<g><path style="opacity:1" fill="#696969" d="M 567.5,516.5 C 560.5,516.5 553.5,516.5 546.5,516.5C 546.5,518.5 546.5,520.5 546.5,522.5C 553.833,522.5 561.167,522.5 568.5,522.5C 561.018,523.492 553.352,523.825 545.5,523.5C 545.5,520.833 545.5,518.167 545.5,515.5C 553.019,515.175 560.352,515.508 567.5,516.5 Z"/></g>
<g><path style="opacity:1" fill="#868686" d="M 447.5,514.5 C 448.906,514.973 449.573,515.973 449.5,517.5C 448.094,517.027 447.427,516.027 447.5,514.5 Z"/></g>
<g><path style="opacity:1" fill="#a4a4a4" d="M 846.5,508.5 C 846.597,514.171 844.597,518.838 840.5,522.5C 841.988,517.533 843.988,512.866 846.5,508.5 Z"/></g>
<g><path style="opacity:1" fill="#898989" d="M 440.5,515.5 C 441.404,516.209 441.737,517.209 441.5,518.5C 436.305,518.821 431.305,518.487 426.5,517.5C 431.619,518.103 436.285,517.436 440.5,515.5 Z"/></g>
<g><path style="opacity:1" fill="#070707" d="M 567.5,516.5 C 568.461,518.265 568.795,520.265 568.5,522.5C 561.167,522.5 553.833,522.5 546.5,522.5C 546.5,520.5 546.5,518.5 546.5,516.5C 553.5,516.5 560.5,516.5 567.5,516.5 Z"/></g>
<g><path style="opacity:1" fill="#535353" d="M 851.5,514.5 C 851.88,516.698 851.213,518.365 849.5,519.5C 849.402,517.447 850.069,515.78 851.5,514.5 Z"/></g>
<g><path style="opacity:1" fill="#c6c6c6" d="M 485.5,519.5 C 487.978,518.836 490.645,518.503 493.5,518.5C 496.59,518.522 499.257,519.188 501.5,520.5C 501.167,520.5 500.833,520.5 500.5,520.5C 495.695,519.513 490.695,519.179 485.5,519.5 Z"/></g>
<g><path style="opacity:1" fill="#c9c9c9" d="M 698.5,519.5 C 700.978,518.836 703.645,518.503 706.5,518.5C 709.59,518.522 712.257,519.188 714.5,520.5C 714.167,520.5 713.833,520.5 713.5,520.5C 708.695,519.513 703.695,519.179 698.5,519.5 Z"/></g>
<g><path style="opacity:1" fill="#747474" d="M 511.5,517.5 C 510.449,518.222 509.782,519.222 509.5,520.5C 508.596,519.791 508.263,518.791 508.5,517.5C 509.5,517.5 510.5,517.5 511.5,517.5 Z"/></g>
<g><path style="opacity:1" fill="#c2c2c2" d="M 652.5,503.5 C 652.5,512.167 652.5,520.833 652.5,529.5C 650.167,530.833 647.833,530.833 645.5,529.5C 645.5,521.167 645.5,512.833 645.5,504.5C 646.493,512.65 646.826,520.983 646.5,529.5C 648.167,529.5 649.833,529.5 651.5,529.5C 651.174,520.651 651.507,511.984 652.5,503.5 Z"/></g>
<g><path style="opacity:1" fill="#a1a1a1" d="M 418.5,516.5 C 418.408,518.848 417.408,520.514 415.5,521.5C 415.75,519.326 416.75,517.659 418.5,516.5 Z"/></g>
<g><path style="opacity:1" fill="#999999" d="M 836.5,517.5 C 837.537,518.93 838.204,520.597 838.5,522.5C 836.787,521.365 836.12,519.698 836.5,517.5 Z"/></g>
<g><path style="opacity:1" fill="#4d4d4d" d="M 713.5,520.5 C 713.833,520.5 714.167,520.5 714.5,520.5C 715.6,521.605 716.267,522.938 716.5,524.5C 714.738,523.738 713.738,522.404 713.5,520.5 Z"/></g>
<g><path style="opacity:1" fill="#afafaf" d="M 422.5,523.5 C 430.323,522.344 438.323,522.177 446.5,523C 445.944,523.383 445.611,523.883 445.5,524.5C 437.92,523.534 430.253,523.201 422.5,523.5 Z"/></g>
<g><path style="opacity:1" fill="#353535" d="M 698.5,519.5 C 703.695,519.179 708.695,519.513 713.5,520.5C 708.833,520.5 704.167,520.5 699.5,520.5C 699.81,523.713 699.477,526.713 698.5,529.5C 698.5,526.167 698.5,522.833 698.5,519.5 Z"/></g>
<g><path style="opacity:1" fill="#797979" d="M 451.5,521.5 C 452.906,521.973 453.573,522.973 453.5,524.5C 452.094,524.027 451.427,523.027 451.5,521.5 Z"/></g>
<g><path style="opacity:1" fill="#9f9f9f" d="M 485.5,519.5 C 485.5,522.833 485.5,526.167 485.5,529.5C 483.167,530.833 480.833,530.833 478.5,529.5C 480.5,529.5 482.5,529.5 484.5,529.5C 484.187,525.958 484.521,522.625 485.5,519.5 Z"/></g>
<g><path style="opacity:1" fill="#383838" d="M 485.5,519.5 C 490.695,519.179 495.695,519.513 500.5,520.5C 495.833,520.5 491.167,520.5 486.5,520.5C 486.81,523.713 486.477,526.713 485.5,529.5C 485.5,526.167 485.5,522.833 485.5,519.5 Z"/></g>
<g><path style="opacity:1" fill="#7e7e7e" d="M 513.5,525.5 C 514.906,525.973 515.573,526.973 515.5,528.5C 514.094,528.027 513.427,527.027 513.5,525.5 Z"/></g>
<g><path style="opacity:1" fill="#828282" d="M 412.5,527.5 C 414.279,529.344 416.612,530.01 419.5,529.5C 417.052,530.473 414.385,530.806 411.5,530.5C 411.263,529.209 411.596,528.209 412.5,527.5 Z"/></g>
<g><path style="opacity:1" fill="#858585" d="M 454.5,526.5 C 455.434,527.568 455.768,528.901 455.5,530.5C 452.615,530.806 449.948,530.473 447.5,529.5C 449.833,529.5 452.167,529.5 454.5,529.5C 454.5,528.5 454.5,527.5 454.5,526.5 Z"/></g>
<g><path style="opacity:1" fill="#7b7b7b" d="M 515.5,528.5 C 516.043,528.56 516.376,528.893 516.5,529.5C 513.355,530.803 510.355,530.803 507.5,529.5C 510.385,529.806 513.052,529.473 515.5,528.5 Z"/></g>
<g><path style="opacity:1" fill="#898989" d="M 568.5,497.5 C 558.833,497.5 549.167,497.5 539.5,497.5C 539.5,508.167 539.5,518.833 539.5,529.5C 550.167,529.5 560.833,529.5 571.5,529.5C 560.679,530.495 549.679,530.828 538.5,530.5C 538.5,519.167 538.5,507.833 538.5,496.5C 548.681,496.173 558.681,496.506 568.5,497.5 Z"/></g>
<g><path style="opacity:1" fill="#8c8c8c" d="M 727.5,527.5 C 728.404,528.209 728.737,529.209 728.5,530.5C 725.615,530.806 722.948,530.473 720.5,529.5C 723.388,530.01 725.721,529.344 727.5,527.5 Z"/></g>
<g><path style="opacity:1" fill="#858585" d="M 753.5,526.5 C 755.372,527.511 757.372,528.345 759.5,529C 766.826,529.5 774.159,529.666 781.5,529.5C 773.677,530.656 765.677,530.823 757.5,530C 755.676,529.34 754.343,528.173 753.5,526.5 Z"/></g>
<g><path style="opacity:1" fill="#525252" d="M 845.5,527.5 C 845.586,528.496 845.252,529.329 844.5,530C 841.304,530.805 838.304,530.638 835.5,529.5C 838.304,530.638 841.304,530.805 844.5,530C 845.252,529.329 845.586,528.496 845.5,527.5 Z"/></g>
</svg>
