<?xml version="1.0" encoding="UTF-8"?>
<!DOCTYPE svg PUBLIC "-//W3C//DTD SVG 1.1//EN" "http://www.w3.org/Graphics/SVG/1.1/DTD/svg11.dtd">
<svg xmlns="http://www.w3.org/2000/svg" version="1.1" viewBox="578 -125 45 875" style="shape-rendering:geometricPrecision; text-rendering:geometricPrecision; image-rendering:optimizeQuality; fill-rule:evenodd; clip-rule:evenodd" xmlns:xlink="http://www.w3.org/1999/xlink">
<g><path style="opacity:1" fill="#e84241" d="M -0.5,-0.5 C 399.5,-0.5 799.5,-0.5 1199.5,-0.5C 1199.5,209.5 1199.5,419.5 1199.5,629.5C 799.5,629.5 399.5,629.5 -0.5,629.5C -0.5,419.5 -0.5,209.5 -0.5,-0.5 Z"/></g>
<g><path style="opacity:1" fill="#e52b2a" d="M 682.5,233.5 C 681.833,233.5 681.167,233.5 680.5,233.5C 660.671,232.668 640.671,232.168 620.5,232C 640.833,231.333 661.167,231.333 681.5,232C 682.167,232.333 682.833,232.667 683.5,233C 683.272,233.399 682.938,233.565 682.5,233.5 Z"/></g>
<g><path style="opacity:1" fill="#fefdfd" d="M 515.5,233.5 C 532.17,233.333 548.837,233.5 565.5,234C 569.615,235.223 573.282,237.223 576.5,240C 594.631,269.757 612.131,299.924 629,330.5C 629.667,335.5 629.667,340.5 629,345.5C 621.768,359.734 614.101,373.734 606,387.5C 603.521,390.669 600.354,391.836 596.5,391C 593.96,388.795 591.793,386.295 590,383.5C 564.734,337.91 539.067,292.577 513,247.5C 510.421,242.077 511.255,237.41 515.5,233.5 Z"/></g>
<g><path style="opacity:1" fill="#fefdfd" d="M 680.5,233.5 C 681.167,233.5 681.833,233.5 682.5,233.5C 686.929,235.45 688.429,238.783 687,243.5C 677.734,261.088 668.068,278.422 658,295.5C 651.511,301.475 646.178,300.475 642,292.5C 633,276.5 624,260.5 615,244.5C 613.622,240.058 614.788,236.558 618.5,234C 639.164,233.5 659.831,233.333 680.5,233.5 Z"/></g>
<g><path style="opacity:1" fill="#fefdfd" d="M 466.5,238.5 C 470.426,238.047 473.592,239.38 476,242.5C 483.08,255.662 490.413,268.662 498,281.5C 500.366,289.437 499.7,297.104 496,304.5C 480.333,331.833 464.667,359.167 449,386.5C 444.849,391.317 439.682,394.483 433.5,396C 417.5,396.667 401.5,396.667 385.5,396C 379.868,392.045 379.035,387.211 383,381.5C 409.586,335.329 435.92,288.996 462,242.5C 463.397,240.93 464.897,239.596 466.5,238.5 Z"/></g>
<g><path style="opacity:1" fill="#fefdfd" d="M 726.5,238.5 C 730.95,238.142 734.45,239.808 737,243.5C 744.08,256.662 751.413,269.662 759,282.5C 760.054,289.698 759.388,296.698 757,303.5C 740.934,330.576 725.267,357.909 710,385.5C 705.861,391.152 700.361,394.652 693.5,396C 677.075,396.97 660.741,396.636 644.5,395C 640.74,390.435 640.573,385.601 644,380.5C 669.333,335.833 694.667,291.167 720,246.5C 721.946,243.58 724.113,240.913 726.5,238.5 Z"/></g>
<g><path style="opacity:1" fill="#fefdfc" d="M 516.5,330.5 C 519.187,330.336 521.854,330.503 524.5,331C 526.709,332.873 528.542,335.04 530,337.5C 539,353.5 548,369.5 557,385.5C 558.293,389.582 557.126,392.749 553.5,395C 531.897,396.633 510.231,396.967 488.5,396C 484.723,393.045 483.557,389.212 485,384.5C 494.929,366.094 505.429,348.094 516.5,330.5 Z"/></g>
<g><path style="opacity:1" fill="#fefcfc" d="M 778.5,329.5 C 781.862,329.07 784.695,330.07 787,332.5C 797,349.833 807,367.167 817,384.5C 818.569,389.625 817.069,393.459 812.5,396C 791.5,396.667 770.5,396.667 749.5,396C 744.391,392.634 743.224,388.134 746,382.5C 755.253,366.996 764.253,351.33 773,335.5C 775.04,333.63 776.873,331.63 778.5,329.5 Z"/></g>
</svg>
