<?xml version="1.0" encoding="UTF-8"?>
<!DOCTYPE svg PUBLIC "-//W3C//DTD SVG 1.1//EN" "http://www.w3.org/Graphics/SVG/1.1/DTD/svg11.dtd">
<svg xmlns="http://www.w3.org/2000/svg" version="1.1" viewBox="80 -38 105 263" style="shape-rendering:geometricPrecision; text-rendering:geometricPrecision; image-rendering:optimizeQuality; fill-rule:evenodd; clip-rule:evenodd" xmlns:xlink="http://www.w3.org/1999/xlink">
<g><path style="opacity:1" fill="#fe202d" d="M -0.5,-0.5 C 88.1667,-0.5 176.833,-0.5 265.5,-0.5C 265.5,20.5 265.5,41.5 265.5,62.5C 231.833,62.5 198.167,62.5 164.5,62.5C 166.09,54.7449 163.756,48.7449 157.5,44.5C 155.479,45.8545 153.812,47.5212 152.5,49.5C 149.925,48.2716 147.592,46.6049 145.5,44.5C 143.147,46.5227 140.814,48.5227 138.5,50.5C 136.854,48.1878 134.854,46.1878 132.5,44.5C 130.146,46.1878 128.146,48.1878 126.5,50.5C 124.186,48.5227 121.853,46.5227 119.5,44.5C 117.408,46.6049 115.075,48.2716 112.5,49.5C 111.188,47.5212 109.521,45.8545 107.5,44.5C 101.244,48.7449 98.9104,54.7449 100.5,62.5C 66.8333,62.5 33.1667,62.5 -0.5,62.5C -0.5,41.5 -0.5,20.5 -0.5,-0.5 Z"/></g>
<g><path style="opacity:1" fill="#8a5b84" d="M 138.5,50.5 C 138.5,54.5 138.5,58.5 138.5,62.5C 134.5,62.5 130.5,62.5 126.5,62.5C 126.5,58.5 126.5,54.5 126.5,50.5C 128.146,48.1878 130.146,46.1878 132.5,44.5C 134.854,46.1878 136.854,48.1878 138.5,50.5 Z"/></g>
<g><path style="opacity:1" fill="#8d5982" d="M 112.5,49.5 C 113.436,53.7352 113.769,58.0685 113.5,62.5C 111.5,62.5 109.5,62.5 107.5,62.5C 105.167,62.5 102.833,62.5 100.5,62.5C 98.9104,54.7449 101.244,48.7449 107.5,44.5C 109.521,45.8545 111.188,47.5212 112.5,49.5 Z"/></g>
<g><path style="opacity:1" fill="#8b1f5f" d="M 126.5,50.5 C 126.5,54.5 126.5,58.5 126.5,62.5C 122.167,62.5 117.833,62.5 113.5,62.5C 113.769,58.0685 113.436,53.7352 112.5,49.5C 115.075,48.2716 117.408,46.6049 119.5,44.5C 121.853,46.5227 124.186,48.5227 126.5,50.5 Z"/></g>
<g><path style="opacity:1" fill="#8b1f5f" d="M 152.5,49.5 C 151.564,53.7352 151.231,58.0685 151.5,62.5C 147.167,62.5 142.833,62.5 138.5,62.5C 138.5,58.5 138.5,54.5 138.5,50.5C 140.814,48.5227 143.147,46.5227 145.5,44.5C 147.592,46.6049 149.925,48.2716 152.5,49.5 Z"/></g>
<g><path style="opacity:1" fill="#8d5982" d="M 164.5,62.5 C 162.167,62.5 159.833,62.5 157.5,62.5C 155.5,62.5 153.5,62.5 151.5,62.5C 151.231,58.0685 151.564,53.7352 152.5,49.5C 153.812,47.5212 155.479,45.8545 157.5,44.5C 163.756,48.7449 166.09,54.7449 164.5,62.5 Z"/></g>
<g><path style="opacity:1" fill="#fefcfd" d="M -0.5,62.5 C 33.1667,62.5 66.8333,62.5 100.5,62.5C 102.833,62.5 105.167,62.5 107.5,62.5C 105.513,66.4734 103.513,70.4734 101.5,74.5C 105.445,75.4909 109.445,75.8242 113.5,75.5C 113.5,79.5 113.5,83.5 113.5,87.5C 113.5,87.8333 113.5,88.1667 113.5,88.5C 109.5,88.5 105.5,88.5 101.5,88.5C 100.515,92.6344 100.182,96.9677 100.5,101.5C 104.833,101.5 109.167,101.5 113.5,101.5C 113.5,105.5 113.5,109.5 113.5,113.5C 109.5,113.5 105.5,113.5 101.5,113.5C 100.515,117.634 100.182,121.968 100.5,126.5C 66.8333,126.5 33.1667,126.5 -0.5,126.5C -0.5,105.167 -0.5,83.8333 -0.5,62.5 Z"/></g>
<g><path style="opacity:1" fill="#fdf6f7" d="M 113.5,62.5 C 117.833,62.5 122.167,62.5 126.5,62.5C 126.5,66.8333 126.5,71.1667 126.5,75.5C 126.167,75.5 125.833,75.5 125.5,75.5C 121.5,75.5 117.5,75.5 113.5,75.5C 113.5,71.1667 113.5,66.8333 113.5,62.5 Z"/></g>
<g><path style="opacity:1" fill="#fdf6f7" d="M 138.5,62.5 C 142.833,62.5 147.167,62.5 151.5,62.5C 151.5,66.8333 151.5,71.1667 151.5,75.5C 147.5,75.5 143.5,75.5 139.5,75.5C 139.167,75.5 138.833,75.5 138.5,75.5C 138.5,71.1667 138.5,66.8333 138.5,62.5 Z"/></g>
<g><path style="opacity:1" fill="#fefcfd" d="M 157.5,62.5 C 159.833,62.5 162.167,62.5 164.5,62.5C 198.167,62.5 231.833,62.5 265.5,62.5C 265.5,83.8333 265.5,105.167 265.5,126.5C 231.833,126.5 198.167,126.5 164.5,126.5C 164.818,121.968 164.485,117.634 163.5,113.5C 159.5,113.5 155.5,113.5 151.5,113.5C 151.5,109.5 151.5,105.5 151.5,101.5C 155.833,101.5 160.167,101.5 164.5,101.5C 164.818,96.9677 164.485,92.6344 163.5,88.5C 159.5,88.5 155.5,88.5 151.5,88.5C 151.5,88.1667 151.5,87.8333 151.5,87.5C 151.5,83.5 151.5,79.5 151.5,75.5C 155.555,75.8242 159.555,75.4909 163.5,74.5C 161.487,70.4734 159.487,66.4734 157.5,62.5 Z"/></g>
<g><path style="opacity:1" fill="#fd1f2b" d="M 107.5,62.5 C 109.5,62.5 111.5,62.5 113.5,62.5C 113.5,66.8333 113.5,71.1667 113.5,75.5C 109.445,75.8242 105.445,75.4909 101.5,74.5C 103.513,70.4734 105.513,66.4734 107.5,62.5 Z"/></g>
<g><path style="opacity:1" fill="#fd1e2b" d="M 126.5,62.5 C 130.5,62.5 134.5,62.5 138.5,62.5C 138.5,66.8333 138.5,71.1667 138.5,75.5C 134.5,75.5 130.5,75.5 126.5,75.5C 126.5,71.1667 126.5,66.8333 126.5,62.5 Z"/></g>
<g><path style="opacity:1" fill="#fd1e2a" d="M 151.5,62.5 C 153.5,62.5 155.5,62.5 157.5,62.5C 159.487,66.4734 161.487,70.4734 163.5,74.5C 159.555,75.4909 155.555,75.8242 151.5,75.5C 151.5,71.1667 151.5,66.8333 151.5,62.5 Z"/></g>
<g><path style="opacity:1" fill="#fffbfb" d="M 126.5,75.5 C 130.5,75.5 134.5,75.5 138.5,75.5C 138.5,79.8333 138.5,84.1667 138.5,88.5C 134.5,88.5 130.5,88.5 126.5,88.5C 126.5,84.1667 126.5,79.8333 126.5,75.5 Z"/></g>
<g><path style="opacity:1" fill="#fe1a26" d="M 113.5,75.5 C 117.5,75.5 121.5,75.5 125.5,75.5C 125.5,79.5 125.5,83.5 125.5,87.5C 121.5,87.5 117.5,87.5 113.5,87.5C 113.5,83.5 113.5,79.5 113.5,75.5 Z"/></g>
<g><path style="opacity:1" fill="#fe1a26" d="M 139.5,75.5 C 143.5,75.5 147.5,75.5 151.5,75.5C 151.5,79.5 151.5,83.5 151.5,87.5C 147.5,87.5 143.5,87.5 139.5,87.5C 139.5,83.5 139.5,79.5 139.5,75.5 Z"/></g>
<g><path style="opacity:1" fill="#fe787c" d="M 125.5,75.5 C 125.833,75.5 126.167,75.5 126.5,75.5C 126.5,79.8333 126.5,84.1667 126.5,88.5C 122.167,88.5 117.833,88.5 113.5,88.5C 113.5,88.1667 113.5,87.8333 113.5,87.5C 117.5,87.5 121.5,87.5 125.5,87.5C 125.5,83.5 125.5,79.5 125.5,75.5 Z"/></g>
<g><path style="opacity:1" fill="#fe787c" d="M 138.5,75.5 C 138.833,75.5 139.167,75.5 139.5,75.5C 139.5,79.5 139.5,83.5 139.5,87.5C 143.5,87.5 147.5,87.5 151.5,87.5C 151.5,87.8333 151.5,88.1667 151.5,88.5C 147.167,88.5 142.833,88.5 138.5,88.5C 138.5,84.1667 138.5,79.8333 138.5,75.5 Z"/></g>
<g><path style="opacity:1" fill="#fffbfb" d="M 113.5,88.5 C 117.833,88.5 122.167,88.5 126.5,88.5C 126.5,92.5 126.5,96.5 126.5,100.5C 122.167,100.5 117.833,100.5 113.5,100.5C 113.5,96.5 113.5,92.5 113.5,88.5 Z"/></g>
<g><path style="opacity:1" fill="#fffbfb" d="M 138.5,88.5 C 142.833,88.5 147.167,88.5 151.5,88.5C 151.5,92.5 151.5,96.5 151.5,100.5C 147.167,100.5 142.833,100.5 138.5,100.5C 138.5,96.5 138.5,92.5 138.5,88.5 Z"/></g>
<g><path style="opacity:1" fill="#fe131e" d="M 101.5,88.5 C 105.5,88.5 109.5,88.5 113.5,88.5C 113.5,92.5 113.5,96.5 113.5,100.5C 109.5,100.5 105.5,100.5 101.5,100.5C 101.5,96.5 101.5,92.5 101.5,88.5 Z"/></g>
<g><path style="opacity:1" fill="#fe131e" d="M 126.5,88.5 C 130.5,88.5 134.5,88.5 138.5,88.5C 138.5,92.5 138.5,96.5 138.5,100.5C 134.5,100.5 130.5,100.5 126.5,100.5C 126.5,96.5 126.5,92.5 126.5,88.5 Z"/></g>
<g><path style="opacity:1" fill="#fe131e" d="M 151.5,88.5 C 155.5,88.5 159.5,88.5 163.5,88.5C 163.5,92.5 163.5,96.5 163.5,100.5C 159.5,100.5 155.5,100.5 151.5,100.5C 151.5,96.5 151.5,92.5 151.5,88.5 Z"/></g>
<g><path style="opacity:1" fill="#f88c92" d="M 101.5,88.5 C 101.5,92.5 101.5,96.5 101.5,100.5C 105.5,100.5 109.5,100.5 113.5,100.5C 117.833,100.5 122.167,100.5 126.5,100.5C 126.5,104.833 126.5,109.167 126.5,113.5C 126.5,117.5 126.5,121.5 126.5,125.5C 126.5,125.833 126.5,126.167 126.5,126.5C 126.817,130.702 126.483,134.702 125.5,138.5C 125.5,134.5 125.5,130.5 125.5,126.5C 121.5,126.5 117.5,126.5 113.5,126.5C 113.5,126.167 113.5,125.833 113.5,125.5C 117.5,125.5 121.5,125.5 125.5,125.5C 125.5,121.5 125.5,117.5 125.5,113.5C 125.5,109.5 125.5,105.5 125.5,101.5C 121.5,101.5 117.5,101.5 113.5,101.5C 109.167,101.5 104.833,101.5 100.5,101.5C 100.182,96.9677 100.515,92.6344 101.5,88.5 Z"/></g>
<g><path style="opacity:1" fill="#fffbfb" d="M 126.5,100.5 C 130.5,100.5 134.5,100.5 138.5,100.5C 138.5,104.833 138.5,109.167 138.5,113.5C 134.5,113.5 130.5,113.5 126.5,113.5C 126.5,109.167 126.5,104.833 126.5,100.5 Z"/></g>
<g><path style="opacity:1" fill="#ef7a87" d="M 163.5,88.5 C 164.485,92.6344 164.818,96.9677 164.5,101.5C 160.167,101.5 155.833,101.5 151.5,101.5C 147.5,101.5 143.5,101.5 139.5,101.5C 139.5,105.5 139.5,109.5 139.5,113.5C 139.5,117.5 139.5,121.5 139.5,125.5C 143.5,125.5 147.5,125.5 151.5,125.5C 155.5,125.5 159.5,125.5 163.5,125.5C 163.5,121.5 163.5,117.5 163.5,113.5C 164.485,117.634 164.818,121.968 164.5,126.5C 160.167,126.5 155.833,126.5 151.5,126.5C 147.5,126.5 143.5,126.5 139.5,126.5C 139.5,130.5 139.5,134.5 139.5,138.5C 138.517,134.702 138.183,130.702 138.5,126.5C 134.5,126.5 130.5,126.5 126.5,126.5C 126.5,126.167 126.5,125.833 126.5,125.5C 130.5,125.5 134.5,125.5 138.5,125.5C 138.5,121.5 138.5,117.5 138.5,113.5C 138.5,109.167 138.5,104.833 138.5,100.5C 142.833,100.5 147.167,100.5 151.5,100.5C 155.5,100.5 159.5,100.5 163.5,100.5C 163.5,96.5 163.5,92.5 163.5,88.5 Z"/></g>
<g><path style="opacity:1" fill="#fd101e" d="M 113.5,101.5 C 117.5,101.5 121.5,101.5 125.5,101.5C 125.5,105.5 125.5,109.5 125.5,113.5C 121.5,113.5 117.5,113.5 113.5,113.5C 113.5,109.5 113.5,105.5 113.5,101.5 Z"/></g>
<g><path style="opacity:1" fill="#fd101e" d="M 151.5,101.5 C 151.5,105.5 151.5,109.5 151.5,113.5C 147.5,113.5 143.5,113.5 139.5,113.5C 139.5,109.5 139.5,105.5 139.5,101.5C 143.5,101.5 147.5,101.5 151.5,101.5 Z"/></g>
<g><path style="opacity:1" fill="#fffefe" d="M 113.5,113.5 C 117.5,113.5 121.5,113.5 125.5,113.5C 125.5,117.5 125.5,121.5 125.5,125.5C 121.5,125.5 117.5,125.5 113.5,125.5C 113.5,121.5 113.5,117.5 113.5,113.5 Z"/></g>
<g><path style="opacity:1" fill="#fffefe" d="M 139.5,113.5 C 143.5,113.5 147.5,113.5 151.5,113.5C 151.5,117.5 151.5,121.5 151.5,125.5C 147.5,125.5 143.5,125.5 139.5,125.5C 139.5,121.5 139.5,117.5 139.5,113.5 Z"/></g>
<g><path style="opacity:1" fill="#fd0d1c" d="M 101.5,113.5 C 105.5,113.5 109.5,113.5 113.5,113.5C 113.5,117.5 113.5,121.5 113.5,125.5C 109.5,125.5 105.5,125.5 101.5,125.5C 101.5,121.5 101.5,117.5 101.5,113.5 Z"/></g>
<g><path style="opacity:1" fill="#fd0d1b" d="M 126.5,113.5 C 130.5,113.5 134.5,113.5 138.5,113.5C 138.5,117.5 138.5,121.5 138.5,125.5C 134.5,125.5 130.5,125.5 126.5,125.5C 126.5,121.5 126.5,117.5 126.5,113.5 Z"/></g>
<g><path style="opacity:1" fill="#fd0d1c" d="M 151.5,113.5 C 155.5,113.5 159.5,113.5 163.5,113.5C 163.5,117.5 163.5,121.5 163.5,125.5C 159.5,125.5 155.5,125.5 151.5,125.5C 151.5,121.5 151.5,117.5 151.5,113.5 Z"/></g>
<g><path style="opacity:1" fill="#da496a" d="M 101.5,113.5 C 101.5,117.5 101.5,121.5 101.5,125.5C 105.5,125.5 109.5,125.5 113.5,125.5C 113.5,125.833 113.5,126.167 113.5,126.5C 109.167,126.5 104.833,126.5 100.5,126.5C 100.182,121.968 100.515,117.634 101.5,113.5 Z"/></g>
<g><path style="opacity:1" fill="#2027ac" d="M -0.5,126.5 C 33.1667,126.5 66.8333,126.5 100.5,126.5C 104.833,126.5 109.167,126.5 113.5,126.5C 117.5,126.5 121.5,126.5 125.5,126.5C 125.5,130.5 125.5,134.5 125.5,138.5C 126.483,134.702 126.817,130.702 126.5,126.5C 130.5,126.5 134.5,126.5 138.5,126.5C 138.183,130.702 138.517,134.702 139.5,138.5C 143.5,138.5 147.5,138.5 151.5,138.5C 151.5,134.5 151.5,130.5 151.5,126.5C 155.833,126.5 160.167,126.5 164.5,126.5C 198.167,126.5 231.833,126.5 265.5,126.5C 265.5,147.5 265.5,168.5 265.5,189.5C 176.833,189.5 88.1667,189.5 -0.5,189.5C -0.5,168.5 -0.5,147.5 -0.5,126.5 Z"/></g>
<g><path style="opacity:1" fill="#fd0b19" d="M 113.5,126.5 C 117.5,126.5 121.5,126.5 125.5,126.5C 125.5,130.5 125.5,134.5 125.5,138.5C 121.5,138.5 117.5,138.5 113.5,138.5C 113.5,134.5 113.5,130.5 113.5,126.5 Z"/></g>
<g><path style="opacity:1" fill="#fd0b19" d="M 151.5,126.5 C 151.5,130.5 151.5,134.5 151.5,138.5C 147.5,138.5 143.5,138.5 139.5,138.5C 139.5,134.5 139.5,130.5 139.5,126.5C 143.5,126.5 147.5,126.5 151.5,126.5 Z"/></g>
</svg>
