<?xml version="1.0" encoding="UTF-8"?>
<!DOCTYPE svg PUBLIC "-//W3C//DTD SVG 1.1//EN" "http://www.w3.org/Graphics/SVG/1.1/DTD/svg11.dtd">
<svg xmlns="http://www.w3.org/2000/svg" version="1.1" viewBox="614 -161 45 1140" style="shape-rendering:geometricPrecision; text-rendering:geometricPrecision; image-rendering:optimizeQuality; fill-rule:evenodd; clip-rule:evenodd" xmlns:xlink="http://www.w3.org/1999/xlink">
<g><path style="opacity:1" fill="#f1f1f1" d="M -0.5,-0.5 C 426.167,-0.5 852.833,-0.5 1279.5,-0.5C 1279.5,273.5 1279.5,547.5 1279.5,821.5C 852.833,821.5 426.167,821.5 -0.5,821.5C -0.5,547.5 -0.5,273.5 -0.5,-0.5 Z"/></g>
<g><path style="opacity:1" fill="#a8a8a8" d="M 538.5,194.5 C 605.501,194.333 672.501,194.5 739.5,195C 747.893,197.059 753.393,202.225 756,210.5C 756.667,257.5 756.667,304.5 756,351.5C 753.432,361.066 747.265,366.9 737.5,369C 672.167,369.667 606.833,369.667 541.5,369C 532.763,366.596 526.929,361.096 524,352.5C 523.333,305.167 523.333,257.833 524,210.5C 526.6,203.07 531.433,197.737 538.5,194.5 Z"/></g>
<g><path style="opacity:1" fill="#f1f1f1" d="M 546.5,216.5 C 608.834,216.333 671.168,216.5 733.5,217C 734.663,259.762 734.83,302.596 734,345.5C 733.5,346 733,346.5 732.5,347C 670.833,347.667 609.167,347.667 547.5,347C 547,346.5 546.5,346 546,345.5C 545.173,302.429 545.339,259.429 546.5,216.5 Z"/></g>
<g><path style="opacity:1" fill="#a8a8a8" d="M 575.5,234.5 C 595.252,233.412 602.752,242.412 598,261.5C 592.47,269.236 584.97,272.07 575.5,270C 564.956,264.41 561.456,255.91 565,244.5C 567.738,240.26 571.238,236.926 575.5,234.5 Z"/></g>
<g><path style="opacity:1" fill="#a8a8a8" d="M 666.5,247.5 C 668.199,247.34 669.866,247.506 671.5,248C 685,261.5 698.5,275 712,288.5C 712.5,300.829 712.667,313.162 712.5,325.5C 664.167,325.5 615.833,325.5 567.5,325.5C 567.334,317.826 567.5,310.159 568,302.5C 573.833,296.667 579.667,290.833 585.5,285C 587.833,284.333 590.167,284.333 592.5,285C 598.667,291.167 604.833,297.333 611,303.5C 629.702,284.965 648.202,266.299 666.5,247.5 Z"/></g>
<g><path style="opacity:1" fill="#a7a8a7" d="M 405.5,445.5 C 408.833,445.5 412.167,445.5 415.5,445.5C 415.5,465.167 415.5,484.833 415.5,504.5C 412.167,504.5 408.833,504.5 405.5,504.5C 405.5,484.833 405.5,465.167 405.5,445.5 Z"/></g>
<g><path style="opacity:1" fill="#a8a8a8" d="M 483.5,504.5 C 483.667,489.83 483.5,475.163 483,460.5C 482.487,461.527 481.987,462.527 481.5,463.5C 476.286,474.929 470.786,486.263 465,497.5C 462.619,498.435 460.119,498.768 457.5,498.5C 452.214,485.927 446.38,473.593 440,461.5C 439.5,475.829 439.333,490.163 439.5,504.5C 436.5,504.5 433.5,504.5 430.5,504.5C 430.5,484.833 430.5,465.167 430.5,445.5C 434.555,445.176 438.555,445.509 442.5,446.5C 448.578,458.99 454.911,471.323 461.5,483.5C 468.089,471.323 474.422,458.99 480.5,446.5C 484.445,445.509 488.445,445.176 492.5,445.5C 492.5,465.167 492.5,484.833 492.5,504.5C 489.5,504.5 486.5,504.5 483.5,504.5 Z"/></g>
<g><path style="opacity:1" fill="#a9a9a9" d="M 526.5,445.5 C 530.106,445.211 533.606,445.544 537,446.5C 546.013,465.519 554.179,484.853 561.5,504.5C 558.102,504.82 554.768,504.487 551.5,503.5C 549.537,499.773 547.871,495.94 546.5,492C 536.172,491.5 525.839,491.334 515.5,491.5C 514.259,495.819 512.592,499.985 510.5,504C 507.167,504.667 503.833,504.667 500.5,504C 509.035,484.43 517.702,464.93 526.5,445.5 Z"/></g>
<g><path style="opacity:1" fill="#a9a9a9" d="M 587.5,445.5 C 598.746,444.462 608.746,447.462 617.5,454.5C 615.833,456.833 613.833,458.833 611.5,460.5C 600.929,452.724 590.262,452.557 579.5,460C 569.116,475.076 572.116,486.743 588.5,495C 595.502,496.379 602.002,495.212 608,491.5C 608.499,486.177 608.666,480.844 608.5,475.5C 611.5,475.5 614.5,475.5 617.5,475.5C 617.831,482.863 617.497,490.197 616.5,497.5C 602.484,506.277 588.484,506.444 574.5,498C 560.361,483.199 560.028,468.199 573.5,453C 577.815,449.678 582.482,447.178 587.5,445.5 Z"/></g>
<g><path style="opacity:1" fill="#a7a8a7" d="M 631.5,445.5 C 645.5,445.5 659.5,445.5 673.5,445.5C 673.5,448.5 673.5,451.5 673.5,454.5C 662.833,454.5 652.167,454.5 641.5,454.5C 641.5,459.833 641.5,465.167 641.5,470.5C 650.833,470.5 660.167,470.5 669.5,470.5C 669.5,473.5 669.5,476.5 669.5,479.5C 660.167,479.5 650.833,479.5 641.5,479.5C 641.5,484.833 641.5,490.167 641.5,495.5C 652.5,495.5 663.5,495.5 674.5,495.5C 674.5,498.5 674.5,501.5 674.5,504.5C 660.167,504.5 645.833,504.5 631.5,504.5C 631.5,484.833 631.5,465.167 631.5,445.5 Z"/></g>
<g><path style="opacity:1" fill="#a9a9a9" d="M 707.5,445.5 C 710.85,445.335 714.183,445.502 717.5,446C 728.033,459.567 738.2,473.4 748,487.5C 748.5,473.504 748.667,459.504 748.5,445.5C 751.833,445.5 755.167,445.5 758.5,445.5C 758.5,465.167 758.5,484.833 758.5,504.5C 755.15,504.665 751.817,504.498 748.5,504C 737.967,490.433 727.8,476.6 718,462.5C 717.5,476.496 717.333,490.496 717.5,504.5C 714.167,504.5 710.833,504.5 707.5,504.5C 707.5,484.833 707.5,465.167 707.5,445.5 Z"/></g>
<g><path style="opacity:1" fill="#a9a9a9" d="M 793.5,445.5 C 818.071,443.915 830.571,455.249 831,479.5C 828.059,493.441 819.559,501.608 805.5,504C 781.02,504.854 769.187,493.02 770,468.5C 773.761,456.571 781.595,448.904 793.5,445.5 Z"/></g>
<g><path style="opacity:1" fill="#a7a8a7" d="M 833.5,445.5 C 848.833,445.5 864.167,445.5 879.5,445.5C 879.5,448.5 879.5,451.5 879.5,454.5C 873.5,454.5 867.5,454.5 861.5,454.5C 861.5,471.167 861.5,487.833 861.5,504.5C 858.167,504.5 854.833,504.5 851.5,504.5C 851.5,487.833 851.5,471.167 851.5,454.5C 845.5,454.5 839.5,454.5 833.5,454.5C 833.5,451.5 833.5,448.5 833.5,445.5 Z"/></g>
<g><path style="opacity:1" fill="#f0f0f0" d="M 794.5,454.5 C 807.609,452.803 816.443,458.136 821,470.5C 822.48,482.371 817.646,490.538 806.5,495C 793.874,497.104 785.041,492.27 780,480.5C 778.33,468.171 783.163,459.504 794.5,454.5 Z"/></g>
<g><path style="opacity:1" fill="#efefef" d="M 530.5,456.5 C 534.958,464.666 538.958,473.166 542.5,482C 535.144,482.831 527.811,482.665 520.5,481.5C 523.84,473.143 527.173,464.809 530.5,456.5 Z"/></g>
<g><path style="opacity:1" fill="#dfdfdf" d="M 483.5,504.5 C 482.833,490.833 482.167,477.167 481.5,463.5C 481.987,462.527 482.487,461.527 483,460.5C 483.5,475.163 483.667,489.83 483.5,504.5 Z"/></g>
<g><path style="opacity:1" fill="#a9a9a9" d="M 433.5,545.5 C 437.106,545.211 440.606,545.544 444,546.5C 453.013,565.519 461.179,584.853 468.5,604.5C 465.102,604.82 461.768,604.487 458.5,603.5C 456.537,599.773 454.871,595.94 453.5,592C 443.172,591.5 432.839,591.334 422.5,591.5C 421.259,595.819 419.592,599.985 417.5,604C 414.167,604.667 410.833,604.667 407.5,604C 416.035,584.43 424.702,564.93 433.5,545.5 Z"/></g>
<g><path style="opacity:1" fill="#a9a9a9" d="M 464.5,546.5 C 468.019,545.192 471.685,545.192 475.5,546.5C 481.432,561.794 487.265,577.128 493,592.5C 499.006,577.157 505.006,561.823 511,546.5C 514.409,545.378 517.909,545.211 521.5,546C 513.407,565.349 505.741,584.849 498.5,604.5C 494.833,604.5 491.167,604.5 487.5,604.5C 480.599,584.785 472.933,565.452 464.5,546.5 Z"/></g>
<g><path style="opacity:1" fill="#a9a9a9" d="M 544.5,545.5 C 548.106,545.211 551.606,545.544 555,546.5C 564.013,565.519 572.179,584.853 579.5,604.5C 576.102,604.82 572.768,604.487 569.5,603.5C 567.537,599.773 565.871,595.94 564.5,592C 554.172,591.5 543.839,591.334 533.5,591.5C 532.259,595.819 530.592,599.985 528.5,604C 525.167,604.667 521.833,604.667 518.5,604C 527.035,584.43 535.702,564.93 544.5,545.5 Z"/></g>
<g><path style="opacity:1" fill="#a7a8a7" d="M 588.5,545.5 C 591.833,545.5 595.167,545.5 598.5,545.5C 598.5,565.167 598.5,584.833 598.5,604.5C 595.167,604.5 591.833,604.5 588.5,604.5C 588.5,584.833 588.5,565.167 588.5,545.5 Z"/></g>
<g><path style="opacity:1" fill="#a7a8a7" d="M 613.5,545.5 C 616.833,545.5 620.167,545.5 623.5,545.5C 623.5,562.167 623.5,578.833 623.5,595.5C 631.833,595.5 640.167,595.5 648.5,595.5C 648.5,598.5 648.5,601.5 648.5,604.5C 636.833,604.5 625.167,604.5 613.5,604.5C 613.5,584.833 613.5,565.167 613.5,545.5 Z"/></g>
<g><path style="opacity:1" fill="#a9a9a9" d="M 677.5,545.5 C 681.106,545.211 684.606,545.544 688,546.5C 697.013,565.519 705.179,584.853 712.5,604.5C 709.102,604.82 705.768,604.487 702.5,603.5C 700.537,599.773 698.871,595.94 697.5,592C 687.172,591.5 676.839,591.334 666.5,591.5C 665.259,595.819 663.592,599.985 661.5,604C 658.167,604.667 654.833,604.667 651.5,604C 660.035,584.43 668.702,564.93 677.5,545.5 Z"/></g>
<g><path style="opacity:1" fill="#a9a9a9" d="M 720.5,545.5 C 731.172,545.333 741.839,545.5 752.5,546C 764.321,549.777 767.821,557.277 763,568.5C 761.062,571.106 758.562,572.939 755.5,574C 767.341,578.195 770.508,586.028 765,597.5C 761.238,601.13 756.738,603.297 751.5,604C 741.172,604.5 730.839,604.666 720.5,604.5C 720.5,584.833 720.5,565.167 720.5,545.5 Z"/></g>
<g><path style="opacity:1" fill="#a7a8a7" d="M 780.5,545.5 C 783.833,545.5 787.167,545.5 790.5,545.5C 790.5,562.167 790.5,578.833 790.5,595.5C 798.833,595.5 807.167,595.5 815.5,595.5C 815.5,598.5 815.5,601.5 815.5,604.5C 803.833,604.5 792.167,604.5 780.5,604.5C 780.5,584.833 780.5,565.167 780.5,545.5 Z"/></g>
<g><path style="opacity:1" fill="#a7a8a7" d="M 824.5,545.5 C 838.5,545.5 852.5,545.5 866.5,545.5C 866.5,548.5 866.5,551.5 866.5,554.5C 855.833,554.5 845.167,554.5 834.5,554.5C 834.5,559.833 834.5,565.167 834.5,570.5C 843.833,570.5 853.167,570.5 862.5,570.5C 862.5,573.5 862.5,576.5 862.5,579.5C 853.167,579.5 843.833,579.5 834.5,579.5C 834.5,584.833 834.5,590.167 834.5,595.5C 845.5,595.5 856.5,595.5 867.5,595.5C 867.5,598.5 867.5,601.5 867.5,604.5C 853.167,604.5 838.833,604.5 824.5,604.5C 824.5,584.833 824.5,565.167 824.5,545.5 Z"/></g>
<g><path style="opacity:1" fill="#f1f1f1" d="M 730.5,554.5 C 736.842,554.334 743.175,554.5 749.5,555C 755.629,557.581 756.962,561.748 753.5,567.5C 752.335,568.584 751.002,569.417 749.5,570C 743.175,570.5 736.842,570.666 730.5,570.5C 730.5,565.167 730.5,559.833 730.5,554.5 Z"/></g>
<g><path style="opacity:1" fill="#efefef" d="M 437.5,556.5 C 441.958,564.666 445.958,573.166 449.5,582C 442.144,582.831 434.811,582.665 427.5,581.5C 430.84,573.143 434.173,564.809 437.5,556.5 Z"/></g>
<g><path style="opacity:1" fill="#efefef" d="M 548.5,556.5 C 552.958,564.666 556.958,573.166 560.5,582C 553.144,582.831 545.811,582.665 538.5,581.5C 541.84,573.143 545.173,564.809 548.5,556.5 Z"/></g>
<g><path style="opacity:1" fill="#efefef" d="M 681.5,556.5 C 685.958,564.666 689.958,573.166 693.5,582C 686.144,582.831 678.811,582.665 671.5,581.5C 674.84,573.143 678.173,564.809 681.5,556.5 Z"/></g>
<g><path style="opacity:1" fill="#f1f1f1" d="M 730.5,579.5 C 737.175,579.334 743.842,579.5 750.5,580C 757.347,581.866 759.18,586.032 756,592.5C 754.581,593.46 753.081,594.293 751.5,595C 744.508,595.5 737.508,595.666 730.5,595.5C 730.5,590.167 730.5,584.833 730.5,579.5 Z"/></g>
</svg>
