<?xml version="1.0" encoding="UTF-8"?>
<!DOCTYPE svg PUBLIC "-//W3C//DTD SVG 1.1//EN" "http://www.w3.org/Graphics/SVG/1.1/DTD/svg11.dtd">
<svg xmlns="http://www.w3.org/2000/svg" version="1.1" viewBox="614 -141 45 995" style="shape-rendering:geometricPrecision; text-rendering:geometricPrecision; image-rendering:optimizeQuality; fill-rule:evenodd; clip-rule:evenodd" xmlns:xlink="http://www.w3.org/1999/xlink">
<g><path style="opacity:1" fill="#e90101" d="M -0.5,-0.5 C 426.167,-0.5 852.833,-0.5 1279.5,-0.5C 1279.5,239.5 1279.5,479.5 1279.5,719.5C 852.833,719.5 426.167,719.5 -0.5,719.5C -0.5,479.5 -0.5,239.5 -0.5,-0.5 Z"/></g>
<g><path style="opacity:1" fill="#fffefe" d="M 556.5,272.5 C 583.045,269.963 606.712,276.796 627.5,293C 650.548,317.029 657.381,345.196 648,377.5C 632.724,422.158 601.39,445.158 554,446.5C 518.59,446.695 493.257,431.029 478,399.5C 464.922,358.42 474.089,323.253 505.5,294C 520.728,282.43 537.728,275.263 556.5,272.5 Z"/></g>
<g><path style="opacity:1" fill="#fffdfd" d="M 691.5,276.5 C 712.503,276.333 733.503,276.5 754.5,277C 794.63,280.072 811.797,301.572 806,341.5C 800.789,364.045 786.955,377.878 764.5,383C 749.198,384.314 733.864,384.814 718.5,384.5C 716.015,403.256 713.015,421.923 709.5,440.5C 694.833,441.833 680.167,441.833 665.5,440.5C 674.382,385.875 683.049,331.209 691.5,276.5 Z"/></g>
<g><path style="opacity:1" fill="#e90704" d="M 730.5,311.5 C 740.262,310.603 749.595,312.103 758.5,316C 764.167,321.319 766.001,327.819 764,335.5C 760.614,343.521 754.447,347.688 745.5,348C 738.476,348.831 731.476,348.664 724.5,347.5C 726.501,335.495 728.501,323.495 730.5,311.5 Z"/></g>
<g><path style="opacity:1" fill="#e90402" d="M 557.5,313.5 C 577.78,311.006 592.613,318.673 602,336.5C 609.532,361.219 603.366,381.719 583.5,398C 563.882,409.159 545.382,407.659 528,393.5C 518.558,379.813 515.891,364.813 520,348.5C 525.972,329.69 538.472,318.024 557.5,313.5 Z"/></g>
</svg>
