<?xml version="1.0" encoding="UTF-8"?>
<!DOCTYPE svg PUBLIC "-//W3C//DTD SVG 1.1//EN" "http://www.w3.org/Graphics/SVG/1.1/DTD/svg11.dtd">
<svg xmlns="http://www.w3.org/2000/svg" version="1.1" viewBox="578 -120 45 825" style="shape-rendering:geometricPrecision; text-rendering:geometricPrecision; image-rendering:optimizeQuality; fill-rule:evenodd; clip-rule:evenodd" xmlns:xlink="http://www.w3.org/1999/xlink">
<g><path style="opacity:1" fill="#131313" d="M -0.5,-0.5 C 399.5,-0.5 799.5,-0.5 1199.5,-0.5C 1199.5,196.5 1199.5,393.5 1199.5,590.5C 799.5,590.5 399.5,590.5 -0.5,590.5C -0.5,393.5 -0.5,196.5 -0.5,-0.5 Z"/></g>
<g><path style="opacity:1" fill="#4db0c2" d="M 464.5,95.5 C 475.833,95.5 487.167,95.5 498.5,95.5C 489.009,96.33 479.342,96.83 469.5,97C 475.535,97.8693 481.535,98.8693 487.5,100C 490.167,101 490.167,102 487.5,103C 487.833,103.333 488.167,103.667 488.5,104C 490.886,103.649 493.219,103.815 495.5,104.5C 496.248,106.332 497.248,107.999 498.5,109.5C 499.281,108.263 500.281,107.263 501.5,106.5C 501.207,108.047 501.707,109.714 503,111.5C 504.594,109.018 506.428,108.852 508.5,111C 508.167,111.333 507.833,111.667 507.5,112C 508.793,112.49 510.127,112.657 511.5,112.5C 511.5,113.5 511.5,114.5 511.5,115.5C 513.582,115.472 515.416,116.139 517,117.5C 518.406,116.332 519.572,116.665 520.5,118.5C 521.812,117.54 523.146,117.706 524.5,119C 524.043,119.414 523.709,119.914 523.5,120.5C 527.033,121.734 530.533,123.067 534,124.5C 536.412,125.783 538.245,127.616 539.5,130C 541.112,130.72 542.612,130.554 544,129.5C 545.171,130.893 546.671,131.727 548.5,132C 548.833,133 549.167,134 549.5,135C 554.598,135.553 559.265,137.22 563.5,140C 562.833,140.333 562.167,140.667 561.5,141C 562.784,141.684 563.951,141.517 565,140.5C 565.333,141.5 565.667,142.5 566,143.5C 566.333,143.167 566.667,142.833 567,142.5C 570.655,145.296 574.822,146.963 579.5,147.5C 578.271,148.281 576.938,148.781 575.5,149C 577.78,149.233 579.78,150.066 581.5,151.5C 582.167,151.167 582.833,150.833 583.5,150.5C 589.328,152.332 594.495,155.332 599,159.5C 600.049,158.483 601.216,158.316 602.5,159C 604.596,159.737 606.263,160.903 607.5,162.5C 599.5,162.5 591.5,162.5 583.5,162.5C 583.918,161.778 584.584,161.278 585.5,161C 583.5,160.667 581.5,160.333 579.5,160C 580.833,159.667 582.167,159.333 583.5,159C 581.091,158.252 578.925,157.085 577,155.5C 574.922,156.943 574.089,156.276 574.5,153.5C 570.474,152.102 566.474,150.602 562.5,149C 561.789,147.745 560.956,146.579 560,145.5C 559.667,145.833 559.333,146.167 559,146.5C 544.858,138.544 530.691,131.377 516.5,125C 514.631,123.499 512.797,121.999 511,120.5C 510.667,120.833 510.333,121.167 510,121.5C 505.092,118.935 500.426,115.935 496,112.5C 493.639,113.066 491.806,112.066 490.5,109.5C 487.355,107.818 484.188,107.151 481,107.5C 479.486,103.707 476.653,102.041 472.5,102.5C 472.67,101.178 472.337,100.011 471.5,99C 468.038,97.6329 464.704,97.1329 461.5,97.5C 461.973,96.0937 462.973,95.427 464.5,95.5 Z"/></g>
<g><path style="opacity:1" fill="#43b9bf" d="M 517.5,96.5 C 519.565,96.5172 521.565,96.8505 523.5,97.5C 522.737,98.2679 521.737,98.7679 520.5,99C 522.301,99.3173 522.634,99.984 521.5,101C 524.958,101.597 528.291,102.597 531.5,104C 531.167,104.333 530.833,104.667 530.5,105C 532.134,105.494 533.801,105.66 535.5,105.5C 535.343,106.873 535.51,108.207 536,109.5C 537.388,108.446 538.888,108.28 540.5,109C 543.753,112.376 547.753,114.543 552.5,115.5C 553.345,117.762 554.678,118.429 556.5,117.5C 565.848,123.026 575.515,127.859 585.5,132C 586.5,133 587.5,134 588.5,135C 594.34,137.401 600.007,139.901 605.5,142.5C 605.38,145.205 606.38,145.872 608.5,144.5C 612.523,147.347 616.856,149.347 621.5,150.5C 621.5,151.5 621.5,152.5 621.5,153.5C 626.916,155.08 632.249,156.913 637.5,159C 635.833,159.333 634.167,159.667 632.5,160C 633.865,161.682 635.365,161.849 637,160.5C 637.717,161.044 638.217,161.711 638.5,162.5C 636.167,162.5 633.833,162.5 631.5,162.5C 628.103,160.977 624.436,159.977 620.5,159.5C 613.532,155.338 606.198,151.838 598.5,149C 590.602,140.053 580.602,135.387 568.5,135C 569.167,134.667 569.833,134.333 570.5,134C 565.545,131.135 560.545,128.469 555.5,126C 555.167,125 554.833,124 554.5,123C 551.134,121.332 547.801,119.665 544.5,118C 545.236,114.801 544.403,114.635 542,117.5C 540.647,116.315 539.48,114.981 538.5,113.5C 536.722,113.569 534.889,113.903 533,114.5C 530.932,112.438 528.432,111.272 525.5,111C 522.93,108.886 520.597,106.553 518.5,104C 516.285,102.956 513.952,102.29 511.5,102C 512.5,101.667 513.5,101.333 514.5,101C 510.644,100.133 506.977,98.7997 503.5,97C 508.155,96.5008 512.821,96.3342 517.5,96.5 Z"/></g>
<g><path style="opacity:1" fill="#40bdbd" d="M 523.5,97.5 C 528.237,96.9793 532.57,97.9793 536.5,100.5C 537.086,100.291 537.586,99.9574 538,99.5C 538.667,100.833 539.333,102.167 540,103.5C 541.049,102.483 542.216,102.316 543.5,103C 545.67,104.586 548.004,105.92 550.5,107C 549.167,107.667 549.167,108.333 550.5,109C 556.437,109.681 561.771,111.847 566.5,115.5C 567.965,114.391 568.965,114.891 569.5,117C 572.956,119.121 576.623,120.788 580.5,122C 582.125,122.853 582.458,123.853 581.5,125C 584.997,124.398 587.997,125.565 590.5,128.5C 591.086,128.291 591.586,127.957 592,127.5C 592.667,128.833 593.333,130.167 594,131.5C 595.049,130.483 596.216,130.316 597.5,131C 600.672,132.752 603.672,134.752 606.5,137C 611.175,138.514 615.508,140.681 619.5,143.5C 619.291,144.086 618.957,144.586 618.5,145C 621.367,144.756 624.367,145.089 627.5,146C 628.46,147.419 629.293,148.919 630,150.5C 630.561,149.978 631.228,149.645 632,149.5C 634.444,150.647 636.777,151.981 639,153.5C 639.333,153.167 639.667,152.833 640,152.5C 645.186,155.903 650.352,159.237 655.5,162.5C 649.833,162.5 644.167,162.5 638.5,162.5C 638.217,161.711 637.717,161.044 637,160.5C 635.365,161.849 633.865,161.682 632.5,160C 634.167,159.667 635.833,159.333 637.5,159C 632.249,156.913 626.916,155.08 621.5,153.5C 621.5,152.5 621.5,151.5 621.5,150.5C 616.856,149.347 612.523,147.347 608.5,144.5C 606.38,145.872 605.38,145.205 605.5,142.5C 600.007,139.901 594.34,137.401 588.5,135C 587.5,134 586.5,133 585.5,132C 575.515,127.859 565.848,123.026 556.5,117.5C 554.678,118.429 553.345,117.762 552.5,115.5C 547.753,114.543 543.753,112.376 540.5,109C 538.888,108.28 537.388,108.446 536,109.5C 535.51,108.207 535.343,106.873 535.5,105.5C 533.801,105.66 532.134,105.494 530.5,105C 530.833,104.667 531.167,104.333 531.5,104C 528.291,102.597 524.958,101.597 521.5,101C 522.634,99.984 522.301,99.3173 520.5,99C 521.737,98.7679 522.737,98.2679 523.5,97.5 Z"/></g>
<g><path style="opacity:1" fill="#3bc2bc" d="M 517.5,96.5 C 517.5,96.1667 517.5,95.8333 517.5,95.5C 528.172,95.3335 538.839,95.5002 549.5,96C 548.5,96.3333 547.5,96.6667 546.5,97C 552.32,97.2747 557.987,98.2747 563.5,100C 562.167,100.333 560.833,100.667 559.5,101C 564.581,103.203 569.581,105.703 574.5,108.5C 577.088,108.457 579.421,109.623 581.5,112C 586.715,113.956 591.715,116.29 596.5,119C 596.167,119.333 595.833,119.667 595.5,120C 597.112,120.72 598.612,120.554 600,119.5C 600.374,120.416 600.874,121.25 601.5,122C 627.181,135.016 653.181,148.516 679.5,162.5C 671.5,162.5 663.5,162.5 655.5,162.5C 650.352,159.237 645.186,155.903 640,152.5C 639.667,152.833 639.333,153.167 639,153.5C 636.777,151.981 634.444,150.647 632,149.5C 631.228,149.645 630.561,149.978 630,150.5C 629.293,148.919 628.46,147.419 627.5,146C 624.367,145.089 621.367,144.756 618.5,145C 618.957,144.586 619.291,144.086 619.5,143.5C 615.508,140.681 611.175,138.514 606.5,137C 603.672,134.752 600.672,132.752 597.5,131C 596.216,130.316 595.049,130.483 594,131.5C 593.333,130.167 592.667,128.833 592,127.5C 591.586,127.957 591.086,128.291 590.5,128.5C 587.997,125.565 584.997,124.398 581.5,125C 582.458,123.853 582.125,122.853 580.5,122C 576.623,120.788 572.956,119.121 569.5,117C 568.965,114.891 567.965,114.391 566.5,115.5C 561.771,111.847 556.437,109.681 550.5,109C 549.167,108.333 549.167,107.667 550.5,107C 548.004,105.92 545.67,104.586 543.5,103C 542.216,102.316 541.049,102.483 540,103.5C 539.333,102.167 538.667,100.833 538,99.5C 537.586,99.9574 537.086,100.291 536.5,100.5C 532.57,97.9793 528.237,96.9793 523.5,97.5C 521.565,96.8505 519.565,96.5172 517.5,96.5 Z"/></g>
<g><path style="opacity:1" fill="#32c3b2" d="M 464.5,95.5 C 559.167,94.1667 653.833,94.1667 748.5,95.5C 724.833,95.5 701.167,95.5 677.5,95.5C 667.167,95.5 656.833,95.5 646.5,95.5C 631.464,95.2152 616.464,95.5485 601.5,96.5C 594.159,96.3337 586.826,96.5003 579.5,97C 585.167,97.3333 590.833,97.6667 596.5,98C 595.833,98.3333 595.167,98.6667 594.5,99C 596.525,100.677 598.859,101.677 601.5,102C 600.833,102.333 600.167,102.667 599.5,103C 611.614,107.64 623.114,113.473 634,120.5C 634.414,120.043 634.914,119.709 635.5,119.5C 636.806,122.066 638.639,123.066 641,122.5C 641.483,123.448 641.649,124.448 641.5,125.5C 645.222,126.017 648.888,126.85 652.5,128C 652.167,128.333 651.833,128.667 651.5,129C 663.392,135.094 675.225,141.26 687,147.5C 687.333,147.167 687.667,146.833 688,146.5C 688.374,147.416 688.874,148.25 689.5,149C 691.441,149.304 693.107,150.137 694.5,151.5C 696.102,150.45 696.935,151.117 697,153.5C 697.333,152.833 697.667,152.167 698,151.5C 698.684,152.784 698.517,153.951 697.5,155C 698.094,155.464 698.761,155.631 699.5,155.5C 694.448,161.955 687.781,164.289 679.5,162.5C 653.181,148.516 627.181,135.016 601.5,122C 600.874,121.25 600.374,120.416 600,119.5C 598.612,120.554 597.112,120.72 595.5,120C 595.833,119.667 596.167,119.333 596.5,119C 591.715,116.29 586.715,113.956 581.5,112C 579.421,109.623 577.088,108.457 574.5,108.5C 569.581,105.703 564.581,103.203 559.5,101C 560.833,100.667 562.167,100.333 563.5,100C 557.987,98.2747 552.32,97.2747 546.5,97C 547.5,96.6667 548.5,96.3333 549.5,96C 538.839,95.5002 528.172,95.3335 517.5,95.5C 511.167,95.5 504.833,95.5 498.5,95.5C 487.167,95.5 475.833,95.5 464.5,95.5 Z"/></g>
<g><path style="opacity:1" fill="#2dd0b5" d="M 601.5,96.5 C 607.987,97.3283 614.654,97.8283 621.5,98C 620.5,98.3333 619.5,98.6667 618.5,99C 624.175,99.4641 624.508,100.131 619.5,101C 621.536,101.454 623.37,102.287 625,103.5C 627.411,101.847 628.578,102.513 628.5,105.5C 630.564,105.687 632.564,106.187 634.5,107C 638.667,109.833 642.833,112.667 647,115.5C 647.414,115.043 647.914,114.709 648.5,114.5C 650.834,116.441 653.334,118.107 656,119.5C 656.414,119.043 656.914,118.709 657.5,118.5C 658.382,119.76 659.382,120.926 660.5,122C 675.432,128.657 690.099,136.157 704.5,144.5C 706.838,142.989 707.504,143.323 706.5,145.5C 706.957,146.298 707.624,146.631 708.5,146.5C 705.833,149.833 702.833,152.833 699.5,155.5C 698.761,155.631 698.094,155.464 697.5,155C 698.517,153.951 698.684,152.784 698,151.5C 697.667,152.167 697.333,152.833 697,153.5C 696.935,151.117 696.102,150.45 694.5,151.5C 693.107,150.137 691.441,149.304 689.5,149C 688.874,148.25 688.374,147.416 688,146.5C 687.667,146.833 687.333,147.167 687,147.5C 675.225,141.26 663.392,135.094 651.5,129C 651.833,128.667 652.167,128.333 652.5,128C 648.888,126.85 645.222,126.017 641.5,125.5C 641.649,124.448 641.483,123.448 641,122.5C 638.639,123.066 636.806,122.066 635.5,119.5C 634.914,119.709 634.414,120.043 634,120.5C 623.114,113.473 611.614,107.64 599.5,103C 600.167,102.667 600.833,102.333 601.5,102C 598.859,101.677 596.525,100.677 594.5,99C 595.167,98.6667 595.833,98.3333 596.5,98C 590.833,97.6667 585.167,97.3333 579.5,97C 586.826,96.5003 594.159,96.3337 601.5,96.5 Z"/></g>
<g><path style="opacity:1" fill="#27d6b2" d="M 646.5,95.5 C 638.677,96.3292 630.677,96.8292 622.5,97C 630.5,97.3333 638.5,97.6667 646.5,98C 645.833,98.3333 645.167,98.6667 644.5,99C 647.023,99.5182 649.023,100.852 650.5,103C 657.629,105.313 664.463,108.146 671,111.5C 673.853,113.259 676.52,115.259 679,117.5C 679.333,117.167 679.667,116.833 680,116.5C 684.988,119.515 689.988,122.515 695,125.5C 695.414,125.043 695.914,124.709 696.5,124.5C 697.262,125.628 697.929,126.795 698.5,128C 700.101,128.273 701.601,128.773 703,129.5C 703.333,129.167 703.667,128.833 704,128.5C 704.442,130.679 705.442,131.345 707,130.5C 709.501,133.598 712.501,134.931 716,134.5C 716.513,135.527 717.013,136.527 717.5,137.5C 714.833,140.833 711.833,143.833 708.5,146.5C 707.624,146.631 706.957,146.298 706.5,145.5C 707.504,143.323 706.838,142.989 704.5,144.5C 690.099,136.157 675.432,128.657 660.5,122C 659.382,120.926 658.382,119.76 657.5,118.5C 656.914,118.709 656.414,119.043 656,119.5C 653.334,118.107 650.834,116.441 648.5,114.5C 647.914,114.709 647.414,115.043 647,115.5C 642.833,112.667 638.667,109.833 634.5,107C 632.564,106.187 630.564,105.687 628.5,105.5C 628.578,102.513 627.411,101.847 625,103.5C 623.37,102.287 621.536,101.454 619.5,101C 624.508,100.131 624.175,99.4641 618.5,99C 619.5,98.6667 620.5,98.3333 621.5,98C 614.654,97.8283 607.987,97.3283 601.5,96.5C 616.464,95.5485 631.464,95.2152 646.5,95.5 Z"/></g>
<g><path style="opacity:1" fill="#1fdeaf" d="M 646.5,95.5 C 656.833,95.5 667.167,95.5 677.5,95.5C 676.048,96.3019 674.382,96.8019 672.5,97C 674.134,97.4935 675.801,97.6602 677.5,97.5C 678.028,98.7206 678.695,99.8873 679.5,101C 684.611,102.444 689.278,104.777 693.5,108C 696.777,109.143 700.11,109.977 703.5,110.5C 703.5,111.5 703.5,112.5 703.5,113.5C 706.566,113.724 709.066,115.057 711,117.5C 711.333,117.167 711.667,116.833 712,116.5C 715.532,120.418 719.698,122.585 724.5,123C 725.731,124.405 727.064,125.571 728.5,126.5C 725.167,130.5 721.5,134.167 717.5,137.5C 717.013,136.527 716.513,135.527 716,134.5C 712.501,134.931 709.501,133.598 707,130.5C 705.442,131.345 704.442,130.679 704,128.5C 703.667,128.833 703.333,129.167 703,129.5C 701.601,128.773 700.101,128.273 698.5,128C 697.929,126.795 697.262,125.628 696.5,124.5C 695.914,124.709 695.414,125.043 695,125.5C 689.988,122.515 684.988,119.515 680,116.5C 679.667,116.833 679.333,117.167 679,117.5C 676.52,115.259 673.853,113.259 671,111.5C 664.463,108.146 657.629,105.313 650.5,103C 649.023,100.852 647.023,99.5182 644.5,99C 645.167,98.6667 645.833,98.3333 646.5,98C 638.5,97.6667 630.5,97.3333 622.5,97C 630.677,96.8292 638.677,96.3292 646.5,95.5 Z"/></g>
<g><path style="opacity:1" fill="#19e4ac" d="M 677.5,97.5 C 684.175,97.3337 690.842,97.5004 697.5,98C 703.997,101.414 710.33,105.081 716.5,109C 718.927,110.591 721.593,111.425 724.5,111.5C 724.5,112.5 724.5,113.5 724.5,114.5C 725.822,114.67 726.989,114.337 728,113.5C 729.601,115.972 731.601,116.972 734,116.5C 734.617,117.449 734.451,118.282 733.5,119C 734.094,119.464 734.761,119.631 735.5,119.5C 733.5,122.167 731.167,124.5 728.5,126.5C 727.064,125.571 725.731,124.405 724.5,123C 719.698,122.585 715.532,120.418 712,116.5C 711.667,116.833 711.333,117.167 711,117.5C 709.066,115.057 706.566,113.724 703.5,113.5C 703.5,112.5 703.5,111.5 703.5,110.5C 700.11,109.977 696.777,109.143 693.5,108C 689.278,104.777 684.611,102.444 679.5,101C 678.695,99.8873 678.028,98.7206 677.5,97.5 Z"/></g>
<g><path style="opacity:1" fill="#13eaaa" d="M 677.5,95.5 C 701.167,95.5 724.833,95.5 748.5,95.5C 751.714,96.7804 752.881,99.1137 752,102.5C 746.845,108.496 741.345,114.162 735.5,119.5C 734.761,119.631 734.094,119.464 733.5,119C 734.451,118.282 734.617,117.449 734,116.5C 731.601,116.972 729.601,115.972 728,113.5C 726.989,114.337 725.822,114.67 724.5,114.5C 724.5,113.5 724.5,112.5 724.5,111.5C 721.593,111.425 718.927,110.591 716.5,109C 710.33,105.081 703.997,101.414 697.5,98C 690.842,97.5004 684.175,97.3337 677.5,97.5C 675.801,97.6602 674.134,97.4935 672.5,97C 674.382,96.8019 676.048,96.3019 677.5,95.5 Z"/></g>
<g><path style="opacity:1" fill="#52abc5" d="M 461.5,97.5 C 464.704,97.1329 468.038,97.6329 471.5,99C 472.337,100.011 472.67,101.178 472.5,102.5C 476.653,102.041 479.486,103.707 481,107.5C 484.188,107.151 487.355,107.818 490.5,109.5C 491.806,112.066 493.639,113.066 496,112.5C 500.426,115.935 505.092,118.935 510,121.5C 510.333,121.167 510.667,120.833 511,120.5C 512.797,121.999 514.631,123.499 516.5,125C 530.691,131.377 544.858,138.544 559,146.5C 559.333,146.167 559.667,145.833 560,145.5C 560.956,146.579 561.789,147.745 562.5,149C 566.474,150.602 570.474,152.102 574.5,153.5C 574.089,156.276 574.922,156.943 577,155.5C 578.925,157.085 581.091,158.252 583.5,159C 582.167,159.333 580.833,159.667 579.5,160C 581.5,160.333 583.5,160.667 585.5,161C 584.584,161.278 583.918,161.778 583.5,162.5C 575.5,162.5 567.5,162.5 559.5,162.5C 558.282,161.839 556.949,161.172 555.5,160.5C 557.423,159.692 559.423,159.192 561.5,159C 556.597,156.686 551.597,154.519 546.5,152.5C 545.667,151.5 544.833,150.5 544,149.5C 543.667,149.833 543.333,150.167 543,150.5C 540.293,148.064 537.127,146.564 533.5,146C 531.256,145.004 529.423,143.504 528,141.5C 527.667,142.167 527.333,142.833 527,143.5C 526.951,140.584 525.784,139.584 523.5,140.5C 522.614,139.675 522.281,138.675 522.5,137.5C 514.679,136.168 507.846,132.834 502,127.5C 499.901,126.713 497.734,126.38 495.5,126.5C 495.911,123.724 495.078,123.057 493,124.5C 488.031,119.952 482.198,116.952 475.5,115.5C 474.585,114.672 473.919,113.672 473.5,112.5C 468.024,111.398 463.024,109.231 458.5,106C 456.866,105.506 455.199,105.34 453.5,105.5C 455.833,102.5 458.5,99.8333 461.5,97.5 Z"/></g>
<g><path style="opacity:1" fill="#58a5c8" d="M 453.5,105.5 C 455.199,105.34 456.866,105.506 458.5,106C 463.024,109.231 468.024,111.398 473.5,112.5C 473.919,113.672 474.585,114.672 475.5,115.5C 482.198,116.952 488.031,119.952 493,124.5C 495.078,123.057 495.911,123.724 495.5,126.5C 497.734,126.38 499.901,126.713 502,127.5C 507.846,132.834 514.679,136.168 522.5,137.5C 522.281,138.675 522.614,139.675 523.5,140.5C 525.784,139.584 526.951,140.584 527,143.5C 527.333,142.833 527.667,142.167 528,141.5C 529.423,143.504 531.256,145.004 533.5,146C 537.127,146.564 540.293,148.064 543,150.5C 543.333,150.167 543.667,149.833 544,149.5C 544.833,150.5 545.667,151.5 546.5,152.5C 551.597,154.519 556.597,156.686 561.5,159C 559.423,159.192 557.423,159.692 555.5,160.5C 556.949,161.172 558.282,161.839 559.5,162.5C 552.167,162.5 544.833,162.5 537.5,162.5C 535.26,161.736 532.927,160.902 530.5,160C 531.5,159.667 532.5,159.333 533.5,159C 531.474,157.041 529.308,156.207 527,156.5C 522.461,153.235 517.795,150.235 513,147.5C 512.667,147.833 512.333,148.167 512,148.5C 499.84,140.661 486.84,133.994 473,128.5C 469.631,126.648 466.631,124.314 464,121.5C 463.374,123.991 462.541,123.991 461.5,121.5C 458.246,120.841 455.246,119.008 452.5,116C 451.451,115.508 450.451,115.674 449.5,116.5C 448.128,115.545 446.795,114.545 445.5,113.5C 447.833,110.5 450.5,107.833 453.5,105.5 Z"/></g>
<g><path style="opacity:1" fill="#5f9eca" d="M 445.5,113.5 C 446.795,114.545 448.128,115.545 449.5,116.5C 450.451,115.674 451.451,115.508 452.5,116C 455.246,119.008 458.246,120.841 461.5,121.5C 462.541,123.991 463.374,123.991 464,121.5C 466.631,124.314 469.631,126.648 473,128.5C 486.84,133.994 499.84,140.661 512,148.5C 512.333,148.167 512.667,147.833 513,147.5C 517.795,150.235 522.461,153.235 527,156.5C 529.308,156.207 531.474,157.041 533.5,159C 532.5,159.333 531.5,159.667 530.5,160C 532.927,160.902 535.26,161.736 537.5,162.5C 526.167,162.5 514.833,162.5 503.5,162.5C 500.464,158.662 496.464,156.162 491.5,155C 488.718,151.443 485.051,149.776 480.5,150C 478.143,147.631 475.643,145.464 473,143.5C 472.667,144.167 472.333,144.833 472,145.5C 469.094,142.963 465.927,140.796 462.5,139C 452.624,134.024 442.957,129.524 433.5,125.5C 437.167,121.167 441.167,117.167 445.5,113.5 Z"/></g>
<g><path style="opacity:1" fill="#6697cd" d="M 433.5,125.5 C 442.957,129.524 452.624,134.024 462.5,139C 465.927,140.796 469.094,142.963 472,145.5C 472.333,144.833 472.667,144.167 473,143.5C 475.643,145.464 478.143,147.631 480.5,150C 485.051,149.776 488.718,151.443 491.5,155C 496.464,156.162 500.464,158.662 503.5,162.5C 495.5,162.5 487.5,162.5 479.5,162.5C 478.282,161.839 476.949,161.172 475.5,160.5C 476.376,159.749 477.376,159.249 478.5,159C 473.679,157.056 469.346,154.389 465.5,151C 462.27,149.692 458.936,148.692 455.5,148C 449.691,143.762 443.358,140.596 436.5,138.5C 436.5,137.5 436.5,136.5 436.5,135.5C 434.193,135.014 432.027,135.014 430,135.5C 429.8,133.68 428.966,132.347 427.5,131.5C 429.167,129.167 431.167,127.167 433.5,125.5 Z"/></g>
<g><path style="opacity:1" fill="#48b5c1" d="M 498.5,95.5 C 504.833,95.5 511.167,95.5 517.5,95.5C 517.5,95.8333 517.5,96.1667 517.5,96.5C 512.821,96.3342 508.155,96.5008 503.5,97C 506.977,98.7997 510.644,100.133 514.5,101C 513.5,101.333 512.5,101.667 511.5,102C 513.952,102.29 516.285,102.956 518.5,104C 520.597,106.553 522.93,108.886 525.5,111C 528.432,111.272 530.932,112.438 533,114.5C 534.889,113.903 536.722,113.569 538.5,113.5C 539.48,114.981 540.647,116.315 542,117.5C 544.403,114.635 545.236,114.801 544.5,118C 547.801,119.665 551.134,121.332 554.5,123C 554.833,124 555.167,125 555.5,126C 560.545,128.469 565.545,131.135 570.5,134C 569.833,134.333 569.167,134.667 568.5,135C 580.602,135.387 590.602,140.053 598.5,149C 606.198,151.838 613.532,155.338 620.5,159.5C 624.436,159.977 628.103,160.977 631.5,162.5C 623.5,162.5 615.5,162.5 607.5,162.5C 606.263,160.903 604.596,159.737 602.5,159C 601.216,158.316 600.049,158.483 599,159.5C 594.495,155.332 589.328,152.332 583.5,150.5C 582.833,150.833 582.167,151.167 581.5,151.5C 579.78,150.066 577.78,149.233 575.5,149C 576.938,148.781 578.271,148.281 579.5,147.5C 574.822,146.963 570.655,145.296 567,142.5C 566.667,142.833 566.333,143.167 566,143.5C 565.667,142.5 565.333,141.5 565,140.5C 563.951,141.517 562.784,141.684 561.5,141C 562.167,140.667 562.833,140.333 563.5,140C 559.265,137.22 554.598,135.553 549.5,135C 549.167,134 548.833,133 548.5,132C 546.671,131.727 545.171,130.893 544,129.5C 542.612,130.554 541.112,130.72 539.5,130C 538.245,127.616 536.412,125.783 534,124.5C 530.533,123.067 527.033,121.734 523.5,120.5C 523.709,119.914 524.043,119.414 524.5,119C 523.146,117.706 521.812,117.54 520.5,118.5C 519.572,116.665 518.406,116.332 517,117.5C 515.416,116.139 513.582,115.472 511.5,115.5C 511.5,114.5 511.5,113.5 511.5,112.5C 510.127,112.657 508.793,112.49 507.5,112C 507.833,111.667 508.167,111.333 508.5,111C 506.428,108.852 504.594,109.018 503,111.5C 501.707,109.714 501.207,108.047 501.5,106.5C 500.281,107.263 499.281,108.263 498.5,109.5C 497.248,107.999 496.248,106.332 495.5,104.5C 493.219,103.815 490.886,103.649 488.5,104C 488.167,103.667 487.833,103.333 487.5,103C 490.167,102 490.167,101 487.5,100C 481.535,98.8693 475.535,97.8693 469.5,97C 479.342,96.83 489.009,96.33 498.5,95.5 Z"/></g>
<g><path style="opacity:1" fill="#6c91d0" d="M 427.5,131.5 C 428.966,132.347 429.8,133.68 430,135.5C 432.027,135.014 434.193,135.014 436.5,135.5C 436.5,136.5 436.5,137.5 436.5,138.5C 443.358,140.596 449.691,143.762 455.5,148C 458.936,148.692 462.27,149.692 465.5,151C 469.346,154.389 473.679,157.056 478.5,159C 477.376,159.249 476.376,159.749 475.5,160.5C 476.949,161.172 478.282,161.839 479.5,162.5C 468.167,162.5 456.833,162.5 445.5,162.5C 443.123,161.113 440.457,160.279 437.5,160C 435.694,159.19 434.194,158.024 433,156.5C 432.228,156.645 431.561,156.978 431,157.5C 427.345,155.912 424.011,153.246 421,149.5C 419.951,150.517 418.784,150.684 417.5,150C 418.654,149.086 418.487,148.253 417,147.5C 414.959,148.423 412.792,148.756 410.5,148.5C 415.833,142.5 421.5,136.833 427.5,131.5 Z"/></g>
<g><path style="opacity:1" fill="#7587d4" d="M 445.5,162.5 C 432.496,162.667 419.496,162.5 406.5,162C 403.793,160.136 402.959,157.636 404,154.5C 406.011,152.322 408.177,150.322 410.5,148.5C 412.792,148.756 414.959,148.423 417,147.5C 418.487,148.253 418.654,149.086 417.5,150C 418.784,150.684 419.951,150.517 421,149.5C 424.011,153.246 427.345,155.912 431,157.5C 431.561,156.978 432.228,156.645 433,156.5C 434.194,158.024 435.694,159.19 437.5,160C 440.457,160.279 443.123,161.113 445.5,162.5 Z"/></g>
<g><path style="opacity:1" fill="#8873dc" d="M 406.5,197.5 C 414.833,197.5 423.167,197.5 431.5,197.5C 431.389,198.117 431.056,198.617 430.5,199C 434.399,200.372 438.399,201.538 442.5,202.5C 443.386,203.325 443.719,204.325 443.5,205.5C 446.216,205.678 448.883,206.178 451.5,207C 451.167,207.333 450.833,207.667 450.5,208C 456.156,209.665 461.489,211.998 466.5,215C 466.167,215.333 465.833,215.667 465.5,216C 467.878,216.511 470.212,217.178 472.5,218C 475.286,220.726 478.619,222.393 482.5,223C 482.167,223.333 481.833,223.667 481.5,224C 487.369,225.876 493.035,228.209 498.5,231C 498.167,231.333 497.833,231.667 497.5,232C 501.105,232.643 504.105,234.31 506.5,237C 509.949,239.059 513.616,240.559 517.5,241.5C 518.251,242.376 518.751,243.376 519,244.5C 522.075,244.368 524.742,245.701 527,248.5C 527.423,247.044 528.256,246.544 529.5,247C 528.167,247.667 528.167,248.333 529.5,249C 534.205,252.014 539.205,254.347 544.5,256C 544.167,256.333 543.833,256.667 543.5,257C 547.847,258.059 551.513,259.559 554.5,261.5C 557.145,262.108 559.812,262.608 562.5,263C 555.174,263.5 547.841,263.666 540.5,263.5C 537.023,262.677 533.356,262.177 529.5,262C 522.045,257.263 514.379,252.596 506.5,248C 503.208,245.689 499.542,244.523 495.5,244.5C 495.5,243.5 495.5,242.5 495.5,241.5C 492.746,241.216 490.08,240.549 487.5,239.5C 484.424,237.811 481.424,235.978 478.5,234C 476.26,233.023 473.927,232.523 471.5,232.5C 471.5,231.5 471.5,230.5 471.5,229.5C 470.127,229.657 468.793,229.49 467.5,229C 459.43,224.132 450.93,219.965 442,216.5C 438.653,214.435 435.487,212.102 432.5,209.5C 431.914,209.709 431.414,210.043 431,210.5C 428.834,208.879 426.334,208.045 423.5,208C 424.833,207.667 426.167,207.333 427.5,207C 424.285,206.726 421.619,205.393 419.5,203C 418.216,202.316 417.049,202.483 416,203.5C 413.616,202.057 411.116,200.723 408.5,199.5C 406.583,200.903 405.583,200.57 405.5,198.5C 405.5,197.833 405.833,197.5 406.5,197.5 Z"/></g>
<g><path style="opacity:1" fill="#8279d8" d="M 431.5,197.5 C 441.5,197.5 451.5,197.5 461.5,197.5C 461.414,198.496 461.748,199.329 462.5,200C 461.833,200.333 461.167,200.667 460.5,201C 468.356,203.478 475.689,207.145 482.5,212C 487.874,214.356 493.207,216.69 498.5,219C 503.352,222.194 508.185,225.36 513,228.5C 518.098,229.804 522.931,231.471 527.5,233.5C 527.5,234.5 527.5,235.5 527.5,236.5C 533.11,238.631 538.777,240.798 544.5,243C 554.638,249.402 565.305,254.736 576.5,259C 575.167,259.667 575.167,260.333 576.5,261C 579.678,261.66 582.678,262.493 585.5,263.5C 583.265,263.205 581.265,263.539 579.5,264.5C 559.5,264.5 539.5,264.5 519.5,264.5C 526.313,263.509 533.313,263.175 540.5,263.5C 547.841,263.666 555.174,263.5 562.5,263C 559.812,262.608 557.145,262.108 554.5,261.5C 551.513,259.559 547.847,258.059 543.5,257C 543.833,256.667 544.167,256.333 544.5,256C 539.205,254.347 534.205,252.014 529.5,249C 528.167,248.333 528.167,247.667 529.5,247C 528.256,246.544 527.423,247.044 527,248.5C 524.742,245.701 522.075,244.368 519,244.5C 518.751,243.376 518.251,242.376 517.5,241.5C 513.616,240.559 509.949,239.059 506.5,237C 504.105,234.31 501.105,232.643 497.5,232C 497.833,231.667 498.167,231.333 498.5,231C 493.035,228.209 487.369,225.876 481.5,224C 481.833,223.667 482.167,223.333 482.5,223C 478.619,222.393 475.286,220.726 472.5,218C 470.212,217.178 467.878,216.511 465.5,216C 465.833,215.667 466.167,215.333 466.5,215C 461.489,211.998 456.156,209.665 450.5,208C 450.833,207.667 451.167,207.333 451.5,207C 448.883,206.178 446.216,205.678 443.5,205.5C 443.719,204.325 443.386,203.325 442.5,202.5C 438.399,201.538 434.399,200.372 430.5,199C 431.056,198.617 431.389,198.117 431.5,197.5 Z"/></g>
<g><path style="opacity:1" fill="#7c80d7" d="M 461.5,197.5 C 468.5,197.5 475.5,197.5 482.5,197.5C 492.934,202.951 504.267,208.451 516.5,214C 539.609,227.058 563.276,239.391 587.5,251C 593.764,254.27 599.764,257.936 605.5,262C 607.833,262.333 610.167,262.667 612.5,263C 603.506,263.5 594.506,263.666 585.5,263.5C 582.678,262.493 579.678,261.66 576.5,261C 575.167,260.333 575.167,259.667 576.5,259C 565.305,254.736 554.638,249.402 544.5,243C 538.777,240.798 533.11,238.631 527.5,236.5C 527.5,235.5 527.5,234.5 527.5,233.5C 522.931,231.471 518.098,229.804 513,228.5C 508.185,225.36 503.352,222.194 498.5,219C 493.207,216.69 487.874,214.356 482.5,212C 475.689,207.145 468.356,203.478 460.5,201C 461.167,200.667 461.833,200.333 462.5,200C 461.748,199.329 461.414,198.496 461.5,197.5 Z"/></g>
<g><path style="opacity:1" fill="#7587d4" d="M 482.5,197.5 C 494.049,196.746 505.383,197.746 516.5,200.5C 518.39,201.424 519.89,202.757 521,204.5C 521.333,203.833 521.667,203.167 522,202.5C 525.474,205.852 529.474,208.186 534,209.5C 536.379,212.604 539.545,213.937 543.5,213.5C 543.281,214.675 543.614,215.675 544.5,216.5C 552.344,219.088 559.677,222.755 566.5,227.5C 572.634,229.833 578.634,232.333 584.5,235C 586.662,236.493 588.662,238.16 590.5,240C 601.273,244.389 611.606,249.389 621.5,255C 621.167,255.333 620.833,255.667 620.5,256C 626.035,257.003 630.368,259.003 633.5,262C 635.5,262.333 637.5,262.667 639.5,263C 631.323,263.171 623.323,263.671 615.5,264.5C 603.5,264.5 591.5,264.5 579.5,264.5C 581.265,263.539 583.265,263.205 585.5,263.5C 594.506,263.666 603.506,263.5 612.5,263C 610.167,262.667 607.833,262.333 605.5,262C 599.764,257.936 593.764,254.27 587.5,251C 563.276,239.391 539.609,227.058 516.5,214C 504.267,208.451 492.934,202.951 482.5,197.5 Z"/></g>
<g><path style="opacity:1" fill="#6d88cb" d="M 406.5,197.5 C 459.997,196.501 513.664,196.168 567.5,196.5C 567.5,196.833 567.5,197.167 567.5,197.5C 562.167,197.5 556.833,197.5 551.5,197.5C 546.156,197.334 540.823,197.501 535.5,198C 536.949,199.117 538.616,199.784 540.5,200C 539.5,200.333 538.5,200.667 537.5,201C 541.351,203.855 545.684,205.855 550.5,207C 550.167,207.333 549.833,207.667 549.5,208C 553.464,208.981 556.797,210.981 559.5,214C 569.95,217.287 579.617,222.121 588.5,228.5C 596.857,231.178 604.523,235.178 611.5,240.5C 618.593,244.145 625.927,247.312 633.5,250C 634.167,251 634.833,252 635.5,253C 638.857,253.225 642.19,254.225 645.5,256C 644.167,256.333 642.833,256.667 641.5,257C 644.789,257.882 648.123,258.548 651.5,259C 650.833,259.667 650.167,260.333 649.5,261C 655.917,262.078 662.584,262.911 669.5,263.5C 669.5,263.833 669.5,264.167 669.5,264.5C 651.5,264.5 633.5,264.5 615.5,264.5C 623.323,263.671 631.323,263.171 639.5,263C 637.5,262.667 635.5,262.333 633.5,262C 630.368,259.003 626.035,257.003 620.5,256C 620.833,255.667 621.167,255.333 621.5,255C 611.606,249.389 601.273,244.389 590.5,240C 588.662,238.16 586.662,236.493 584.5,235C 578.634,232.333 572.634,229.833 566.5,227.5C 559.677,222.755 552.344,219.088 544.5,216.5C 543.614,215.675 543.281,214.675 543.5,213.5C 539.545,213.937 536.379,212.604 534,209.5C 529.474,208.186 525.474,205.852 522,202.5C 521.667,203.167 521.333,203.833 521,204.5C 519.89,202.757 518.39,201.424 516.5,200.5C 505.383,197.746 494.049,196.746 482.5,197.5C 475.5,197.5 468.5,197.5 461.5,197.5C 451.5,197.5 441.5,197.5 431.5,197.5C 423.167,197.5 414.833,197.5 406.5,197.5 Z"/></g>
<g><path style="opacity:1" fill="#6697cd" d="M 551.5,197.5 C 556.833,197.5 562.167,197.5 567.5,197.5C 571.586,199.118 575.919,200.285 580.5,201C 604.607,214.062 629.607,226.895 655.5,239.5C 658.013,241.433 660.513,243.433 663,245.5C 663.333,245.167 663.667,244.833 664,244.5C 674.974,250.382 685.474,256.216 695.5,262C 694.944,262.383 694.611,262.883 694.5,263.5C 690.167,263.5 685.833,263.5 681.5,263.5C 681.082,262.778 680.416,262.278 679.5,262C 675.809,261.58 672.142,261.08 668.5,260.5C 668.439,258.408 667.439,256.908 665.5,256C 662.829,254.097 659.829,253.264 656.5,253.5C 656.479,250.465 655.146,248.132 652.5,246.5C 650.647,245.24 648.814,245.24 647,246.5C 644.14,246.027 641.807,244.694 640,242.5C 639.667,242.833 639.333,243.167 639,243.5C 636.205,241.354 633.039,240.187 629.5,240C 630.833,239.667 632.167,239.333 633.5,239C 627.322,237.841 621.989,235.175 617.5,231C 615.187,230.338 612.854,229.838 610.5,229.5C 610.719,228.325 610.386,227.325 609.5,226.5C 606.192,225.605 602.859,224.771 599.5,224C 600.5,223.667 601.5,223.333 602.5,223C 591.9,219.352 582.234,214.852 573.5,209.5C 571.981,208.149 570.648,206.649 569.5,205C 570.833,204.667 572.167,204.333 573.5,204C 571.423,203.808 569.423,203.308 567.5,202.5C 568.025,201.808 568.692,201.308 569.5,201C 563.422,199.664 557.422,198.498 551.5,197.5 Z"/></g>
<g><path style="opacity:1" fill="#609dca" d="M 567.5,197.5 C 579.167,197.5 590.833,197.5 602.5,197.5C 601.391,198.29 600.058,198.79 598.5,199C 603.723,200.278 608.39,202.612 612.5,206C 614.167,206.333 615.833,206.667 617.5,207C 617.167,207.333 616.833,207.667 616.5,208C 621.52,210.369 626.52,212.702 631.5,215C 631.167,215.333 630.833,215.667 630.5,216C 632.878,216.511 635.212,217.178 637.5,218C 639.962,220.536 642.962,222.036 646.5,222.5C 647.771,224.829 649.771,225.995 652.5,226C 653.211,227.255 654.044,228.421 655,229.5C 655.414,229.043 655.914,228.709 656.5,228.5C 677.937,239.378 698.937,250.378 719.5,261.5C 718.271,262.281 716.938,262.781 715.5,263C 708.508,263.5 701.508,263.666 694.5,263.5C 694.611,262.883 694.944,262.383 695.5,262C 685.474,256.216 674.974,250.382 664,244.5C 663.667,244.833 663.333,245.167 663,245.5C 660.513,243.433 658.013,241.433 655.5,239.5C 629.607,226.895 604.607,214.062 580.5,201C 575.919,200.285 571.586,199.118 567.5,197.5 Z"/></g>
<g><path style="opacity:1" fill="#5aa2c8" d="M 602.5,197.5 C 610.898,197.188 618.898,198.688 626.5,202C 628.551,205.147 631.551,206.814 635.5,207C 634.366,208.016 634.699,208.683 636.5,209C 638.473,209.495 640.473,209.662 642.5,209.5C 642.33,210.822 642.663,211.989 643.5,213C 646.424,213.988 649.424,214.654 652.5,215C 651.833,215.333 651.167,215.667 650.5,216C 653.044,217.092 655.711,217.759 658.5,218C 659.167,219 659.833,220 660.5,221C 663.529,221.539 666.529,222.206 669.5,223C 668.167,223.333 666.833,223.667 665.5,224C 669.307,224.779 672.64,226.446 675.5,229C 678.877,229.452 682.211,230.118 685.5,231C 684.167,231.333 682.833,231.667 681.5,232C 682.421,233.756 683.588,233.923 685,232.5C 687.433,233.479 689.933,234.145 692.5,234.5C 692.5,235.5 692.5,236.5 692.5,237.5C 696.887,239.781 701.887,242.281 707.5,245C 710.232,245.413 712.899,246.08 715.5,247C 714.5,247.333 713.5,247.667 712.5,248C 717.021,249.115 721.021,251.115 724.5,254C 728.017,255.529 731.683,256.529 735.5,257C 737.125,257.853 737.458,258.853 736.5,260C 741.118,260.403 745.451,261.57 749.5,263.5C 723.005,264.498 696.339,264.831 669.5,264.5C 669.5,264.167 669.5,263.833 669.5,263.5C 673.5,263.5 677.5,263.5 681.5,263.5C 685.833,263.5 690.167,263.5 694.5,263.5C 701.508,263.666 708.508,263.5 715.5,263C 716.938,262.781 718.271,262.281 719.5,261.5C 698.937,250.378 677.937,239.378 656.5,228.5C 655.914,228.709 655.414,229.043 655,229.5C 654.044,228.421 653.211,227.255 652.5,226C 649.771,225.995 647.771,224.829 646.5,222.5C 642.962,222.036 639.962,220.536 637.5,218C 635.212,217.178 632.878,216.511 630.5,216C 630.833,215.667 631.167,215.333 631.5,215C 626.52,212.702 621.52,210.369 616.5,208C 616.833,207.667 617.167,207.333 617.5,207C 615.833,206.667 614.167,206.333 612.5,206C 608.39,202.612 603.723,200.278 598.5,199C 600.058,198.79 601.391,198.29 602.5,197.5 Z"/></g>
<g><path style="opacity:1" fill="#54a5c3" d="M 567.5,197.5 C 567.5,197.167 567.5,196.833 567.5,196.5C 608.67,196.168 649.67,196.501 690.5,197.5C 673.163,197.333 655.83,197.5 638.5,198C 646.793,199.083 654.793,201.083 662.5,204C 661.346,204.914 661.513,205.747 663,206.5C 663.333,206.167 663.667,205.833 664,205.5C 666.683,206.675 669.017,208.342 671,210.5C 671.333,210.167 671.667,209.833 672,209.5C 675.109,212.634 678.609,214.468 682.5,215C 682.167,215.333 681.833,215.667 681.5,216C 691.246,220.744 700.912,225.577 710.5,230.5C 712.214,229.391 712.881,230.058 712.5,232.5C 715.237,233.031 717.904,233.864 720.5,235C 719.549,235.718 719.383,236.551 720,237.5C 721.268,237.384 722.602,237.051 724,236.5C 725.588,238.088 727.588,240.088 730,242.5C 731.388,241.446 732.888,241.28 734.5,242C 737.667,245.167 740.833,248.333 744,251.5C 744.383,250.944 744.883,250.611 745.5,250.5C 747.823,252.322 749.989,254.322 752,256.5C 753.087,259.614 752.254,261.947 749.5,263.5C 745.451,261.57 741.118,260.403 736.5,260C 737.458,258.853 737.125,257.853 735.5,257C 731.683,256.529 728.017,255.529 724.5,254C 721.021,251.115 717.021,249.115 712.5,248C 713.5,247.667 714.5,247.333 715.5,247C 712.899,246.08 710.232,245.413 707.5,245C 701.887,242.281 696.887,239.781 692.5,237.5C 692.5,236.5 692.5,235.5 692.5,234.5C 689.933,234.145 687.433,233.479 685,232.5C 683.588,233.923 682.421,233.756 681.5,232C 682.833,231.667 684.167,231.333 685.5,231C 682.211,230.118 678.877,229.452 675.5,229C 672.64,226.446 669.307,224.779 665.5,224C 666.833,223.667 668.167,223.333 669.5,223C 666.529,222.206 663.529,221.539 660.5,221C 659.833,220 659.167,219 658.5,218C 655.711,217.759 653.044,217.092 650.5,216C 651.167,215.667 651.833,215.333 652.5,215C 649.424,214.654 646.424,213.988 643.5,213C 642.663,211.989 642.33,210.822 642.5,209.5C 640.473,209.662 638.473,209.495 636.5,209C 634.699,208.683 634.366,208.016 635.5,207C 631.551,206.814 628.551,205.147 626.5,202C 618.898,198.688 610.898,197.188 602.5,197.5C 590.833,197.5 579.167,197.5 567.5,197.5 Z"/></g>
<g><path style="opacity:1" fill="#4eaec4" d="M 690.5,197.5 C 691.922,197.709 693.255,198.209 694.5,199C 711.702,216.035 728.702,233.201 745.5,250.5C 744.883,250.611 744.383,250.944 744,251.5C 740.833,248.333 737.667,245.167 734.5,242C 732.888,241.28 731.388,241.446 730,242.5C 727.588,240.088 725.588,238.088 724,236.5C 722.602,237.051 721.268,237.384 720,237.5C 719.383,236.551 719.549,235.718 720.5,235C 717.904,233.864 715.237,233.031 712.5,232.5C 712.881,230.058 712.214,229.391 710.5,230.5C 700.912,225.577 691.246,220.744 681.5,216C 681.833,215.667 682.167,215.333 682.5,215C 678.609,214.468 675.109,212.634 672,209.5C 671.667,209.833 671.333,210.167 671,210.5C 669.017,208.342 666.683,206.675 664,205.5C 663.667,205.833 663.333,206.167 663,206.5C 661.513,205.747 661.346,204.914 662.5,204C 654.793,201.083 646.793,199.083 638.5,198C 655.83,197.5 673.163,197.333 690.5,197.5 Z"/></g>
<g><path style="opacity:1" fill="#6b91cf" d="M 551.5,197.5 C 557.422,198.498 563.422,199.664 569.5,201C 568.692,201.308 568.025,201.808 567.5,202.5C 569.423,203.308 571.423,203.808 573.5,204C 572.167,204.333 570.833,204.667 569.5,205C 570.648,206.649 571.981,208.149 573.5,209.5C 582.234,214.852 591.9,219.352 602.5,223C 601.5,223.333 600.5,223.667 599.5,224C 602.859,224.771 606.192,225.605 609.5,226.5C 610.386,227.325 610.719,228.325 610.5,229.5C 612.854,229.838 615.187,230.338 617.5,231C 621.989,235.175 627.322,237.841 633.5,239C 632.167,239.333 630.833,239.667 629.5,240C 633.039,240.187 636.205,241.354 639,243.5C 639.333,243.167 639.667,242.833 640,242.5C 641.807,244.694 644.14,246.027 647,246.5C 648.814,245.24 650.647,245.24 652.5,246.5C 655.146,248.132 656.479,250.465 656.5,253.5C 659.829,253.264 662.829,254.097 665.5,256C 667.439,256.908 668.439,258.408 668.5,260.5C 672.142,261.08 675.809,261.58 679.5,262C 680.416,262.278 681.082,262.778 681.5,263.5C 677.5,263.5 673.5,263.5 669.5,263.5C 662.584,262.911 655.917,262.078 649.5,261C 650.167,260.333 650.833,259.667 651.5,259C 648.123,258.548 644.789,257.882 641.5,257C 642.833,256.667 644.167,256.333 645.5,256C 642.19,254.225 638.857,253.225 635.5,253C 634.833,252 634.167,251 633.5,250C 625.927,247.312 618.593,244.145 611.5,240.5C 604.523,235.178 596.857,231.178 588.5,228.5C 579.617,222.121 569.95,217.287 559.5,214C 556.797,210.981 553.464,208.981 549.5,208C 549.833,207.667 550.167,207.333 550.5,207C 545.684,205.855 541.351,203.855 537.5,201C 538.5,200.667 539.5,200.333 540.5,200C 538.616,199.784 536.949,199.117 535.5,198C 540.823,197.501 546.156,197.334 551.5,197.5 Z"/></g>
<g><path style="opacity:1" fill="#8f6bdd" d="M 405.5,198.5 C 405.583,200.57 406.583,200.903 408.5,199.5C 411.116,200.723 413.616,202.057 416,203.5C 417.049,202.483 418.216,202.316 419.5,203C 421.619,205.393 424.285,206.726 427.5,207C 426.167,207.333 424.833,207.667 423.5,208C 426.334,208.045 428.834,208.879 431,210.5C 431.414,210.043 431.914,209.709 432.5,209.5C 435.487,212.102 438.653,214.435 442,216.5C 450.93,219.965 459.43,224.132 467.5,229C 468.793,229.49 470.127,229.657 471.5,229.5C 471.5,230.5 471.5,231.5 471.5,232.5C 473.927,232.523 476.26,233.023 478.5,234C 481.424,235.978 484.424,237.811 487.5,239.5C 490.08,240.549 492.746,241.216 495.5,241.5C 495.5,242.5 495.5,243.5 495.5,244.5C 499.542,244.523 503.208,245.689 506.5,248C 514.379,252.596 522.045,257.263 529.5,262C 533.356,262.177 537.023,262.677 540.5,263.5C 533.313,263.175 526.313,263.509 519.5,264.5C 500.659,264.83 481.993,264.497 463.5,263.5C 478.837,263.667 494.17,263.5 509.5,263C 505.251,261.874 500.918,261.208 496.5,261C 497.833,260 497.833,259 496.5,258C 493.5,257.667 490.5,257.333 487.5,257C 488.833,256.667 490.167,256.333 491.5,256C 490.135,254.318 488.635,254.151 487,255.5C 482.759,252.606 478.259,250.106 473.5,248C 472.643,247.311 471.977,246.478 471.5,245.5C 458.289,241.231 446.289,234.897 435.5,226.5C 434.808,227.025 434.308,227.692 434,228.5C 431.726,227.189 429.56,227.189 427.5,228.5C 419.868,221.369 412.368,214.036 405,206.5C 402.866,203.508 403.032,200.842 405.5,198.5 Z"/></g>
<g><path style="opacity:1" fill="#9664e1" d="M 463.5,263.5 C 450.865,252.532 438.865,240.865 427.5,228.5C 429.56,227.189 431.726,227.189 434,228.5C 434.308,227.692 434.808,227.025 435.5,226.5C 446.289,234.897 458.289,241.231 471.5,245.5C 471.977,246.478 472.643,247.311 473.5,248C 478.259,250.106 482.759,252.606 487,255.5C 488.635,254.151 490.135,254.318 491.5,256C 490.167,256.333 488.833,256.667 487.5,257C 490.5,257.333 493.5,257.667 496.5,258C 497.833,259 497.833,260 496.5,261C 500.918,261.208 505.251,261.874 509.5,263C 494.17,263.5 478.837,263.667 463.5,263.5 Z"/></g>
<g><path style="opacity:1" fill="#9665e1" d="M 551.5,301.5 C 551.5,301.167 551.5,300.833 551.5,300.5C 559.5,300.5 567.5,300.5 575.5,300.5C 577.292,301.309 579.292,301.809 581.5,302C 580.5,302.333 579.5,302.667 578.5,303C 582.672,303.495 586.172,305.328 589,308.5C 589.414,308.043 589.914,307.709 590.5,307.5C 599.173,313.004 607.84,317.67 616.5,321.5C 622.113,325.132 627.78,328.465 633.5,331.5C 637.523,333.21 641.523,334.877 645.5,336.5C 645.877,338.824 646.877,339.491 648.5,338.5C 655.568,342.354 662.568,346.354 669.5,350.5C 672.732,351.949 676.065,353.116 679.5,354C 682.794,356.584 686.127,359.084 689.5,361.5C 690.478,361.023 691.311,360.357 692,359.5C 692.249,360.624 692.749,361.624 693.5,362.5C 693.677,361.053 694.677,359.719 696.5,358.5C 697.906,358.973 698.573,359.973 698.5,361.5C 696.329,363.5 693.996,365.334 691.5,367C 678.838,367.5 666.171,367.667 653.5,367.5C 655.265,366.539 657.265,366.205 659.5,366.5C 668.506,366.666 677.506,366.5 686.5,366C 682.167,365.667 677.833,365.333 673.5,365C 676.063,364.237 676.063,363.737 673.5,363.5C 672.558,363.608 671.725,363.941 671,364.5C 668.459,361.656 665.626,359.156 662.5,357C 658.591,356.537 655.591,355.204 653.5,353C 651.645,352.578 649.811,352.078 648,351.5C 645.249,349.639 642.583,347.639 640,345.5C 639.667,345.833 639.333,346.167 639,346.5C 634.095,343.327 629.262,340.16 624.5,337C 622.19,336.503 619.857,336.337 617.5,336.5C 617.883,333.538 616.883,332.538 614.5,333.5C 612.5,332.167 610.5,330.833 608.5,329.5C 607.914,329.709 607.414,330.043 607,330.5C 606.077,329.241 605.243,327.908 604.5,326.5C 603.833,326.833 603.167,327.167 602.5,327.5C 588.047,318.633 573.381,310.966 558.5,304.5C 559.376,303.749 560.376,303.249 561.5,303C 558.207,302.174 554.874,301.674 551.5,301.5 Z"/></g>
<g><path style="opacity:1" fill="#ad4eec" d="M 463.5,300.5 C 477.833,300.5 492.167,300.5 506.5,300.5C 499.649,301.33 492.649,302.163 485.5,303C 488.229,303.005 490.229,304.171 491.5,306.5C 500.169,311.998 509.502,316.165 519.5,319C 518.5,319.333 517.5,319.667 516.5,320C 521.836,321.005 526.503,323.338 530.5,327C 534.57,328.024 537.904,330.024 540.5,333C 546.475,335.285 552.475,337.618 558.5,340C 559.5,341 560.5,342 561.5,343C 560.833,343.333 560.167,343.667 559.5,344C 561.527,344.498 563.527,344.331 565.5,343.5C 570.233,348.203 575.899,351.37 582.5,353C 585.626,355.402 588.96,357.569 592.5,359.5C 597.938,361.74 603.271,364.073 608.5,366.5C 601.833,366.5 595.167,366.5 588.5,366.5C 582.171,366.013 575.837,364.846 569.5,363C 570.833,362.333 570.833,361.667 569.5,361C 566.123,360.548 562.789,359.882 559.5,359C 557.845,357.556 557.178,355.722 557.5,353.5C 551.77,352.691 546.437,351.024 541.5,348.5C 541.5,347.5 541.5,346.5 541.5,345.5C 533.244,343.206 525.577,339.54 518.5,334.5C 516.116,333.988 513.783,333.321 511.5,332.5C 510.614,331.675 510.281,330.675 510.5,329.5C 506.467,328.327 502.467,326.827 498.5,325C 497.78,322.878 496.613,322.378 495,323.5C 493.08,321.57 490.913,319.904 488.5,318.5C 487.914,318.709 487.414,319.043 487,319.5C 486.492,317.096 485.325,316.429 483.5,317.5C 478.631,314.903 473.964,312.07 469.5,309C 465.512,308.718 461.679,307.885 458,306.5C 457.329,307.252 456.496,307.586 455.5,307.5C 457.955,304.923 460.622,302.589 463.5,300.5 Z"/></g>
<g><path style="opacity:1" fill="#a755e8" d="M 506.5,300.5 C 513.5,300.5 520.5,300.5 527.5,300.5C 524.014,301.533 520.347,302.367 516.5,303C 519.521,303.849 522.521,304.683 525.5,305.5C 525.656,309.135 526.822,309.468 529,306.5C 529.617,307.449 529.451,308.282 528.5,309C 529.646,309.645 530.646,310.478 531.5,311.5C 532.324,309.252 533.324,309.086 534.5,311C 534.167,311.333 533.833,311.667 533.5,312C 534.549,312.492 535.549,312.326 536.5,311.5C 537.251,312.376 537.751,313.376 538,314.5C 539.507,313.465 541.007,313.632 542.5,315C 541.66,316.666 542.16,316.833 544,315.5C 547.72,316.725 550.22,319.059 551.5,322.5C 552.93,322.579 554.264,322.246 555.5,321.5C 557.271,322.035 557.604,322.869 556.5,324C 557.448,324.483 558.448,324.649 559.5,324.5C 559.5,325.833 559.5,327.167 559.5,328.5C 560.5,328.5 561.5,328.5 562.5,328.5C 562.5,329.5 562.5,330.5 562.5,331.5C 565.647,331.737 568.647,332.57 571.5,334C 578.544,336.938 585.044,340.771 591,345.5C 591.333,345.167 591.667,344.833 592,344.5C 594.707,346.936 597.873,348.436 601.5,349C 602.167,350 602.833,351 603.5,352C 607.603,353.926 611.937,355.593 616.5,357C 619.833,359.333 623.167,361.667 626.5,364C 629.753,365.036 633.086,365.703 636.5,366C 627.173,366.5 617.839,366.666 608.5,366.5C 603.271,364.073 597.938,361.74 592.5,359.5C 588.96,357.569 585.626,355.402 582.5,353C 575.899,351.37 570.233,348.203 565.5,343.5C 563.527,344.331 561.527,344.498 559.5,344C 560.167,343.667 560.833,343.333 561.5,343C 560.5,342 559.5,341 558.5,340C 552.475,337.618 546.475,335.285 540.5,333C 537.904,330.024 534.57,328.024 530.5,327C 526.503,323.338 521.836,321.005 516.5,320C 517.5,319.667 518.5,319.333 519.5,319C 509.502,316.165 500.169,311.998 491.5,306.5C 490.229,304.171 488.229,303.005 485.5,303C 492.649,302.163 499.649,301.33 506.5,300.5 Z"/></g>
<g><path style="opacity:1" fill="#9f5be5" d="M 527.5,300.5 C 535.5,300.5 543.5,300.5 551.5,300.5C 551.5,300.833 551.5,301.167 551.5,301.5C 547.103,301.425 542.77,301.925 538.5,303C 543.665,303.492 548.165,305.325 552,308.5C 552.333,308.167 552.667,307.833 553,307.5C 559.556,312.403 566.723,316.236 574.5,319C 574.167,319.333 573.833,319.667 573.5,320C 579.018,322.925 584.685,325.592 590.5,328C 591.793,328.49 593.127,328.657 594.5,328.5C 594.633,331.896 595.633,332.229 597.5,329.5C 597.402,330.616 597.902,331.616 599,332.5C 604.925,335.917 611.091,338.75 617.5,341C 618.337,342.011 618.67,343.178 618.5,344.5C 625.988,345.65 632.655,348.65 638.5,353.5C 639.086,353.291 639.586,352.957 640,352.5C 646.392,357.036 653.226,360.869 660.5,364C 659.748,364.671 659.414,365.504 659.5,366.5C 657.265,366.205 655.265,366.539 653.5,367.5C 620.167,367.5 586.833,367.5 553.5,367.5C 555.265,366.539 557.265,366.205 559.5,366.5C 569.167,366.5 578.833,366.5 588.5,366.5C 595.167,366.5 601.833,366.5 608.5,366.5C 617.839,366.666 627.173,366.5 636.5,366C 633.086,365.703 629.753,365.036 626.5,364C 623.167,361.667 619.833,359.333 616.5,357C 611.937,355.593 607.603,353.926 603.5,352C 602.833,351 602.167,350 601.5,349C 597.873,348.436 594.707,346.936 592,344.5C 591.667,344.833 591.333,345.167 591,345.5C 585.044,340.771 578.544,336.938 571.5,334C 568.647,332.57 565.647,331.737 562.5,331.5C 562.5,330.5 562.5,329.5 562.5,328.5C 561.5,328.5 560.5,328.5 559.5,328.5C 559.5,327.167 559.5,325.833 559.5,324.5C 558.448,324.649 557.448,324.483 556.5,324C 557.604,322.869 557.271,322.035 555.5,321.5C 554.264,322.246 552.93,322.579 551.5,322.5C 550.22,319.059 547.72,316.725 544,315.5C 542.16,316.833 541.66,316.666 542.5,315C 541.007,313.632 539.507,313.465 538,314.5C 537.751,313.376 537.251,312.376 536.5,311.5C 535.549,312.326 534.549,312.492 533.5,312C 533.833,311.667 534.167,311.333 534.5,311C 533.324,309.086 532.324,309.252 531.5,311.5C 530.646,310.478 529.646,309.645 528.5,309C 529.451,308.282 529.617,307.449 529,306.5C 526.822,309.468 525.656,309.135 525.5,305.5C 522.521,304.683 519.521,303.849 516.5,303C 520.347,302.367 524.014,301.533 527.5,300.5 Z"/></g>
<g><path style="opacity:1" fill="#9a61e3" d="M 551.5,301.5 C 554.874,301.674 558.207,302.174 561.5,303C 560.376,303.249 559.376,303.749 558.5,304.5C 573.381,310.966 588.047,318.633 602.5,327.5C 603.167,327.167 603.833,326.833 604.5,326.5C 605.243,327.908 606.077,329.241 607,330.5C 607.414,330.043 607.914,329.709 608.5,329.5C 610.5,330.833 612.5,332.167 614.5,333.5C 616.883,332.538 617.883,333.538 617.5,336.5C 619.857,336.337 622.19,336.503 624.5,337C 629.262,340.16 634.095,343.327 639,346.5C 639.333,346.167 639.667,345.833 640,345.5C 642.583,347.639 645.249,349.639 648,351.5C 649.811,352.078 651.645,352.578 653.5,353C 655.591,355.204 658.591,356.537 662.5,357C 665.626,359.156 668.459,361.656 671,364.5C 671.725,363.941 672.558,363.608 673.5,363.5C 676.063,363.737 676.063,364.237 673.5,365C 677.833,365.333 682.167,365.667 686.5,366C 677.506,366.5 668.506,366.666 659.5,366.5C 659.414,365.504 659.748,364.671 660.5,364C 653.226,360.869 646.392,357.036 640,352.5C 639.586,352.957 639.086,353.291 638.5,353.5C 632.655,348.65 625.988,345.65 618.5,344.5C 618.67,343.178 618.337,342.011 617.5,341C 611.091,338.75 604.925,335.917 599,332.5C 597.902,331.616 597.402,330.616 597.5,329.5C 595.633,332.229 594.633,331.896 594.5,328.5C 593.127,328.657 591.793,328.49 590.5,328C 584.685,325.592 579.018,322.925 573.5,320C 573.833,319.667 574.167,319.333 574.5,319C 566.723,316.236 559.556,312.403 553,307.5C 552.667,307.833 552.333,308.167 552,308.5C 548.165,305.325 543.665,303.492 538.5,303C 542.77,301.925 547.103,301.425 551.5,301.5 Z"/></g>
<g><path style="opacity:1" fill="#926be0" d="M 575.5,300.5 C 584.167,300.5 592.833,300.5 601.5,300.5C 601.167,301.167 600.833,301.833 600.5,302.5C 598.143,302.337 595.81,302.503 593.5,303C 595.848,303.346 597.681,304.513 599,306.5C 601.292,305.399 602.792,306.232 603.5,309C 611.921,312.246 619.921,316.246 627.5,321C 631.674,321.938 635.341,323.938 638.5,327C 644.532,328.893 650.032,331.726 655,335.5C 655.333,335.167 655.667,334.833 656,334.5C 657.098,335.967 658.598,336.801 660.5,337C 661.211,338.255 662.044,339.421 663,340.5C 666.075,340.368 668.742,341.701 671,344.5C 671.333,344.167 671.667,343.833 672,343.5C 678.506,346.839 685.006,350.339 691.5,354C 693.398,355.417 695.064,356.917 696.5,358.5C 694.677,359.719 693.677,361.053 693.5,362.5C 692.749,361.624 692.249,360.624 692,359.5C 691.311,360.357 690.478,361.023 689.5,361.5C 686.127,359.084 682.794,356.584 679.5,354C 676.065,353.116 672.732,351.949 669.5,350.5C 662.568,346.354 655.568,342.354 648.5,338.5C 646.877,339.491 645.877,338.824 645.5,336.5C 641.523,334.877 637.523,333.21 633.5,331.5C 627.78,328.465 622.113,325.132 616.5,321.5C 607.84,317.67 599.173,313.004 590.5,307.5C 589.914,307.709 589.414,308.043 589,308.5C 586.172,305.328 582.672,303.495 578.5,303C 579.5,302.667 580.5,302.333 581.5,302C 579.292,301.809 577.292,301.309 575.5,300.5 Z"/></g>
<g><path style="opacity:1" fill="#8d6edd" d="M 600.5,302.5 C 603.187,302.336 605.854,302.503 608.5,303C 613.779,304.432 618.612,306.599 623,309.5C 623.333,309.167 623.667,308.833 624,308.5C 624.684,310.359 625.684,312.026 627,313.5C 627.667,312.833 628.333,312.167 629,311.5C 630.438,312.9 631.271,314.567 631.5,316.5C 633.199,316.34 634.866,316.506 636.5,317C 640.685,318.667 644.685,320.833 648.5,323.5C 650.5,324 652.5,324.5 654.5,325C 660.018,328.527 665.518,332.027 671,335.5C 673.135,336.127 675.302,336.627 677.5,337C 680.025,339.418 682.692,341.584 685.5,343.5C 686.258,342.189 687.258,341.689 688.5,342C 688.167,342.333 687.833,342.667 687.5,343C 691.225,346.41 695.559,348.41 700.5,349C 701.5,349.833 702.5,350.667 703.5,351.5C 702.391,353.214 703.058,353.881 705.5,353.5C 703.167,356.167 700.833,358.833 698.5,361.5C 698.573,359.973 697.906,358.973 696.5,358.5C 695.064,356.917 693.398,355.417 691.5,354C 685.006,350.339 678.506,346.839 672,343.5C 671.667,343.833 671.333,344.167 671,344.5C 668.742,341.701 666.075,340.368 663,340.5C 662.044,339.421 661.211,338.255 660.5,337C 658.598,336.801 657.098,335.967 656,334.5C 655.667,334.833 655.333,335.167 655,335.5C 650.032,331.726 644.532,328.893 638.5,327C 635.341,323.938 631.674,321.938 627.5,321C 619.921,316.246 611.921,312.246 603.5,309C 602.792,306.232 601.292,305.399 599,306.5C 597.681,304.513 595.848,303.346 593.5,303C 595.81,302.503 598.143,302.337 600.5,302.5 Z"/></g>
<g><path style="opacity:1" fill="#8873dc" d="M 601.5,300.5 C 612.073,300.22 622.573,300.887 633,302.5C 637.922,304.799 642.588,307.466 647,310.5C 648.073,309.72 649.24,309.887 650.5,311C 648.099,311.805 648.266,312.638 651,313.5C 653.09,312.209 654.424,312.876 655,315.5C 656.049,314.483 657.216,314.316 658.5,315C 674.696,324.518 691.362,333.185 708.5,341C 711.167,342.333 711.167,343.667 708.5,345C 709.448,345.483 710.448,345.649 711.5,345.5C 711.5,346.5 711.5,347.5 711.5,348.5C 709.5,350.167 707.5,351.833 705.5,353.5C 703.058,353.881 702.391,353.214 703.5,351.5C 702.5,350.667 701.5,349.833 700.5,349C 695.559,348.41 691.225,346.41 687.5,343C 687.833,342.667 688.167,342.333 688.5,342C 687.258,341.689 686.258,342.189 685.5,343.5C 682.692,341.584 680.025,339.418 677.5,337C 675.302,336.627 673.135,336.127 671,335.5C 665.518,332.027 660.018,328.527 654.5,325C 652.5,324.5 650.5,324 648.5,323.5C 644.685,320.833 640.685,318.667 636.5,317C 634.866,316.506 633.199,316.34 631.5,316.5C 631.271,314.567 630.438,312.9 629,311.5C 628.333,312.167 627.667,312.833 627,313.5C 625.684,312.026 624.684,310.359 624,308.5C 623.667,308.833 623.333,309.167 623,309.5C 618.612,306.599 613.779,304.432 608.5,303C 605.854,302.503 603.187,302.336 600.5,302.5C 600.833,301.833 601.167,301.167 601.5,300.5 Z"/></g>
<g><path style="opacity:1" fill="#7c80d7" d="M 651.5,300.5 C 664.5,300.5 677.5,300.5 690.5,300.5C 688.708,301.309 686.708,301.809 684.5,302C 688.051,304.028 691.551,306.195 695,308.5C 695.805,306.099 696.638,306.266 697.5,309C 707.717,314.608 718.05,319.941 728.5,325C 728.167,325.333 727.833,325.667 727.5,326C 729.426,326.422 730.426,327.589 730.5,329.5C 727.5,332.167 724.5,334.833 721.5,337.5C 721.719,336.325 721.386,335.325 720.5,334.5C 712.682,331.426 705.348,327.592 698.5,323C 695.21,322.747 692.21,321.747 689.5,320C 690.167,319.667 690.833,319.333 691.5,319C 690.101,318.405 688.768,318.572 687.5,319.5C 685.292,317.526 682.959,315.693 680.5,314C 674.152,310.997 667.818,307.997 661.5,305C 660.953,304.075 660.287,303.242 659.5,302.5C 656.689,301.92 654.023,301.254 651.5,300.5 Z"/></g>
<g><path style="opacity:1" fill="#6a85c5" d="M 636.5,299.5 C 673.835,299.333 711.168,299.5 748.5,300C 751.689,301.544 752.855,304.044 752,307.5C 747.745,311.719 743.579,316.052 739.5,320.5C 739.297,318.956 738.63,317.622 737.5,316.5C 733.943,315.108 730.777,313.108 728,310.5C 722.669,309.012 717.836,306.678 713.5,303.5C 710.215,302.676 706.882,302.176 703.5,302C 708.167,301.667 712.833,301.333 717.5,301C 708.506,300.5 699.506,300.334 690.5,300.5C 677.5,300.5 664.5,300.5 651.5,300.5C 646.305,300.821 641.305,300.487 636.5,299.5 Z"/></g>
<g><path style="opacity:1" fill="#b447ee" d="M 588.5,366.5 C 578.833,366.5 569.167,366.5 559.5,366.5C 556.038,365.518 552.371,365.185 548.5,365.5C 548.67,364.178 548.337,363.011 547.5,362C 539.906,357.478 531.906,353.812 523.5,351C 524.833,350.333 524.833,349.667 523.5,349C 520.124,349.184 517.457,348.017 515.5,345.5C 494.704,335.518 474.204,324.851 454,313.5C 452.658,316.669 450.492,317.335 447.5,315.5C 450.167,312.833 452.833,310.167 455.5,307.5C 456.496,307.586 457.329,307.252 458,306.5C 461.679,307.885 465.512,308.718 469.5,309C 473.964,312.07 478.631,314.903 483.5,317.5C 485.325,316.429 486.492,317.096 487,319.5C 487.414,319.043 487.914,318.709 488.5,318.5C 490.913,319.904 493.08,321.57 495,323.5C 496.613,322.378 497.78,322.878 498.5,325C 502.467,326.827 506.467,328.327 510.5,329.5C 510.281,330.675 510.614,331.675 511.5,332.5C 513.783,333.321 516.116,333.988 518.5,334.5C 525.577,339.54 533.244,343.206 541.5,345.5C 541.5,346.5 541.5,347.5 541.5,348.5C 546.437,351.024 551.77,352.691 557.5,353.5C 557.178,355.722 557.845,357.556 559.5,359C 562.789,359.882 566.123,360.548 569.5,361C 570.833,361.667 570.833,362.333 569.5,363C 575.837,364.846 582.171,366.013 588.5,366.5 Z"/></g>
<g><path style="opacity:1" fill="#7785d4" d="M 690.5,300.5 C 699.506,300.334 708.506,300.5 717.5,301C 712.833,301.333 708.167,301.667 703.5,302C 706.882,302.176 710.215,302.676 713.5,303.5C 717.836,306.678 722.669,309.012 728,310.5C 730.777,313.108 733.943,315.108 737.5,316.5C 738.63,317.622 739.297,318.956 739.5,320.5C 736.736,323.719 733.736,326.719 730.5,329.5C 730.426,327.589 729.426,326.422 727.5,326C 727.833,325.667 728.167,325.333 728.5,325C 718.05,319.941 707.717,314.608 697.5,309C 696.638,306.266 695.805,306.099 695,308.5C 691.551,306.195 688.051,304.028 684.5,302C 686.708,301.809 688.708,301.309 690.5,300.5 Z"/></g>
<g><path style="opacity:1" fill="#8073d1" d="M 463.5,300.5 C 520.998,299.501 578.664,299.168 636.5,299.5C 641.305,300.487 646.305,300.821 651.5,300.5C 654.023,301.254 656.689,301.92 659.5,302.5C 660.287,303.242 660.953,304.075 661.5,305C 667.818,307.997 674.152,310.997 680.5,314C 682.959,315.693 685.292,317.526 687.5,319.5C 688.768,318.572 690.101,318.405 691.5,319C 690.833,319.333 690.167,319.667 689.5,320C 692.21,321.747 695.21,322.747 698.5,323C 705.348,327.592 712.682,331.426 720.5,334.5C 721.386,335.325 721.719,336.325 721.5,337.5C 718.508,341.492 715.174,345.158 711.5,348.5C 711.5,347.5 711.5,346.5 711.5,345.5C 710.448,345.649 709.448,345.483 708.5,345C 711.167,343.667 711.167,342.333 708.5,341C 691.362,333.185 674.696,324.518 658.5,315C 657.216,314.316 656.049,314.483 655,315.5C 654.424,312.876 653.09,312.209 651,313.5C 648.266,312.638 648.099,311.805 650.5,311C 649.24,309.887 648.073,309.72 647,310.5C 642.588,307.466 637.922,304.799 633,302.5C 622.573,300.887 612.073,300.22 601.5,300.5C 592.833,300.5 584.167,300.5 575.5,300.5C 567.5,300.5 559.5,300.5 551.5,300.5C 543.5,300.5 535.5,300.5 527.5,300.5C 520.5,300.5 513.5,300.5 506.5,300.5C 492.167,300.5 477.833,300.5 463.5,300.5 Z"/></g>
<g><path style="opacity:1" fill="#b83fed" d="M 559.5,366.5 C 557.265,366.205 555.265,366.539 553.5,367.5C 503.997,367.832 454.664,367.499 405.5,366.5C 432.833,366.5 460.167,366.5 487.5,366.5C 504.17,366.667 520.837,366.5 537.5,366C 533.5,365.667 529.5,365.333 525.5,365C 521.253,361.945 516.586,360.112 511.5,359.5C 511.5,358.5 511.5,357.5 511.5,356.5C 506.138,355.271 501.138,353.271 496.5,350.5C 495.614,349.675 495.281,348.675 495.5,347.5C 490.433,346.317 485.433,344.817 480.5,343C 480.833,342.667 481.167,342.333 481.5,342C 477.939,340.541 474.939,338.375 472.5,335.5C 469.469,336.493 467.136,335.493 465.5,332.5C 460.69,332.18 456.857,330.18 454,326.5C 453.586,326.957 453.086,327.291 452.5,327.5C 449.734,326.075 446.901,324.742 444,323.5C 442.013,324.154 440.68,325.487 440,327.5C 439.667,326.833 439.333,326.167 439,325.5C 438.184,326.823 437.017,327.489 435.5,327.5C 439.586,323.483 443.586,319.483 447.5,315.5C 450.492,317.335 452.658,316.669 454,313.5C 474.204,324.851 494.704,335.518 515.5,345.5C 517.457,348.017 520.124,349.184 523.5,349C 524.833,349.667 524.833,350.333 523.5,351C 531.906,353.812 539.906,357.478 547.5,362C 548.337,363.011 548.67,364.178 548.5,365.5C 552.371,365.185 556.038,365.518 559.5,366.5 Z"/></g>
<g><path style="opacity:1" fill="#c436f4" d="M 487.5,366.5 C 478.308,365.778 468.974,364.945 459.5,364C 460.167,363.667 460.833,363.333 461.5,363C 459.563,361.443 456.897,360.276 453.5,359.5C 452.833,359.833 452.167,360.167 451.5,360.5C 453.078,361.298 454.744,361.798 456.5,362C 456.167,362.333 455.833,362.667 455.5,363C 456.672,363.419 457.672,364.085 458.5,365C 453.993,364.664 450.159,362.83 447,359.5C 446.667,359.833 446.333,360.167 446,360.5C 441.466,359.168 441.633,358.168 446.5,357.5C 446.5,356.5 446.5,355.5 446.5,354.5C 442.142,352.415 437.809,350.748 433.5,349.5C 432.833,349.833 432.167,350.167 431.5,350.5C 435.166,351.329 438.166,353.162 440.5,356C 439.167,356.667 437.833,356.667 436.5,356C 435.167,355.333 435.167,354.667 436.5,354C 434.729,351.887 433.229,352.053 432,354.5C 430.464,351.968 428.298,350.134 425.5,349C 427.577,348.808 429.577,348.308 431.5,347.5C 428.914,346.291 426.414,344.957 424,343.5C 421.185,344.935 418.351,346.268 415.5,347.5C 421.86,340.473 428.527,333.806 435.5,327.5C 437.017,327.489 438.184,326.823 439,325.5C 439.333,326.167 439.667,326.833 440,327.5C 440.68,325.487 442.013,324.154 444,323.5C 446.901,324.742 449.734,326.075 452.5,327.5C 453.086,327.291 453.586,326.957 454,326.5C 456.857,330.18 460.69,332.18 465.5,332.5C 467.136,335.493 469.469,336.493 472.5,335.5C 474.939,338.375 477.939,340.541 481.5,342C 481.167,342.333 480.833,342.667 480.5,343C 485.433,344.817 490.433,346.317 495.5,347.5C 495.281,348.675 495.614,349.675 496.5,350.5C 501.138,353.271 506.138,355.271 511.5,356.5C 511.5,357.5 511.5,358.5 511.5,359.5C 516.586,360.112 521.253,361.945 525.5,365C 529.5,365.333 533.5,365.667 537.5,366C 520.837,366.5 504.17,366.667 487.5,366.5 Z"/></g>
<g><path style="opacity:1" fill="#d229fa" d="M 487.5,366.5 C 460.167,366.5 432.833,366.5 405.5,366.5C 403.609,364.164 403.109,361.498 404,358.5C 407.702,354.63 411.536,350.963 415.5,347.5C 418.351,346.268 421.185,344.935 424,343.5C 426.414,344.957 428.914,346.291 431.5,347.5C 429.577,348.308 427.577,348.808 425.5,349C 428.298,350.134 430.464,351.968 432,354.5C 433.229,352.053 434.729,351.887 436.5,354C 435.167,354.667 435.167,355.333 436.5,356C 437.833,356.667 439.167,356.667 440.5,356C 438.166,353.162 435.166,351.329 431.5,350.5C 432.167,350.167 432.833,349.833 433.5,349.5C 437.809,350.748 442.142,352.415 446.5,354.5C 446.5,355.5 446.5,356.5 446.5,357.5C 441.633,358.168 441.466,359.168 446,360.5C 446.333,360.167 446.667,359.833 447,359.5C 450.159,362.83 453.993,364.664 458.5,365C 457.672,364.085 456.672,363.419 455.5,363C 455.833,362.667 456.167,362.333 456.5,362C 454.744,361.798 453.078,361.298 451.5,360.5C 452.167,360.167 452.833,359.833 453.5,359.5C 456.897,360.276 459.563,361.443 461.5,363C 460.833,363.333 460.167,363.667 459.5,364C 468.974,364.945 478.308,365.778 487.5,366.5 Z"/></g>
<g><path style="opacity:1" fill="#f1f1f1" d="M 439.5,494.5 C 428.5,494.5 417.5,494.5 406.5,494.5C 406.5,493.5 406.5,492.5 406.5,491.5C 408.63,489.873 410.63,488.04 412.5,486C 421.167,485.667 429.833,485.333 438.5,485C 442.065,482.822 442.399,480.156 439.5,477C 429.774,476.892 420.107,476.225 410.5,475C 403.438,469.652 401.605,462.819 405,454.5C 406.873,452.291 409.04,450.458 411.5,449C 423.829,448.5 436.162,448.333 448.5,448.5C 446.828,451.692 444.495,454.525 441.5,457C 432.5,457.333 423.5,457.667 414.5,458C 411.689,461.294 412.022,464.294 415.5,467C 424.167,467.333 432.833,467.667 441.5,468C 450.474,472.298 452.974,479.132 449,488.5C 446.49,491.665 443.324,493.665 439.5,494.5 Z"/></g>
<g><path style="opacity:1" fill="#f4f4f4" d="M 465.5,489.5 C 465.333,477.495 465.5,465.495 466,453.5C 467.039,452.756 467.539,451.756 467.5,450.5C 467.611,449.883 467.944,449.383 468.5,449C 481.5,448.333 494.5,448.333 507.5,449C 509.09,450.046 510.59,451.213 512,452.5C 512.667,464.833 512.667,477.167 512,489.5C 510.833,492 509,493.833 506.5,495C 494.167,495.667 481.833,495.667 469.5,495C 467.536,493.549 466.203,491.716 465.5,489.5 Z"/></g>
<g><path style="opacity:1" fill="#ededed" d="M 526.5,448.5 C 529.5,448.5 532.5,448.5 535.5,448.5C 535.333,461.171 535.5,473.838 536,486.5C 547.085,487.487 558.252,487.821 569.5,487.5C 568.134,490.064 566.467,492.564 564.5,495C 552.167,495.667 539.833,495.667 527.5,495C 526.509,479.578 526.176,464.078 526.5,448.5 Z"/></g>
<g><path style="opacity:1" fill="#f3f3f3" d="M 626.5,451.5 C 627.466,465.785 627.8,480.118 627.5,494.5C 625.167,494.5 622.833,494.5 620.5,494.5C 619.511,489.025 619.178,483.358 619.5,477.5C 609.833,477.5 600.167,477.5 590.5,477.5C 590.666,483.176 590.499,488.843 590,494.5C 587.281,495.444 584.448,495.777 581.5,495.5C 581.333,481.163 581.5,466.829 582,452.5C 583.167,451.333 584.333,450.167 585.5,449C 598.167,448.333 610.833,448.333 623.5,449C 624.373,450.045 625.373,450.878 626.5,451.5 Z"/></g>
<g><path style="opacity:1" fill="#efefef" d="M 650.5,494.5 C 648.167,494.5 645.833,494.5 643.5,494.5C 643.5,479.5 643.5,464.5 643.5,449.5C 646.5,449.5 649.5,449.5 652.5,449.5C 661.104,460.109 670.104,470.443 679.5,480.5C 680.499,469.854 680.832,459.187 680.5,448.5C 683.833,448.5 687.167,448.5 690.5,448.5C 690.824,464.078 690.491,479.578 689.5,495C 686.446,495.821 683.446,495.655 680.5,494.5C 672.855,485.02 665.021,475.687 657,466.5C 655.736,464.393 653.903,463.393 651.5,463.5C 651.828,474.014 651.494,484.347 650.5,494.5 Z"/></g>
<g><path style="opacity:1" fill="#ededed" d="M 750.5,452.5 C 751.429,466.471 751.762,480.471 751.5,494.5C 748.77,495.817 745.937,495.817 743,494.5C 742.501,488.843 742.334,483.176 742.5,477.5C 732.833,477.5 723.167,477.5 713.5,477.5C 713.666,483.176 713.499,488.843 713,494.5C 710,495.833 707,495.833 704,494.5C 703.333,480.833 703.333,467.167 704,453.5C 705.353,452.315 706.52,450.981 707.5,449.5C 720.454,448.353 733.454,448.186 746.5,449C 748.324,449.66 749.657,450.827 750.5,452.5 Z"/></g>
<g><path style="opacity:1" fill="#bebebe" d="M 652.5,449.5 C 649.5,449.5 646.5,449.5 643.5,449.5C 643.5,464.5 643.5,479.5 643.5,494.5C 645.833,494.5 648.167,494.5 650.5,494.5C 648.052,495.473 645.385,495.806 642.5,495.5C 642.5,479.833 642.5,464.167 642.5,448.5C 646.042,448.187 649.375,448.521 652.5,449.5 Z"/></g>
<g><path style="opacity:1" fill="#bababa" d="M 467.5,450.5 C 467.539,451.756 467.039,452.756 466,453.5C 465.5,465.495 465.333,477.495 465.5,489.5C 464.34,477.34 464.173,465.007 465,452.5C 465.708,451.619 466.542,450.953 467.5,450.5 Z"/></g>
<g><path style="opacity:1" fill="#bbbbbb" d="M 626.5,451.5 C 627.117,451.611 627.617,451.944 628,452.5C 628.5,466.829 628.667,481.163 628.5,495.5C 625.615,495.806 622.948,495.473 620.5,494.5C 622.833,494.5 625.167,494.5 627.5,494.5C 627.8,480.118 627.466,465.785 626.5,451.5 Z"/></g>
<g><path style="opacity:1" fill="#181818" d="M 500.5,485.5 C 492.112,485.773 483.779,485.44 475.5,484.5C 475.217,483.711 474.717,483.044 474,482.5C 473.333,474.833 473.333,467.167 474,459.5C 474.833,458.667 475.667,457.833 476.5,457C 484.5,456.333 492.5,456.333 500.5,457C 501.333,457.833 502.167,458.667 503,459.5C 503.667,467.167 503.667,474.833 503,482.5C 502.302,483.691 501.469,484.691 500.5,485.5 Z"/></g>
<g><path style="opacity:1" fill="#1a1a1a" d="M 618.5,458.5 C 618.5,462.167 618.5,465.833 618.5,469.5C 609.167,469.5 599.833,469.5 590.5,469.5C 590.335,465.818 590.501,462.152 591,458.5C 591.833,457.667 592.667,456.833 593.5,456C 601.167,455.333 608.833,455.333 616.5,456C 617.381,456.708 618.047,457.542 618.5,458.5 Z"/></g>
<g><path style="opacity:1" fill="#202020" d="M 716.5,455.5 C 724.174,455.334 731.841,455.5 739.5,456C 740.333,456.833 741.167,457.667 742,458.5C 742.499,462.486 742.666,466.486 742.5,470.5C 732.833,470.5 723.167,470.5 713.5,470.5C 713.334,466.154 713.501,461.821 714,457.5C 714.995,456.934 715.828,456.267 716.5,455.5 Z"/></g>
<g><path style="opacity:1" fill="#a4a4a4" d="M 750.5,452.5 C 751.222,452.918 751.722,453.584 752,454.5C 752.827,468.006 752.66,481.34 751.5,494.5C 751.762,480.471 751.429,466.471 750.5,452.5 Z"/></g>
<g><path style="opacity:1" fill="#6e6e6e" d="M 618.5,458.5 C 619.483,462.298 619.817,466.298 619.5,470.5C 609.652,470.827 599.986,470.494 590.5,469.5C 599.833,469.5 609.167,469.5 618.5,469.5C 618.5,465.833 618.5,462.167 618.5,458.5 Z"/></g>
<g><path style="opacity:1" fill="#868686" d="M 475.5,484.5 C 483.779,485.44 492.112,485.773 500.5,485.5C 492.677,486.656 484.677,486.823 476.5,486C 475.944,485.617 475.611,485.117 475.5,484.5 Z"/></g>
<g><path style="opacity:1" fill="#a1a1a1" d="M 406.5,491.5 C 406.5,492.5 406.5,493.5 406.5,494.5C 417.5,494.5 428.5,494.5 439.5,494.5C 428.341,495.659 417.008,495.826 405.5,495C 404.2,493.421 404.534,492.255 406.5,491.5 Z"/></g>
</svg>
