<?xml version="1.0" encoding="UTF-8"?>
<!DOCTYPE svg PUBLIC "-//W3C//DTD SVG 1.1//EN" "http://www.w3.org/Graphics/SVG/1.1/DTD/svg11.dtd">
<svg xmlns="http://www.w3.org/2000/svg" version="1.1" viewBox="0 0 44 30" style="shape-rendering:geometricPrecision; text-rendering:geometricPrecision; image-rendering:optimizeQuality; fill-rule:evenodd; clip-rule:evenodd" xmlns:xlink="http://www.w3.org/1999/xlink">
<g><path style="opacity:1" fill="#e31f21" d="M -0.5,-0.5 C 15.5,-0.5 31.5,-0.5 47.5,-0.5C 47.5,10.1667 47.5,20.8333 47.5,31.5C 31.5,31.5 15.5,31.5 -0.5,31.5C -0.5,20.8333 -0.5,10.1667 -0.5,-0.5 Z"/></g>
<g><path style="opacity:1" fill="#761012" d="M 25.5,6.5 C 27.6638,6.16101 29.8305,6.16101 32,6.5C 32.4988,10.4862 32.6655,14.4862 32.5,18.5C 27.1667,18.8333 27.1667,19.1667 32.5,19.5C 32.9354,22.6127 31.9354,23.2793 29.5,21.5C 27.8349,22.8229 26.1683,24.1562 24.5,25.5C 25.2483,23.4159 25.2483,21.4159 24.5,19.5C 25.3554,18.707 26.1887,19.0403 27,20.5C 27.5074,19.0039 27.0074,17.8373 25.5,17C 29.2435,15.2486 30.2435,12.4153 28.5,8.5C 25.1475,10.9762 24.8141,10.4762 27.5,7C 26.9056,6.53566 26.2389,6.36899 25.5,6.5 Z"/></g>
<g><path style="opacity:1" fill="#130201" d="M 21.5,6.5 C 22.1515,7.09065 22.8182,7.75731 23.5,8.5C 24.1818,7.75731 24.8485,7.09065 25.5,6.5C 26.2389,6.36899 26.9056,6.53566 27.5,7C 24.8141,10.4762 25.1475,10.9762 28.5,8.5C 30.2435,12.4153 29.2435,15.2486 25.5,17C 27.0074,17.8373 27.5074,19.0039 27,20.5C 26.1887,19.0403 25.3554,18.707 24.5,19.5C 25.2483,21.4159 25.2483,23.4159 24.5,25.5C 23.3774,26.7574 22.7107,26.4241 22.5,24.5C 21.4647,22.795 21.4647,21.1284 22.5,19.5C 21.643,18.6002 20.9763,18.9336 20.5,20.5C 20.1667,20.5 19.8333,20.5 19.5,20.5C 19.5106,18.9826 20.1772,17.8159 21.5,17C 20.2068,16.51 18.8734,16.3433 17.5,16.5C 17.1866,13.7531 17.52,11.0865 18.5,8.5C 21.8525,10.9762 22.1859,10.4762 19.5,7C 20.0944,6.53566 20.7611,6.36899 21.5,6.5 Z"/></g>
<g><path style="opacity:1" fill="#761012" d="M 21.5,6.5 C 20.7611,6.36899 20.0944,6.53566 19.5,7C 22.1859,10.4762 21.8525,10.9762 18.5,8.5C 17.52,11.0865 17.1866,13.7531 17.5,16.5C 18.8734,16.3433 20.2068,16.51 21.5,17C 20.1772,17.8159 19.5106,18.9826 19.5,20.5C 17.9582,21.3007 16.2915,21.634 14.5,21.5C 14.3341,16.4889 14.5007,11.4889 15,6.5C 17.1695,6.16101 19.3362,6.16101 21.5,6.5 Z"/></g>
<g><path style="opacity:1" fill="#841113" d="M 22.5,24.5 C 20.8235,23.8166 20.1568,22.4832 20.5,20.5C 20.9763,18.9336 21.643,18.6002 22.5,19.5C 21.4647,21.1284 21.4647,22.795 22.5,24.5 Z"/></g>
</svg>
