<?xml version="1.0" encoding="UTF-8"?>
<!DOCTYPE svg PUBLIC "-//W3C//DTD SVG 1.1//EN" "http://www.w3.org/Graphics/SVG/1.1/DTD/svg11.dtd">
<svg xmlns="http://www.w3.org/2000/svg" version="1.1" viewBox="188 -85 255 593" style="shape-rendering:geometricPrecision; text-rendering:geometricPrecision; image-rendering:optimizeQuality; fill-rule:evenodd; clip-rule:evenodd" xmlns:xlink="http://www.w3.org/1999/xlink">
<g><path style="opacity:1" fill="#000000" d="M -0.5,-0.5 C 212.833,-0.5 426.167,-0.5 639.5,-0.5C 639.5,141.5 639.5,283.5 639.5,425.5C 426.167,425.5 212.833,425.5 -0.5,425.5C -0.5,283.5 -0.5,141.5 -0.5,-0.5 Z"/></g>
<g><path style="opacity:1" fill="#cda627" d="M 327.5,74.5 C 328.833,76.1667 330.167,77.8333 331.5,79.5C 328.098,78.267 325.431,76.1003 323.5,73C 321.782,72.654 320.115,72.154 318.5,71.5C 315.401,74.5265 311.734,76.5265 307.5,77.5C 311.151,73.5143 314.818,69.5143 318.5,65.5C 322.188,67.8546 325.188,70.8546 327.5,74.5 Z"/></g>
<g><path style="opacity:1" fill="#5b430e" d="M 327.5,74.5 C 330.167,75.1667 331.833,76.8333 332.5,79.5C 332.167,79.5 331.833,79.5 331.5,79.5C 330.167,77.8333 328.833,76.1667 327.5,74.5 Z"/></g>
<g><path style="opacity:1" fill="#eeb811" d="M 331.5,79.5 C 331.833,79.5 332.167,79.5 332.5,79.5C 336.5,82.8333 340.167,86.5 343.5,90.5C 344.833,92.5 346.5,94.1667 348.5,95.5C 352.5,98.8333 356.167,102.5 359.5,106.5C 360.833,108.5 362.5,110.167 364.5,111.5C 368.5,114.833 372.167,118.5 375.5,122.5C 377.705,124.363 379.039,126.697 379.5,129.5C 377.167,131.167 375.167,133.167 373.5,135.5C 371.118,137.215 369.118,139.215 367.5,141.5C 367.167,142.167 366.833,142.833 366.5,143.5C 363.833,144.167 362.167,145.833 361.5,148.5C 361.167,148.5 360.833,148.5 360.5,148.5C 359.127,148.657 357.793,148.49 356.5,148C 355.211,146.198 353.544,145.031 351.5,144.5C 351.5,143.833 351.167,143.5 350.5,143.5C 349.167,140.167 346.833,137.833 343.5,136.5C 343.5,135.833 343.167,135.5 342.5,135.5C 341.167,132.167 338.833,129.833 335.5,128.5C 335.5,128.167 335.5,127.833 335.5,127.5C 335.5,126.5 335.5,125.5 335.5,124.5C 332.615,123.618 329.948,122.284 327.5,120.5C 327.5,119.833 327.167,119.5 326.5,119.5C 324.725,115.388 321.725,112.721 317.5,111.5C 316.167,111.667 314.833,111.833 313.5,112C 314.022,112.561 314.355,113.228 314.5,114C 313.259,115.731 312.259,117.564 311.5,119.5C 305.28,126.282 298.613,132.615 291.5,138.5C 290.46,141.44 288.46,143.274 285.5,144C 284.335,145.992 283.002,147.825 281.5,149.5C 280.448,149.649 279.448,149.483 278.5,149C 276.811,146.747 274.811,144.914 272.5,143.5C 271.833,143.5 271.5,143.167 271.5,142.5C 269.473,139.806 267.139,137.473 264.5,135.5C 263.833,135.5 263.5,135.167 263.5,134.5C 261.391,132.878 260.391,130.712 260.5,128C 260.977,125.49 261.977,123.324 263.5,121.5C 266.132,119.887 268.798,118.22 271.5,116.5C 273.045,115.548 274.712,115.215 276.5,115.5C 276.884,113.071 277.551,110.737 278.5,108.5C 280.5,108.5 282.5,108.5 284.5,108.5C 284.264,105.391 284.597,102.391 285.5,99.5C 286.5,99.1667 287.167,98.5 287.5,97.5C 293.086,93.9146 297.752,89.2479 301.5,83.5C 303.104,82.713 303.771,81.3797 303.5,79.5C 305.38,79.7709 306.713,79.1042 307.5,77.5C 311.734,76.5265 315.401,74.5265 318.5,71.5C 320.115,72.154 321.782,72.654 323.5,73C 325.431,76.1003 328.098,78.267 331.5,79.5 Z"/></g>
<g><path style="opacity:1" fill="#ac8628" d="M 301.5,83.5 C 297.752,89.2479 293.086,93.9146 287.5,97.5C 291.833,92.5 296.5,87.8333 301.5,83.5 Z"/></g>
<g><path style="opacity:1" fill="#5b430e" d="M 343.5,90.5 C 346.167,91.1667 347.833,92.8333 348.5,95.5C 346.5,94.1667 344.833,92.5 343.5,90.5 Z"/></g>
<g><path style="opacity:1" fill="#5b430d" d="M 359.5,106.5 C 362.167,107.167 363.833,108.833 364.5,111.5C 362.5,110.167 360.833,108.5 359.5,106.5 Z"/></g>
<g><path style="opacity:1" fill="#ac8d20" d="M 326.5,119.5 C 323.87,117.372 321.37,115.039 319,112.5C 316.502,114.823 314.002,117.157 311.5,119.5C 312.259,117.564 313.259,115.731 314.5,114C 314.355,113.228 314.022,112.561 313.5,112C 314.833,111.833 316.167,111.667 317.5,111.5C 321.725,112.721 324.725,115.388 326.5,119.5 Z"/></g>
<g><path style="opacity:1" fill="#d3a525" d="M 285.5,99.5 C 284.597,102.391 284.264,105.391 284.5,108.5C 282.5,108.5 280.5,108.5 278.5,108.5C 277.551,110.737 276.884,113.071 276.5,115.5C 274.712,115.215 273.045,115.548 271.5,116.5C 268.798,118.22 266.132,119.887 263.5,121.5C 270.453,113.881 277.786,106.547 285.5,99.5 Z"/></g>
<g><path style="opacity:1" fill="#5f4a12" d="M 375.5,122.5 C 378.456,123.455 380.456,125.455 381.5,128.5C 381.043,129.298 380.376,129.631 379.5,129.5C 379.039,126.697 377.705,124.363 375.5,122.5 Z"/></g>
<g><path style="opacity:1" fill="#b08e2a" d="M 327.5,120.5 C 329.948,122.284 332.615,123.618 335.5,124.5C 335.5,125.5 335.5,126.5 335.5,127.5C 332.236,125.906 329.569,123.573 327.5,120.5 Z"/></g>
<g><path style="opacity:1" fill="#ad8e2c" d="M 263.5,121.5 C 261.977,123.324 260.977,125.49 260.5,128C 260.391,130.712 261.391,132.878 263.5,134.5C 256.984,132.29 255.984,128.623 260.5,123.5C 261.518,122.807 262.518,122.141 263.5,121.5 Z"/></g>
<g><path style="opacity:1" fill="#8e6e1b" d="M 335.5,128.5 C 338.833,129.833 341.167,132.167 342.5,135.5C 339.833,133.5 337.5,131.167 335.5,128.5 Z"/></g>
<g><path style="opacity:1" fill="#8d6d1c" d="M 343.5,136.5 C 346.833,137.833 349.167,140.167 350.5,143.5C 347.833,141.5 345.5,139.167 343.5,136.5 Z"/></g>
<g><path style="opacity:1" fill="#7a5d1a" d="M 264.5,135.5 C 267.139,137.473 269.473,139.806 271.5,142.5C 268.167,141.167 265.833,138.833 264.5,135.5 Z"/></g>
<g><path style="opacity:1" fill="#70550e" d="M 373.5,135.5 C 372.522,138.478 370.522,140.478 367.5,141.5C 369.118,139.215 371.118,137.215 373.5,135.5 Z"/></g>
<g><path style="opacity:1" fill="#8d722c" d="M 247.5,150.5 C 245.456,149.969 243.789,148.802 242.5,147C 240.735,146.36 239.068,146.527 237.5,147.5C 237.884,145.707 239.05,144.707 241,144.5C 243.652,145.985 245.818,147.985 247.5,150.5 Z"/></g>
<g><path style="opacity:1" fill="#957b23" d="M 351.5,144.5 C 353.544,145.031 355.211,146.198 356.5,148C 357.793,148.49 359.127,148.657 360.5,148.5C 359.686,150.273 358.352,150.773 356.5,150C 354.627,148.296 352.96,146.463 351.5,144.5 Z"/></g>
<g><path style="opacity:1" fill="#735916" d="M 272.5,143.5 C 274.811,144.914 276.811,146.747 278.5,149C 279.448,149.483 280.448,149.649 281.5,149.5C 280.998,151.085 279.998,151.585 278.5,151C 275.882,148.894 273.882,146.394 272.5,143.5 Z"/></g>
<g><path style="opacity:1" fill="#a88a2f" d="M 322.5,147.5 C 319.359,145.714 316.692,146.214 314.5,149C 314.833,149.333 315.167,149.667 315.5,150C 314.099,150.41 312.766,150.91 311.5,151.5C 313.071,148.256 315.405,145.589 318.5,143.5C 319.909,144.849 321.243,146.182 322.5,147.5 Z"/></g>
<g><path style="opacity:1" fill="#634909" d="M 366.5,143.5 C 365.167,145.5 363.5,147.167 361.5,148.5C 362.167,145.833 363.833,144.167 366.5,143.5 Z"/></g>
<g><path style="opacity:1" fill="#8a6b1c" d="M 404.5,151.5 C 402.416,149.256 399.916,147.589 397,146.5C 392.618,150.389 388.118,154.056 383.5,157.5C 386.963,153.536 390.63,149.702 394.5,146C 399.463,144.98 402.797,146.813 404.5,151.5 Z"/></g>
<g><path style="opacity:1" fill="#a58221" d="M 322.5,147.5 C 327.394,150.612 331.394,154.612 334.5,159.5C 331.873,156.85 328.873,154.683 325.5,153C 324.242,151.259 323.242,149.426 322.5,147.5 Z"/></g>
<g><path style="opacity:1" fill="#856616" d="M 248.5,151.5 C 251.167,153.5 253.5,155.833 255.5,158.5C 252.167,157.167 249.833,154.833 248.5,151.5 Z"/></g>
<g><path style="opacity:1" fill="#72590f" d="M 311.5,151.5 C 309.167,154.5 306.5,157.167 303.5,159.5C 305.167,155.833 307.833,153.167 311.5,151.5 Z"/></g>
<g><path style="opacity:1" fill="#a17d21" d="M 237.5,147.5 C 235.47,149.537 233.804,151.87 232.5,154.5C 231.675,155.386 230.675,155.719 229.5,155.5C 230.693,153.946 231.86,152.279 233,150.5C 234.129,148.859 235.629,147.859 237.5,147.5 Z"/></g>
<g><path style="opacity:1" fill="#5a430d" d="M 407.5,154.5 C 410.167,155.167 411.833,156.833 412.5,159.5C 410.5,158.167 408.833,156.5 407.5,154.5 Z"/></g>
<g><path style="opacity:1" fill="#ecb616" d="M 404.5,151.5 C 405.833,152.167 406.833,153.167 407.5,154.5C 408.833,156.5 410.5,158.167 412.5,159.5C 416.521,161.328 418.688,164.328 419,168.5C 411.621,174.413 405.121,181.079 399.5,188.5C 397.315,188.296 395.315,187.63 393.5,186.5C 386.808,180.75 380.808,174.416 375.5,167.5C 377.909,165.098 379.909,162.431 381.5,159.5C 382.833,159.5 383.5,158.833 383.5,157.5C 388.118,154.056 392.618,150.389 397,146.5C 399.916,147.589 402.416,149.256 404.5,151.5 Z"/></g>
<g><path style="opacity:1" fill="#edb716" d="M 322.5,147.5 C 323.242,149.426 324.242,151.259 325.5,153C 328.873,154.683 331.873,156.85 334.5,159.5C 337.212,161.55 339.545,164.05 341.5,167C 339.318,170.347 336.651,173.181 333.5,175.5C 328.5,179.833 323.833,184.5 319.5,189.5C 319.103,190.525 318.437,190.692 317.5,190C 316.286,186.807 314.286,184.307 311.5,182.5C 309.473,179.806 307.139,177.473 304.5,175.5C 303.833,175.5 303.5,175.167 303.5,174.5C 301.873,172.37 300.04,170.37 298,168.5C 297.517,167.552 297.351,166.552 297.5,165.5C 298.596,162.614 300.596,160.614 303.5,159.5C 306.5,157.167 309.167,154.5 311.5,151.5C 312.766,150.91 314.099,150.41 315.5,150C 315.167,149.667 314.833,149.333 314.5,149C 316.692,146.214 319.359,145.714 322.5,147.5 Z"/></g>
<g><path style="opacity:1" fill="#edb912" d="M 247.5,150.5 C 247.5,151.167 247.833,151.5 248.5,151.5C 249.833,154.833 252.167,157.167 255.5,158.5C 255.5,159.167 255.833,159.5 256.5,159.5C 257.882,162.394 259.882,164.894 262.5,167C 261.748,167.671 261.414,168.504 261.5,169.5C 259.167,171.167 257.167,173.167 255.5,175.5C 253.833,175.5 252.167,175.5 250.5,175.5C 250.919,178.325 249.919,180.491 247.5,182C 244.595,183.037 241.761,184.204 239,185.5C 237.307,184.816 235.807,183.816 234.5,182.5C 232.328,177.32 228.662,173.986 223.5,172.5C 222.519,170.511 221.519,168.511 220.5,166.5C 220.685,165.416 221.018,164.416 221.5,163.5C 223.5,160.167 226.167,157.5 229.5,155.5C 230.675,155.719 231.675,155.386 232.5,154.5C 233.804,151.87 235.47,149.537 237.5,147.5C 239.068,146.527 240.735,146.36 242.5,147C 243.789,148.802 245.456,149.969 247.5,150.5 Z"/></g>
<g><path style="opacity:1" fill="#7f681d" d="M 256.5,159.5 C 260.165,161.629 262.332,164.629 263,168.5C 262.617,169.056 262.117,169.389 261.5,169.5C 261.414,168.504 261.748,167.671 262.5,167C 259.882,164.894 257.882,162.394 256.5,159.5 Z"/></g>
<g><path style="opacity:1" fill="#8f7427" d="M 381.5,159.5 C 379.909,162.431 377.909,165.098 375.5,167.5C 374.475,167.103 374.308,166.437 375,165.5C 377.037,163.294 379.203,161.294 381.5,159.5 Z"/></g>
<g><path style="opacity:1" fill="#9e7d30" d="M 221.5,163.5 C 221.018,164.416 220.685,165.416 220.5,166.5C 221.519,168.511 222.519,170.511 223.5,172.5C 221.236,170.903 219.236,168.903 217.5,166.5C 218.283,164.712 219.616,163.712 221.5,163.5 Z"/></g>
<g><path style="opacity:1" fill="#745a1a" d="M 297.5,165.5 C 297.351,166.552 297.517,167.552 298,168.5C 300.04,170.37 301.873,172.37 303.5,174.5C 299.877,172.877 297.21,170.21 295.5,166.5C 295.957,165.702 296.624,165.369 297.5,165.5 Z"/></g>
<g><path style="opacity:1" fill="#654f11" d="M 226.5,175.5 C 228.5,176.833 230.167,178.5 231.5,180.5C 228.833,179.833 227.167,178.167 226.5,175.5 Z"/></g>
<g><path style="opacity:1" fill="#785c13" d="M 304.5,175.5 C 307.139,177.473 309.473,179.806 311.5,182.5C 308.167,181.167 305.833,178.833 304.5,175.5 Z"/></g>
<g><path style="opacity:1" fill="#65490f" d="M 333.5,175.5 C 329.833,181.167 325.167,185.833 319.5,189.5C 323.833,184.5 328.5,179.833 333.5,175.5 Z"/></g>
<g><path style="opacity:1" fill="#c7a52a" d="M 223.5,172.5 C 228.662,173.986 232.328,177.32 234.5,182.5C 235.807,183.816 237.307,184.816 239,185.5C 241.761,184.204 244.595,183.037 247.5,182C 249.919,180.491 250.919,178.325 250.5,175.5C 252.167,175.5 253.833,175.5 255.5,175.5C 252.165,179.832 248.165,183.499 243.5,186.5C 242.614,187.325 242.281,188.325 242.5,189.5C 237.311,188.307 233.644,185.307 231.5,180.5C 230.167,178.5 228.5,176.833 226.5,175.5C 224.5,175.5 223.5,174.5 223.5,172.5 Z"/></g>
<g><path style="opacity:1" fill="#856a1e" d="M 287.5,190.5 C 284.775,189.287 282.441,187.454 280.5,185C 279.423,184.53 278.423,184.697 277.5,185.5C 278.204,183.656 279.537,183.156 281.5,184C 283.706,186.037 285.706,188.203 287.5,190.5 Z"/></g>
<g><path style="opacity:1" fill="#74550f" d="M 277.5,185.5 C 275.833,187.833 273.833,189.833 271.5,191.5C 272.5,188.5 274.5,186.5 277.5,185.5 Z"/></g>
<g><path style="opacity:1" fill="#8c7321" d="M 359.5,184.5 C 356.833,186.167 354.167,187.833 351.5,189.5C 352.96,187.537 354.627,185.704 356.5,184C 357.749,183.26 358.749,183.427 359.5,184.5 Z"/></g>
<g><path style="opacity:1" fill="#7f6d28" d="M 393.5,186.5 C 395.315,187.63 397.315,188.296 399.5,188.5C 396.92,190.016 394.92,189.349 393.5,186.5 Z"/></g>
<g><path style="opacity:1" fill="#78590f" d="M 271.5,191.5 C 269.833,193.833 267.833,195.833 265.5,197.5C 266.5,194.5 268.5,192.5 271.5,191.5 Z"/></g>
<g><path style="opacity:1" fill="#876a23" d="M 367.5,192.5 C 368.239,192.369 368.906,192.536 369.5,193C 371.075,195.356 372.741,197.522 374.5,199.5C 371.509,197.877 369.176,195.543 367.5,192.5 Z"/></g>
<g><path style="opacity:1" fill="#6d5213" d="M 263.5,199.5 C 261.091,201.902 259.091,204.569 257.5,207.5C 256.427,206.749 256.26,205.749 257,204.5C 258.777,202.21 260.944,200.543 263.5,199.5 Z"/></g>
<g><path style="opacity:1" fill="#765913" d="M 263.5,213.5 C 264.833,213.833 266.167,214.167 267.5,214.5C 268.167,216.167 268.833,217.833 269.5,219.5C 267.5,217.5 265.5,215.5 263.5,213.5 Z"/></g>
<g><path style="opacity:1" fill="#efb911" d="M 287.5,190.5 C 287.5,191.167 287.833,191.5 288.5,191.5C 289.833,194.833 292.167,197.167 295.5,198.5C 295.5,199.167 295.833,199.5 296.5,199.5C 297.833,202.833 300.167,205.167 303.5,206.5C 303.5,207.167 303.833,207.5 304.5,207.5C 305.833,210.833 308.167,213.167 311.5,214.5C 311.5,215.167 311.833,215.5 312.5,215.5C 313.543,218.056 315.21,220.223 317.5,222C 318.437,222.692 319.103,222.525 319.5,221.5C 325.167,217.833 329.833,213.167 333.5,207.5C 334.833,207.5 335.5,206.833 335.5,205.5C 341.167,201.833 345.833,197.167 349.5,191.5C 350.833,191.5 351.5,190.833 351.5,189.5C 354.167,187.833 356.833,186.167 359.5,184.5C 362.479,186.812 365.146,189.479 367.5,192.5C 369.176,195.543 371.509,197.877 374.5,199.5C 377.015,201.182 379.015,203.348 380.5,206C 375.603,210.42 371.269,215.254 367.5,220.5C 363.281,222.93 359.947,226.263 357.5,230.5C 345.416,241.851 333.416,253.185 321.5,264.5C 320.504,264.414 319.671,264.748 319,265.5C 316.597,263.918 314.097,262.584 311.5,261.5C 311.5,261.167 311.5,260.833 311.5,260.5C 310.5,258.167 308.833,256.5 306.5,255.5C 304.52,254.526 302.853,253.193 301.5,251.5C 300.833,249.833 300.167,248.167 299.5,246.5C 299.5,245.5 299.5,244.5 299.5,243.5C 297.876,243.64 296.71,242.973 296,241.5C 295.498,238.487 294.998,235.487 294.5,232.5C 291.513,232.002 288.513,231.502 285.5,231C 284.085,227.249 281.585,224.416 278,222.5C 277.51,221.207 277.343,219.873 277.5,218.5C 273.8,217.784 270.466,216.451 267.5,214.5C 266.167,214.167 264.833,213.833 263.5,213.5C 261.833,211.167 259.833,209.167 257.5,207.5C 259.091,204.569 261.091,201.902 263.5,199.5C 263.5,198.167 264.167,197.5 265.5,197.5C 267.833,195.833 269.833,193.833 271.5,191.5C 273.833,189.833 275.833,187.833 277.5,185.5C 278.423,184.697 279.423,184.53 280.5,185C 282.441,187.454 284.775,189.287 287.5,190.5 Z"/></g>
<g><path style="opacity:1" fill="#90701a" d="M 333.5,207.5 C 329.833,213.167 325.167,217.833 319.5,221.5C 323.833,216.5 328.5,211.833 333.5,207.5 Z"/></g>
<g><path style="opacity:1" fill="#856615" d="M 312.5,215.5 C 314.833,217.5 317.167,219.5 319.5,221.5C 319.103,222.525 318.437,222.692 317.5,222C 315.21,220.223 313.543,218.056 312.5,215.5 Z"/></g>
<g><path style="opacity:1" fill="#856419" d="M 304.5,207.5 C 307.167,209.5 309.5,211.833 311.5,214.5C 308.167,213.167 305.833,210.833 304.5,207.5 Z"/></g>
<g><path style="opacity:1" fill="#907119" d="M 349.5,191.5 C 345.833,197.167 341.167,201.833 335.5,205.5C 339.833,200.5 344.5,195.833 349.5,191.5 Z"/></g>
<g><path style="opacity:1" fill="#83651a" d="M 296.5,199.5 C 299.167,201.5 301.5,203.833 303.5,206.5C 300.167,205.167 297.833,202.833 296.5,199.5 Z"/></g>
<g><path style="opacity:1" fill="#83651a" d="M 288.5,191.5 C 291.167,193.5 293.5,195.833 295.5,198.5C 292.167,197.167 289.833,194.833 288.5,191.5 Z"/></g>
<g><path style="opacity:1" fill="#665113" d="M 274.5,223.5 C 276.5,224.833 278.167,226.5 279.5,228.5C 276.833,227.833 275.167,226.167 274.5,223.5 Z"/></g>
<g><path style="opacity:1" fill="#2a1b08" d="M 367.5,220.5 C 366.71,221.794 365.71,222.961 364.5,224C 365.451,224.718 365.617,225.551 365,226.5C 363.285,229.397 360.785,230.731 357.5,230.5C 359.947,226.263 363.281,222.93 367.5,220.5 Z"/></g>
<g><path style="opacity:1" fill="#dcb31f" d="M 267.5,214.5 C 270.466,216.451 273.8,217.784 277.5,218.5C 277.343,219.873 277.51,221.207 278,222.5C 281.585,224.416 284.085,227.249 285.5,231C 288.513,231.502 291.513,232.002 294.5,232.5C 294.998,235.487 295.498,238.487 296,241.5C 296.71,242.973 297.876,243.64 299.5,243.5C 299.5,244.5 299.5,245.5 299.5,246.5C 298.167,246.167 296.833,245.833 295.5,245.5C 290.348,240.577 285.181,235.577 280,230.5C 279.536,229.906 279.369,229.239 279.5,228.5C 278.167,226.5 276.5,224.833 274.5,223.5C 272.52,222.526 270.853,221.193 269.5,219.5C 268.833,217.833 268.167,216.167 267.5,214.5 Z"/></g>
<g><path style="opacity:1" fill="#775a14" d="M 295.5,245.5 C 296.833,245.833 298.167,246.167 299.5,246.5C 300.167,248.167 300.833,249.833 301.5,251.5C 299.5,249.5 297.5,247.5 295.5,245.5 Z"/></g>
<g><path style="opacity:1" fill="#776011" d="M 306.5,255.5 C 308.833,256.5 310.5,258.167 311.5,260.5C 308.833,259.833 307.167,258.167 306.5,255.5 Z"/></g>
<g><path style="opacity:1" fill="#aa8b2f" d="M 311.5,261.5 C 314.097,262.584 316.597,263.918 319,265.5C 319.671,264.748 320.504,264.414 321.5,264.5C 320.934,266.078 319.934,267.412 318.5,268.5C 315.932,266.327 313.599,263.994 311.5,261.5 Z"/></g>
<g><path style="opacity:1" fill="#7a6215" d="M 184.5,303.5 C 184.5,321.5 184.5,339.5 184.5,357.5C 188.167,357.5 191.833,357.5 195.5,357.5C 195.5,339.5 195.5,321.5 195.5,303.5C 196.497,321.659 196.83,339.992 196.5,358.5C 192.167,358.5 187.833,358.5 183.5,358.5C 183.17,339.992 183.503,321.659 184.5,303.5 Z"/></g>
<g><path style="opacity:1" fill="#d7b233" d="M 184.5,303.5 C 184.833,303.5 185.167,303.5 185.5,303.5C 185.5,321.167 185.5,338.833 185.5,356.5C 188.5,356.5 191.5,356.5 194.5,356.5C 194.5,338.833 194.5,321.167 194.5,303.5C 194.833,303.5 195.167,303.5 195.5,303.5C 195.5,321.5 195.5,339.5 195.5,357.5C 191.833,357.5 188.167,357.5 184.5,357.5C 184.5,339.5 184.5,321.5 184.5,303.5 Z"/></g>
<g><path style="opacity:1" fill="#dab641" d="M 214.5,303.5 C 214.833,303.5 215.167,303.5 215.5,303.5C 215.5,321.167 215.5,338.833 215.5,356.5C 218.448,356.777 221.281,356.444 224,355.5C 224.5,344.839 224.667,334.172 224.5,323.5C 226.5,323.5 228.5,323.5 230.5,323.5C 230.69,326.803 231.69,329.803 233.5,332.5C 231.486,330.817 229.82,328.817 228.5,326.5C 228.179,324.952 227.179,324.285 225.5,324.5C 225.5,335.5 225.5,346.5 225.5,357.5C 221.833,357.5 218.167,357.5 214.5,357.5C 214.5,339.5 214.5,321.5 214.5,303.5 Z"/></g>
<g><path style="opacity:1" fill="#edb815" d="M 123.5,303.5 C 133.839,303.334 144.172,303.5 154.5,304C 156.833,305 159.167,306 161.5,307C 163.141,308.129 164.141,309.629 164.5,311.5C 165.833,315.5 165.833,319.5 164.5,323.5C 160.596,325.182 158.929,328.182 159.5,332.5C 158.5,332.5 157.5,332.5 156.5,332.5C 156.768,334.099 156.434,335.432 155.5,336.5C 154.167,336.167 152.833,335.833 151.5,335.5C 145.833,335.5 140.167,335.5 134.5,335.5C 133.517,339.298 133.183,343.298 133.5,347.5C 140.167,347.5 146.833,347.5 153.5,347.5C 154.822,347.67 155.989,347.337 157,346.5C 159.072,343.029 160.572,339.362 161.5,335.5C 162.833,335.5 164.167,335.5 165.5,335.5C 165.666,339.514 165.499,343.514 165,347.5C 164,346.167 163,346.167 162,347.5C 161.349,349.235 161.515,350.902 162.5,352.5C 161.007,353.141 160.007,354.141 159.5,355.5C 158.791,356.404 157.791,356.737 156.5,356.5C 145.918,356.82 135.418,356.487 125,355.5C 123.556,338.223 123.056,320.889 123.5,303.5 Z"/></g>
<g><path style="opacity:1" fill="#c8a12b" d="M 301.5,303.5 C 299.283,309.356 296.283,314.69 292.5,319.5C 293.756,314.314 295.59,309.314 298,304.5C 299.011,303.663 300.178,303.33 301.5,303.5 Z"/></g>
<g><path style="opacity:1" fill="#775d0f" d="M 423.5,306.5 C 422.089,308.914 420.089,310.581 417.5,311.5C 418.911,309.086 420.911,307.419 423.5,306.5 Z"/></g>
<g><path style="opacity:1" fill="#8c711a" d="M 311.5,305.5 C 313.934,308.709 315.601,312.376 316.5,316.5C 313.245,313.668 311.578,310.001 311.5,305.5 Z"/></g>
<g><path style="opacity:1" fill="#795e12" d="M 516.5,303.5 C 517.482,306.962 517.815,310.629 517.5,314.5C 507.5,314.5 497.5,314.5 487.5,314.5C 496.986,313.506 506.652,313.173 516.5,313.5C 516.5,310.167 516.5,306.833 516.5,303.5 Z"/></g>
<g><path style="opacity:1" fill="#856c15" d="M 148.5,314.5 C 143.833,314.5 139.167,314.5 134.5,314.5C 134.5,315.833 134.5,317.167 134.5,318.5C 134.5,319.167 134.5,319.833 134.5,320.5C 134.5,322.167 134.5,323.833 134.5,325.5C 133.517,321.702 133.183,317.702 133.5,313.5C 138.695,313.179 143.695,313.513 148.5,314.5 Z"/></g>
<g><path style="opacity:1" fill="#6f5a0f" d="M 164.5,311.5 C 165.972,313.117 166.639,315.117 166.5,317.5C 166.639,319.883 165.972,321.883 164.5,323.5C 165.833,319.5 165.833,315.5 164.5,311.5 Z"/></g>
<g><path style="opacity:1" fill="#040308" d="M 134.5,320.5 C 134.5,319.833 134.5,319.167 134.5,318.5C 135.404,317.791 135.737,316.791 135.5,315.5C 140.5,315.5 145.5,315.5 150.5,315.5C 150.5,317.833 150.5,320.167 150.5,322.5C 147.133,322.457 143.799,322.79 140.5,323.5C 137.898,323.533 135.898,322.533 134.5,320.5 Z"/></g>
<g><path style="opacity:1" fill="#9e8631" d="M 457.5,307.5 C 459.2,308.016 460.533,309.016 461.5,310.5C 459.741,313.763 457.408,316.597 454.5,319C 451.65,319.009 449.317,317.842 447.5,315.5C 455.39,317.93 458.723,315.263 457.5,307.5 Z"/></g>
<g><path style="opacity:1" fill="#eab61a" d="M 457.5,307.5 C 458.723,315.263 455.39,317.93 447.5,315.5C 436.748,310.917 428.915,313.917 424,324.5C 422.777,331.611 424.443,337.944 429,343.5C 430.805,345.482 432.972,346.816 435.5,347.5C 441.54,349.031 447.54,348.698 453.5,346.5C 456.82,346.638 458.487,348.305 458.5,351.5C 454.525,351.988 450.858,353.321 447.5,355.5C 441.496,356.75 435.496,356.75 429.5,355.5C 427.377,353.69 425.043,352.357 422.5,351.5C 421.833,347.5 419.5,345.167 415.5,344.5C 413.026,340.259 412.026,335.593 412.5,330.5C 412.667,327.5 412.833,324.5 413,321.5C 414.825,319.52 415.659,317.187 415.5,314.5C 415.932,313.29 416.599,312.29 417.5,311.5C 420.089,310.581 422.089,308.914 423.5,306.5C 428.271,303.362 433.604,302.029 439.5,302.5C 446.056,302.461 452.056,304.127 457.5,307.5 Z"/></g>
<g><path style="opacity:1" fill="#edb814" d="M 215.5,303.5 C 219.182,303.335 222.848,303.501 226.5,304C 233.897,313.333 240.897,322.833 247.5,332.5C 247.694,334.912 249.027,335.912 251.5,335.5C 251.5,324.833 251.5,314.167 251.5,303.5C 255.167,303.5 258.833,303.5 262.5,303.5C 262.5,321.5 262.5,339.5 262.5,357.5C 259.603,357.681 256.77,357.348 254,356.5C 252.124,355.381 251.291,353.714 251.5,351.5C 250.5,351.5 249.5,351.5 248.5,351.5C 248.512,348.858 247.179,347.525 244.5,347.5C 242.676,345.263 241.009,342.929 239.5,340.5C 239.269,337.937 237.935,336.27 235.5,335.5C 234.599,334.71 233.932,333.71 233.5,332.5C 231.69,329.803 230.69,326.803 230.5,323.5C 228.5,323.5 226.5,323.5 224.5,323.5C 224.667,334.172 224.5,344.839 224,355.5C 221.281,356.444 218.448,356.777 215.5,356.5C 215.5,338.833 215.5,321.167 215.5,303.5 Z"/></g>
<g><path style="opacity:1" fill="#7f6219" d="M 251.5,303.5 C 251.5,314.167 251.5,324.833 251.5,335.5C 249.027,335.912 247.694,334.912 247.5,332.5C 248.15,332.804 248.817,333.137 249.5,333.5C 250.167,323.341 250.833,313.341 251.5,303.5 Z"/></g>
<g><path style="opacity:1" fill="#83691e" d="M 347.5,303.5 C 347.5,321.5 347.5,339.5 347.5,357.5C 351.167,357.5 354.833,357.5 358.5,357.5C 354.702,358.483 350.702,358.817 346.5,358.5C 346.17,339.992 346.503,321.659 347.5,303.5 Z"/></g>
<g><path style="opacity:1" fill="#ac8a24" d="M 367.5,316.5 C 368.496,316.414 369.329,316.748 370,317.5C 371.421,319.405 372.588,321.405 373.5,323.5C 372.542,323.047 371.708,322.381 371,321.5C 370.667,322.167 370.333,322.833 370,323.5C 369.621,320.97 368.787,318.637 367.5,316.5 Z"/></g>
<g><path style="opacity:1" fill="#200f01" d="M 148.5,314.5 C 154.648,317.121 154.981,320.454 149.5,324.5C 144.544,325.494 139.544,325.827 134.5,325.5C 134.5,323.833 134.5,322.167 134.5,320.5C 135.898,322.533 137.898,323.533 140.5,323.5C 143.799,322.79 147.133,322.457 150.5,322.5C 150.5,320.167 150.5,317.833 150.5,315.5C 145.5,315.5 140.5,315.5 135.5,315.5C 135.737,316.791 135.404,317.791 134.5,318.5C 134.5,317.167 134.5,315.833 134.5,314.5C 139.167,314.5 143.833,314.5 148.5,314.5 Z"/></g>
<g><path style="opacity:1" fill="#775e16" d="M 487.5,324.5 C 496.167,324.5 504.833,324.5 513.5,324.5C 513.815,328.371 513.482,332.038 512.5,335.5C 512.5,332.167 512.5,328.833 512.5,325.5C 503.983,325.826 495.65,325.493 487.5,324.5 Z"/></g>
<g><path style="opacity:1" fill="#8a6c23" d="M 291.5,320.5 C 291.23,324.358 289.897,327.691 287.5,330.5C 287.934,326.723 289.267,323.39 291.5,320.5 Z"/></g>
<g><path style="opacity:1" fill="#e1b323" d="M 347.5,303.5 C 347.833,303.5 348.167,303.5 348.5,303.5C 348.5,321.167 348.5,338.833 348.5,356.5C 351.5,356.5 354.5,356.5 357.5,356.5C 357.116,345.466 357.116,334.466 357.5,323.5C 359.098,322.515 360.765,322.349 362.5,323C 363.479,325.137 364.812,326.971 366.5,328.5C 369.787,326.923 370.454,324.59 368.5,321.5C 365.964,320.651 363.464,319.651 361,318.5C 360.304,315.522 359.804,312.522 359.5,309.5C 358.07,309.579 356.736,309.246 355.5,308.5C 354.316,310.046 353.316,311.713 352.5,313.5C 351.359,311.579 351.192,309.579 352,307.5C 353.706,306.692 354.539,305.359 354.5,303.5C 356.167,303.5 357.833,303.5 359.5,303.5C 359.351,304.552 359.517,305.552 360,306.5C 363.711,308.922 366.211,312.255 367.5,316.5C 368.787,318.637 369.621,320.97 370,323.5C 370.333,322.833 370.667,322.167 371,321.5C 371.708,322.381 372.542,323.047 373.5,323.5C 377.21,327.208 380.543,331.208 383.5,335.5C 383.53,336.497 383.03,337.164 382,337.5C 380.629,336.419 379.129,335.585 377.5,335C 377.034,332.877 375.867,331.377 374,330.5C 371.843,331.385 371.01,333.052 371.5,335.5C 375.955,334.973 376.621,336.473 373.5,340C 376.244,341.723 377.578,344.223 377.5,347.5C 371.787,341.122 366.453,334.455 361.5,327.5C 361.179,325.952 360.179,325.285 358.5,325.5C 358.5,336.167 358.5,346.833 358.5,357.5C 354.833,357.5 351.167,357.5 347.5,357.5C 347.5,339.5 347.5,321.5 347.5,303.5 Z"/></g>
<g><path style="opacity:1" fill="#eeb918" d="M 476.5,303.5 C 489.833,303.5 503.167,303.5 516.5,303.5C 516.5,306.833 516.5,310.167 516.5,313.5C 506.652,313.173 496.986,313.506 487.5,314.5C 487.5,317.833 487.5,321.167 487.5,324.5C 495.65,325.493 503.983,325.826 512.5,325.5C 512.5,328.833 512.5,332.167 512.5,335.5C 504.167,335.5 495.833,335.5 487.5,335.5C 487.5,339.167 487.5,342.833 487.5,346.5C 496.986,347.494 506.652,347.827 516.5,347.5C 516.5,350.5 516.5,353.5 516.5,356.5C 503.167,356.5 489.833,356.5 476.5,356.5C 476.5,338.833 476.5,321.167 476.5,303.5 Z"/></g>
<g><path style="opacity:1" fill="#ad8a32" d="M 164.5,323.5 C 163.741,325.436 162.741,327.269 161.5,329C 162.071,330.599 163.071,331.766 164.5,332.5C 162.833,332.5 161.167,332.5 159.5,332.5C 158.929,328.182 160.596,325.182 164.5,323.5 Z"/></g>
<g><path style="opacity:1" fill="#957426" d="M 321.5,328.5 C 323.293,330.426 324.293,332.759 324.5,335.5C 322.179,333.91 321.179,331.577 321.5,328.5 Z"/></g>
<g><path style="opacity:1" fill="#e0b226" d="M 159.5,332.5 C 161.167,332.5 162.833,332.5 164.5,332.5C 165.833,333.167 166.833,334.167 167.5,335.5C 168.114,339.135 168.448,342.802 168.5,346.5C 167.833,351.833 164.833,354.833 159.5,355.5C 160.007,354.141 161.007,353.141 162.5,352.5C 161.515,350.902 161.349,349.235 162,347.5C 163,346.167 164,346.167 165,347.5C 165.499,343.514 165.666,339.514 165.5,335.5C 164.167,335.5 162.833,335.5 161.5,335.5C 160.572,339.362 159.072,343.029 157,346.5C 155.989,347.337 154.822,347.67 153.5,347.5C 155.229,346.764 156.229,345.43 156.5,343.5C 156.5,342.167 156.5,340.833 156.5,339.5C 156.443,338.391 156.11,337.391 155.5,336.5C 156.434,335.432 156.768,334.099 156.5,332.5C 157.5,332.5 158.5,332.5 159.5,332.5 Z"/></g>
<g><path style="opacity:1" fill="#7d6f2e" d="M 287.5,330.5 C 287.923,332.781 287.256,334.448 285.5,335.5C 285.12,333.302 285.787,331.635 287.5,330.5 Z"/></g>
<g><path style="opacity:1" fill="#f1b90f" d="M 185.5,303.5 C 188.5,303.5 191.5,303.5 194.5,303.5C 194.5,321.167 194.5,338.833 194.5,356.5C 191.5,356.5 188.5,356.5 185.5,356.5C 185.5,338.833 185.5,321.167 185.5,303.5 Z"/></g>
<g><path style="opacity:1" fill="#f0b80f" d="M 348.5,303.5 C 350.5,303.5 352.5,303.5 354.5,303.5C 354.539,305.359 353.706,306.692 352,307.5C 351.192,309.579 351.359,311.579 352.5,313.5C 353.316,311.713 354.316,310.046 355.5,308.5C 356.736,309.246 358.07,309.579 359.5,309.5C 359.804,312.522 360.304,315.522 361,318.5C 363.464,319.651 365.964,320.651 368.5,321.5C 370.454,324.59 369.787,326.923 366.5,328.5C 364.812,326.971 363.479,325.137 362.5,323C 360.765,322.349 359.098,322.515 357.5,323.5C 357.116,334.466 357.116,345.466 357.5,356.5C 354.5,356.5 351.5,356.5 348.5,356.5C 348.5,338.833 348.5,321.167 348.5,303.5 Z"/></g>
<g><path style="opacity:1" fill="#5d3f03" d="M 361.5,327.5 C 360.883,327.389 360.383,327.056 360,326.5C 359.83,337.008 359.33,347.341 358.5,357.5C 358.5,346.833 358.5,336.167 358.5,325.5C 360.179,325.285 361.179,325.952 361.5,327.5 Z"/></g>
<g><path style="opacity:1" fill="#b6952e" d="M 394.5,303.5 C 395.497,321.659 395.83,339.992 395.5,358.5C 391.818,358.665 388.152,358.499 384.5,358C 383.944,357.617 383.611,357.117 383.5,356.5C 387.167,356.5 390.833,356.5 394.5,356.5C 394.5,338.833 394.5,321.167 394.5,303.5 Z"/></g>
<g><path style="opacity:1" fill="#0a0404" d="M 134.5,335.5 C 140.167,335.5 145.833,335.5 151.5,335.5C 152.782,337.18 154.449,338.513 156.5,339.5C 156.5,340.833 156.5,342.167 156.5,343.5C 155.317,344.504 153.984,345.338 152.5,346C 146.509,346.499 140.509,346.666 134.5,346.5C 134.5,342.833 134.5,339.167 134.5,335.5 Z"/></g>
<g><path style="opacity:1" fill="#6b4f11" d="M 151.5,335.5 C 152.833,335.833 154.167,336.167 155.5,336.5C 156.11,337.391 156.443,338.391 156.5,339.5C 154.449,338.513 152.782,337.18 151.5,335.5 Z"/></g>
<g><path style="opacity:1" fill="#927626" d="M 235.5,335.5 C 237.935,336.27 239.269,337.937 239.5,340.5C 237.469,339.461 236.136,337.795 235.5,335.5 Z"/></g>
<g><path style="opacity:1" fill="#5b450e" d="M 167.5,335.5 C 168.997,337.29 169.664,339.456 169.5,342C 169.492,343.707 169.158,345.207 168.5,346.5C 168.448,342.802 168.114,339.135 167.5,335.5 Z"/></g>
<g><path style="opacity:1" fill="#eeb813" d="M 301.5,303.5 C 305.329,302.931 308.663,303.598 311.5,305.5C 311.578,310.001 313.245,313.668 316.5,316.5C 318.413,320.376 320.079,324.376 321.5,328.5C 321.179,331.577 322.179,333.91 324.5,335.5C 325.914,342.238 327.581,348.905 329.5,355.5C 327.167,355.5 324.833,355.5 322.5,355.5C 322.348,351.228 321.348,347.228 319.5,343.5C 310.548,344.306 301.548,344.806 292.5,345C 290.07,347.305 289.07,350.138 289.5,353.5C 288.173,355.964 286.007,356.964 283,356.5C 281.014,356.431 279.514,355.765 278.5,354.5C 278.629,352.784 278.962,351.117 279.5,349.5C 279.5,349.167 279.5,348.833 279.5,348.5C 283.072,345.407 284.739,341.407 284.5,336.5C 284.5,335.833 284.833,335.5 285.5,335.5C 287.256,334.448 287.923,332.781 287.5,330.5C 289.897,327.691 291.23,324.358 291.5,320.5C 291.5,319.833 291.833,319.5 292.5,319.5C 296.283,314.69 299.283,309.356 301.5,303.5 Z"/></g>
<g><path style="opacity:1" fill="#180f09" d="M 307.5,324.5 C 307.733,327.542 308.733,330.208 310.5,332.5C 311.404,333.209 311.737,334.209 311.5,335.5C 307.167,335.5 302.833,335.5 298.5,335.5C 299.705,330.752 301.205,326.085 303,321.5C 303.71,320.027 304.876,319.36 306.5,319.5C 306.629,321.216 306.962,322.883 307.5,324.5 Z"/></g>
<g><path style="opacity:1" fill="#826720" d="M 307.5,324.5 C 309.693,326.522 310.693,329.189 310.5,332.5C 308.733,330.208 307.733,327.542 307.5,324.5 Z"/></g>
<g><path style="opacity:1" fill="#edb812" d="M 394.5,303.5 C 394.5,321.167 394.5,338.833 394.5,356.5C 390.833,356.5 387.167,356.5 383.5,356.5C 381.252,353.672 379.252,350.672 377.5,347.5C 377.578,344.223 376.244,341.723 373.5,340C 376.621,336.473 375.955,334.973 371.5,335.5C 371.01,333.052 371.843,331.385 374,330.5C 375.867,331.377 377.034,332.877 377.5,335C 379.129,335.585 380.629,336.419 382,337.5C 383.03,337.164 383.53,336.497 383.5,335.5C 383.5,324.833 383.5,314.167 383.5,303.5C 387.167,303.5 390.833,303.5 394.5,303.5 Z"/></g>
<g><path style="opacity:1" fill="#ad8d36" d="M 415.5,314.5 C 415.659,317.187 414.825,319.52 413,321.5C 412.833,324.5 412.667,327.5 412.5,330.5C 412.026,335.593 413.026,340.259 415.5,344.5C 415.5,344.833 415.5,345.167 415.5,345.5C 413.836,344.257 412.669,342.59 412,340.5C 410.054,333.491 410.054,326.491 412,319.5C 412.697,317.416 413.864,315.749 415.5,314.5 Z"/></g>
<g><path style="opacity:1" fill="#daae2e" d="M 324.5,335.5 C 326.882,340.859 329.215,346.193 331.5,351.5C 331.357,353.262 331.691,354.929 332.5,356.5C 327.648,358.16 323.315,357.493 319.5,354.5C 319.5,353.5 319.5,352.5 319.5,351.5C 318.971,349.417 317.971,347.583 316.5,346C 308.655,345.178 300.989,345.344 293.5,346.5C 292.416,349.004 291.083,351.337 289.5,353.5C 289.07,350.138 290.07,347.305 292.5,345C 301.548,344.806 310.548,344.306 319.5,343.5C 321.348,347.228 322.348,351.228 322.5,355.5C 324.833,355.5 327.167,355.5 329.5,355.5C 327.581,348.905 325.914,342.238 324.5,335.5 Z"/></g>
<g><path style="opacity:1" fill="#765812" d="M 214.5,303.5 C 214.5,321.5 214.5,339.5 214.5,357.5C 218.167,357.5 221.833,357.5 225.5,357.5C 225.5,346.5 225.5,335.5 225.5,324.5C 227.179,324.285 228.179,324.952 228.5,326.5C 227.883,326.389 227.383,326.056 227,325.5C 226.5,336.495 226.333,347.495 226.5,358.5C 222.167,358.5 217.833,358.5 213.5,358.5C 213.17,339.992 213.503,321.659 214.5,303.5 Z"/></g>
<g><path style="opacity:1" fill="#a38325" d="M 284.5,336.5 C 284.739,341.407 283.072,345.407 279.5,348.5C 280.655,344.203 282.321,340.203 284.5,336.5 Z"/></g>
<g><path style="opacity:1" fill="#654503" d="M 293.5,346.5 C 300.989,345.344 308.655,345.178 316.5,346C 317.971,347.583 318.971,349.417 319.5,351.5C 318.504,351.586 317.671,351.252 317,350.5C 316.691,349.234 316.191,348.067 315.5,347C 308.174,346.5 300.841,346.334 293.5,346.5 Z"/></g>
<g><path style="opacity:1" fill="#5f420a" d="M 134.5,335.5 C 134.5,339.167 134.5,342.833 134.5,346.5C 140.509,346.666 146.509,346.499 152.5,346C 153.984,345.338 155.317,344.504 156.5,343.5C 156.229,345.43 155.229,346.764 153.5,347.5C 146.833,347.5 140.167,347.5 133.5,347.5C 133.183,343.298 133.517,339.298 134.5,335.5 Z"/></g>
<g><path style="opacity:1" fill="#c2a028" d="M 458.5,351.5 C 458.487,348.305 456.82,346.638 453.5,346.5C 447.54,348.698 441.54,349.031 435.5,347.5C 437.857,347.663 440.19,347.497 442.5,347C 446.278,345.361 450.111,343.861 454,342.5C 458.256,343.739 460.589,346.406 461,350.5C 460.329,351.252 459.496,351.586 458.5,351.5 Z"/></g>
<g><path style="opacity:1" fill="#b79432" d="M 244.5,347.5 C 247.179,347.525 248.512,348.858 248.5,351.5C 249.5,351.5 250.5,351.5 251.5,351.5C 251.291,353.714 252.124,355.381 254,356.5C 256.77,357.348 259.603,357.681 262.5,357.5C 259.36,358.641 256.027,358.808 252.5,358C 249.265,354.932 246.598,351.432 244.5,347.5 Z"/></g>
<g><path style="opacity:1" fill="#705614" d="M 279.5,349.5 C 278.962,351.117 278.629,352.784 278.5,354.5C 277.833,354.833 277.167,355.167 276.5,355.5C 276.755,353.033 277.755,351.033 279.5,349.5 Z"/></g>
<g><path style="opacity:1" fill="#d4ad3b" d="M 122.5,303.5 C 122.833,303.5 123.167,303.5 123.5,303.5C 123.056,320.889 123.556,338.223 125,355.5C 135.418,356.487 145.918,356.82 156.5,356.5C 156.158,357.338 155.492,357.672 154.5,357.5C 143.833,357.5 133.167,357.5 122.5,357.5C 122.5,339.5 122.5,321.5 122.5,303.5 Z"/></g>
<g><path style="opacity:1" fill="#af9133" d="M 289.5,353.5 C 289.703,355.39 289.037,356.89 287.5,358C 283.514,358.499 279.514,358.666 275.5,358.5C 275.263,357.209 275.596,356.209 276.5,355.5C 277.167,355.167 277.833,354.833 278.5,354.5C 279.514,355.765 281.014,356.431 283,356.5C 286.007,356.964 288.173,355.964 289.5,353.5 Z"/></g>
<g><path style="opacity:1" fill="#d7b030" d="M 415.5,344.5 C 419.5,345.167 421.833,347.5 422.5,351.5C 425.043,352.357 427.377,353.69 429.5,355.5C 435.496,356.75 441.496,356.75 447.5,355.5C 450.858,353.321 454.525,351.988 458.5,351.5C 455.813,355.182 452.146,357.349 447.5,358C 441.167,358.667 434.833,358.667 428.5,358C 424.779,356.146 421.446,353.813 418.5,351C 416.393,349.736 415.393,347.903 415.5,345.5C 415.5,345.167 415.5,344.833 415.5,344.5 Z"/></g>
<g><path style="opacity:1" fill="#cfa934" d="M 476.5,303.5 C 476.5,321.167 476.5,338.833 476.5,356.5C 489.833,356.5 503.167,356.5 516.5,356.5C 503.01,357.496 489.344,357.829 475.5,357.5C 475.17,339.326 475.503,321.326 476.5,303.5 Z"/></g>
<g><path style="opacity:1" fill="#6a4e0e" d="M 122.5,303.5 C 122.5,321.5 122.5,339.5 122.5,357.5C 133.167,357.5 143.833,357.5 154.5,357.5C 143.679,358.495 132.679,358.828 121.5,358.5C 121.17,339.992 121.503,321.659 122.5,303.5 Z"/></g>
<g><path style="opacity:1" fill="#765f1b" d="M 331.5,351.5 C 333.293,353.426 334.293,355.759 334.5,358.5C 329.786,358.827 325.12,358.493 320.5,357.5C 319.873,356.583 319.539,355.583 319.5,354.5C 323.315,357.493 327.648,358.16 332.5,356.5C 331.691,354.929 331.357,353.262 331.5,351.5 Z"/></g>
<g><path style="opacity:1" fill="#725611" d="M 487.5,346.5 C 497.5,346.5 507.5,346.5 517.5,346.5C 517.5,350.5 517.5,354.5 517.5,358.5C 503.323,358.829 489.323,358.496 475.5,357.5C 489.344,357.829 503.01,357.496 516.5,356.5C 516.5,353.5 516.5,350.5 516.5,347.5C 506.652,347.827 496.986,347.494 487.5,346.5 Z"/></g>
</svg>
