<?xml version="1.0" encoding="UTF-8"?>
<!DOCTYPE svg PUBLIC "-//W3C//DTD SVG 1.1//EN" "http://www.w3.org/Graphics/SVG/1.1/DTD/svg11.dtd">
<svg xmlns="http://www.w3.org/2000/svg" version="1.1" viewBox="12 -40 385 398" style="shape-rendering:geometricPrecision; text-rendering:geometricPrecision; image-rendering:optimizeQuality; fill-rule:evenodd; clip-rule:evenodd" xmlns:xlink="http://www.w3.org/1999/xlink">
<g><path style="opacity:0.016" fill="#ff9b00" d="M -0.5,12.5 C -0.5,12.1667 -0.5,11.8333 -0.5,11.5C 212.833,11.5 426.167,11.5 639.5,11.5C 639.5,11.8333 639.5,12.1667 639.5,12.5C 426.167,12.5 212.833,12.5 -0.5,12.5 Z"/></g>
<g><path style="opacity:1" fill="#fea01b" d="M -0.5,13.5 C 212.833,13.5 426.167,13.5 639.5,13.5C 639.5,14.1667 639.5,14.8333 639.5,15.5C 426.167,15.5 212.833,15.5 -0.5,15.5C -0.5,14.8333 -0.5,14.1667 -0.5,13.5 Z"/></g>
<g><path style="opacity:1" fill="#f6921a" d="M -0.5,15.5 C 212.833,15.5 426.167,15.5 639.5,15.5C 639.5,111.5 639.5,207.5 639.5,303.5C 426.167,303.5 212.833,303.5 -0.5,303.5C -0.5,207.5 -0.5,111.5 -0.5,15.5 Z"/></g>
<g><path style="opacity:1" fill="#fffdfb" d="M 92.5,109.5 C 95.5559,110.296 98.5559,111.296 101.5,112.5C 99.9881,117.06 98.9881,121.726 98.5,126.5C 100.591,126.318 102.591,126.652 104.5,127.5C 105.867,122.681 107.534,118.015 109.5,113.5C 111.729,114.577 114.063,115.244 116.5,115.5C 115.889,120.108 114.889,124.608 113.5,129C 121.209,131.6 127.042,136.433 131,143.5C 132.172,152.494 128.672,158.827 120.5,162.5C 130.239,168.887 132.072,177.22 126,187.5C 123.362,191.128 119.862,193.628 115.5,195C 109.175,195.5 102.842,195.666 96.5,195.5C 95.6734,199.807 95.0067,204.14 94.5,208.5C 91.4824,208.296 88.4824,207.963 85.5,207.5C 86.3414,202.468 87.3414,197.468 88.5,192.5C 86.1944,192.007 83.861,191.674 81.5,191.5C 80.8156,195.571 79.8156,199.571 78.5,203.5C 75.8742,204.449 73.2075,204.449 70.5,203.5C 70.5496,198.634 71.5496,193.968 73.5,189.5C 67.7474,187.648 62.0807,185.648 56.5,183.5C 57.801,180.573 58.801,177.573 59.5,174.5C 62.0667,174.855 64.5667,175.521 67,176.5C 68.2613,176.241 69.2613,175.574 70,174.5C 73.4221,161.312 76.9221,148.145 80.5,135C 80.0969,133.527 79.4303,132.194 78.5,131C 70.2929,130.538 68.2929,126.704 72.5,119.5C 77.4509,120.988 82.4509,122.321 87.5,123.5C 88.6473,123.182 89.4806,122.516 90,121.5C 91.154,117.553 91.9873,113.553 92.5,109.5 Z"/></g>
<g><path style="opacity:1" fill="#f7931e" d="M 95.5,136.5 C 100.912,136.603 105.912,138.103 110.5,141C 115.833,145.333 115.833,149.667 110.5,154C 103.992,155.905 97.6586,155.405 91.5,152.5C 92.8353,147.159 94.1686,141.826 95.5,136.5 Z"/></g>
<g><path style="opacity:1" fill="#f7931d" d="M 89.5,161.5 C 95.8087,162.77 101.809,164.937 107.5,168C 112.833,172.667 112.833,177.333 107.5,182C 99.547,184.277 91.8804,183.61 84.5,180C 86.0891,173.81 87.7558,167.643 89.5,161.5 Z"/></g>
<g><path style="opacity:0.333" fill="#fea11d" d="M -0.5,303.5 C 212.833,303.5 426.167,303.5 639.5,303.5C 639.5,304.167 639.5,304.833 639.5,305.5C 426.167,305.5 212.833,305.5 -0.5,305.5C -0.5,304.833 -0.5,304.167 -0.5,303.5 Z"/></g>
<g><path style="opacity:0.016" fill="#ff9b00" d="M -0.5,307.5 C -0.5,307.167 -0.5,306.833 -0.5,306.5C 212.833,306.5 426.167,306.5 639.5,306.5C 639.5,306.833 639.5,307.167 639.5,307.5C 426.167,307.5 212.833,307.5 -0.5,307.5 Z"/></g>
</svg>
