<?xml version="1.0" encoding="UTF-8"?>
<!DOCTYPE svg PUBLIC "-//W3C//DTD SVG 1.1//EN" "http://www.w3.org/Graphics/SVG/1.1/DTD/svg11.dtd">
<svg xmlns="http://www.w3.org/2000/svg" version="1.1" viewBox="658 -198 255 1350" style="shape-rendering:geometricPrecision; text-rendering:geometricPrecision; image-rendering:optimizeQuality; fill-rule:evenodd; clip-rule:evenodd" xmlns:xlink="http://www.w3.org/1999/xlink">
<g><path style="opacity:1" fill="#0c192b" d="M -0.5,-0.5 C 532.833,-0.5 1066.17,-0.5 1599.5,-0.5C 1599.5,319.5 1599.5,639.5 1599.5,959.5C 1066.17,959.5 532.833,959.5 -0.5,959.5C -0.5,639.5 -0.5,319.5 -0.5,-0.5 Z"/></g>
<g><path style="opacity:1" fill="#f4ab37" d="M 778.5,199.5 C 882.804,195.738 966.304,235.405 1029,318.5C 1085.86,404.973 1094.86,496.306 1056,592.5C 1008.18,691.316 929.675,746.816 820.5,759C 716.171,763.249 632.671,723.749 570,640.5C 513.138,554.027 504.138,462.694 543,366.5C 590.981,267.671 669.481,212.004 778.5,199.5 Z"/></g>
<g><path style="opacity:1" fill="#fefcfa" d="M 667.5,323.5 C 714.501,323.333 761.501,323.5 808.5,324C 875.249,329.784 922.249,363.117 949.5,424C 962.18,424.167 974.846,424.667 987.5,425.5C 988.833,436.833 988.833,448.167 987.5,459.5C 986.975,460.192 986.308,460.692 985.5,461C 976.173,461.5 966.839,461.666 957.5,461.5C 957.333,473.838 957.5,486.171 958,498.5C 968.084,499.486 978.251,499.819 988.5,499.5C 988.667,510.838 988.5,522.172 988,533.5C 987.5,534 987,534.5 986.5,535C 973.833,535.333 961.167,535.667 948.5,536C 922.513,593.959 877.847,626.626 814.5,634C 765.186,635.613 715.853,635.946 666.5,635C 665.504,601.907 665.171,568.74 665.5,535.5C 651.167,535.5 636.833,535.5 622.5,535.5C 622.5,523.5 622.5,511.5 622.5,499.5C 636.833,499.5 651.167,499.5 665.5,499.5C 665.5,486.833 665.5,474.167 665.5,461.5C 651.496,461.667 637.496,461.5 623.5,461C 622.167,449 622.167,437 623.5,425C 637.496,424.5 651.496,424.333 665.5,424.5C 665.333,391.498 665.5,358.498 666,325.5C 666.717,324.956 667.217,324.289 667.5,323.5 Z"/></g>
<g><path style="opacity:1" fill="#f5ac37" d="M 701.5,357.5 C 738.835,357.333 776.168,357.5 813.5,358C 852.507,363.067 882.673,381.9 904,414.5C 905.928,417.851 907.428,421.351 908.5,425C 839.501,425.5 770.501,425.667 701.5,425.5C 701.5,402.833 701.5,380.167 701.5,357.5 Z"/></g>
<g><path style="opacity:1" fill="#f5ac37" d="M 701.5,461.5 C 774.167,461.5 846.833,461.5 919.5,461.5C 920.589,472.004 920.589,482.504 919.5,493C 919.4,495.302 918.733,497.302 917.5,499C 846.167,499.667 774.833,499.667 703.5,499C 701.532,486.75 700.865,474.25 701.5,461.5 Z"/></g>
<g><path style="opacity:1" fill="#f5ac37" d="M 702.5,535.5 C 771.167,535.5 839.833,535.5 908.5,535.5C 898.661,557.845 882.995,575.012 861.5,587C 843.217,596.071 823.884,601.404 803.5,603C 769.595,603.829 735.762,603.662 702,602.5C 701.178,580.094 701.345,557.761 702.5,535.5 Z"/></g>
</svg>
