<?xml version="1.0" encoding="UTF-8"?>
<!DOCTYPE svg PUBLIC "-//W3C//DTD SVG 1.1//EN" "http://www.w3.org/Graphics/SVG/1.1/DTD/svg11.dtd">
<svg xmlns="http://www.w3.org/2000/svg" version="1.1" viewBox="658 -193 255 1339" style="shape-rendering:geometricPrecision; text-rendering:geometricPrecision; image-rendering:optimizeQuality; fill-rule:evenodd; clip-rule:evenodd" xmlns:xlink="http://www.w3.org/1999/xlink">
<g><path style="opacity:1" fill="#0c192b" d="M -0.5,-0.5 C 532.833,-0.5 1066.17,-0.5 1599.5,-0.5C 1599.5,319.5 1599.5,639.5 1599.5,959.5C 1066.17,959.5 532.833,959.5 -0.5,959.5C -0.5,639.5 -0.5,319.5 -0.5,-0.5 Z"/></g>
<g><path style="opacity:1" fill="#8b8b8b" d="M 799.5,200.5 C 799.5,269.167 799.5,337.833 799.5,406.5C 742.791,432.74 685.791,458.406 628.5,483.5C 685.137,388.882 742.137,294.548 799.5,200.5 Z"/></g>
<g><path style="opacity:1" fill="#333333" d="M 799.5,200.5 C 857,294.827 914,389.493 970.5,484.5C 913.381,458.774 856.381,432.774 799.5,406.5C 799.5,337.833 799.5,269.167 799.5,200.5 Z"/></g>
<g><path style="opacity:1" fill="#393939" d="M 799.5,406.5 C 799.5,466.167 799.5,525.833 799.5,585.5C 741.893,552.361 684.56,518.694 627.5,484.5C 627.624,483.893 627.957,483.56 628.5,483.5C 685.791,458.406 742.791,432.74 799.5,406.5 Z"/></g>
<g><path style="opacity:1" fill="#141414" d="M 799.5,406.5 C 856.381,432.774 913.381,458.774 970.5,484.5C 914.002,518.919 857.002,552.586 799.5,585.5C 799.5,525.833 799.5,466.167 799.5,406.5 Z"/></g>
<g><path style="opacity:1" fill="#8b8b8b" d="M 799.5,618.5 C 799.5,665.167 799.5,711.833 799.5,758.5C 742.154,678.998 685.154,599.164 628.5,519C 630.598,519.032 632.598,519.699 634.5,521C 689.198,554.015 744.198,586.515 799.5,618.5 Z"/></g>
<g><path style="opacity:1" fill="#3b3b3a" d="M 799.5,758.5 C 799.5,711.833 799.5,665.167 799.5,618.5C 853.609,586.942 907.609,555.108 961.5,523C 964.525,521.312 967.525,519.979 970.5,519C 913.356,598.812 856.356,678.646 799.5,758.5 Z"/></g>
</svg>
