<?xml version="1.0" encoding="UTF-8"?>
<!DOCTYPE svg PUBLIC "-//W3C//DTD SVG 1.1//EN" "http://www.w3.org/Graphics/SVG/1.1/DTD/svg11.dtd">
<svg xmlns="http://www.w3.org/2000/svg" version="1.1" viewBox="188 -69 255 474" style="shape-rendering:geometricPrecision; text-rendering:geometricPrecision; image-rendering:optimizeQuality; fill-rule:evenodd; clip-rule:evenodd" xmlns:xlink="http://www.w3.org/1999/xlink">
<g><path style="opacity:1" fill="#011d5f" d="M -0.5,-0.5 C 212.833,-0.5 426.167,-0.5 639.5,-0.5C 639.5,112.833 639.5,226.167 639.5,339.5C 426.167,339.5 212.833,339.5 -0.5,339.5C -0.5,226.167 -0.5,112.833 -0.5,-0.5 Z"/></g>
<g><path style="opacity:1" fill="#74c4c1" d="M 311.5,40.5 C 358.571,39.4404 392.071,60.1071 412,102.5C 427.337,148.135 417.17,186.969 381.5,219C 348.587,241.99 313.587,245.657 276.5,230C 231.197,203.883 213.697,165.049 224,113.5C 238.479,71.5185 267.645,47.1852 311.5,40.5 Z"/></g>
<g><path style="opacity:1" fill="#031d60" d="M 339.5,70.5 C 367.108,78.6085 384.941,96.6085 393,124.5C 397.669,153.965 389.169,178.798 367.5,199C 359.665,204.668 351.165,209.168 342,212.5C 340.739,212.241 339.739,211.574 339,210.5C 338.454,207.101 338.787,203.768 340,200.5C 378.573,181.656 390.24,151.989 375,111.5C 366.135,98.3069 354.468,88.3069 340,81.5C 338.253,77.8749 338.086,74.2083 339.5,70.5 Z"/></g>
<g><path style="opacity:1" fill="#031d5f" d="M 295.5,70.5 C 300.989,70.504 302.822,73.1707 301,78.5C 300.333,79.8333 299.667,81.1667 299,82.5C 267.979,96.5327 254.646,120.533 259,154.5C 264.845,176.889 278.512,192.223 300,200.5C 301.483,203.702 301.817,207.036 301,210.5C 299.806,211.43 298.473,212.097 297,212.5C 257.746,195.67 241.08,166.003 247,123.5C 255.089,98.252 271.256,80.5853 295.5,70.5 Z"/></g>
<g><path style="opacity:1" fill="#031d5f" d="M 315.5,91.5 C 318.579,91.2601 321.579,91.5934 324.5,92.5C 325.153,96.2348 325.986,99.9015 327,103.5C 331.333,106.167 335.667,108.833 340,111.5C 342.871,115.348 344.038,119.515 343.5,124C 340.594,125.318 337.594,125.652 334.5,125C 331.008,118.832 325.841,114.999 319,113.5C 309.313,114.17 305.313,119.17 307,128.5C 308.214,130.049 309.714,131.215 311.5,132C 318.8,133.793 326.133,135.46 333.5,137C 342.636,139.766 346.969,145.933 346.5,155.5C 347.205,162.887 344.539,168.72 338.5,173C 335.289,174.852 331.956,176.519 328.5,178C 327.299,178.903 326.465,180.069 326,181.5C 325.667,184.167 325.333,186.833 325,189.5C 315.627,192.801 311.627,189.467 313,179.5C 307.245,177.288 301.912,174.288 297,170.5C 294.359,166.884 292.526,162.884 291.5,158.5C 291.608,157.558 291.941,156.725 292.5,156C 296.167,155.333 299.833,155.333 303.5,156C 308.376,168.715 317.042,172.048 329.5,166C 336.078,160.193 336.078,154.526 329.5,149C 321.582,146.677 313.582,144.677 305.5,143C 294.776,137.674 291.276,129.174 295,117.5C 296.4,114.098 298.567,111.264 301.5,109C 305.288,107.022 309.121,105.189 313,103.5C 313.074,99.2783 313.908,95.2783 315.5,91.5 Z"/></g>
<g><path style="opacity:1" fill="#73bbc2" d="M 398.5,259.5 C 400.167,259.5 401.833,259.5 403.5,259.5C 404.169,263.676 402.669,265.009 399,263.5C 398.51,262.207 398.343,260.873 398.5,259.5 Z"/></g>
<g><path style="opacity:1" fill="#73c2c1" d="M 274.5,261.5 C 281.508,261.334 288.508,261.5 295.5,262C 308.177,267.489 311.677,276.655 306,289.5C 303.313,293.194 299.813,295.694 295.5,297C 288.508,297.5 281.508,297.666 274.5,297.5C 274.5,285.5 274.5,273.5 274.5,261.5 Z"/></g>
<g><path style="opacity:1" fill="#021d60" d="M 278.5,264.5 C 285.856,263.768 292.856,264.934 299.5,268C 304.775,273.659 305.941,280.159 303,287.5C 296.119,293.929 287.952,296.262 278.5,294.5C 278.5,284.5 278.5,274.5 278.5,264.5 Z"/></g>
<g><path style="opacity:1" fill="#6cb7b8" d="M 402.5,297.5 C 401.5,297.5 400.5,297.5 399.5,297.5C 399.5,288.833 399.5,280.167 399.5,271.5C 400.568,270.566 401.901,270.232 403.5,270.5C 403.827,279.682 403.493,288.682 402.5,297.5 Z"/></g>
<g><path style="opacity:1" fill="#6fbabc" d="M 412.5,270.5 C 413.833,270.5 415.167,270.5 416.5,270.5C 416.343,271.873 416.51,273.207 417,274.5C 421.091,270.695 425.924,269.528 431.5,271C 434.973,271.807 437.14,273.973 438,277.5C 438.5,284.158 438.666,290.825 438.5,297.5C 437.167,297.5 435.833,297.5 434.5,297.5C 434.666,291.158 434.5,284.825 434,278.5C 430.6,273.548 426.1,272.382 420.5,275C 419.213,276.41 418.046,277.91 417,279.5C 416.501,285.491 416.334,291.491 416.5,297.5C 415.167,297.5 413.833,297.5 412.5,297.5C 412.5,288.5 412.5,279.5 412.5,270.5 Z"/></g>
<g><path style="opacity:1" fill="#70bebe" d="M 374.5,269.5 C 388.847,270.349 394.013,277.682 390,291.5C 382.27,300.187 374.27,300.521 366,292.5C 361.01,281.829 363.844,274.163 374.5,269.5 Z"/></g>
<g><path style="opacity:1" fill="#031d60" d="M 374.5,273.5 C 384.765,273.347 388.932,278.347 387,288.5C 383.22,294.39 378.053,295.89 371.5,293C 366.866,287.889 366.366,282.389 370,276.5C 371.409,275.219 372.909,274.219 374.5,273.5 Z"/></g>
<g><path style="opacity:1" fill="#70bbbd" d="M 247.5,260.5 C 253.728,259.683 259.395,261.016 264.5,264.5C 264.081,265.672 263.415,266.672 262.5,267.5C 255.9,263.201 249.733,263.534 244,268.5C 243.104,271.025 243.604,273.192 245.5,275C 251.037,277.374 256.703,279.374 262.5,281C 267.124,284.664 267.624,288.831 264,293.5C 257.142,299.151 249.642,299.984 241.5,296C 239.485,294.445 239.152,292.611 240.5,290.5C 247.149,295.296 253.983,295.629 261,291.5C 261.944,288.653 261.444,286.153 259.5,284C 254.5,282.333 249.5,280.667 244.5,279C 239.391,275.634 238.224,271.134 241,265.5C 242.965,263.45 245.132,261.783 247.5,260.5 Z"/></g>
<g><path style="opacity:1" fill="#72c1c0" d="M 226.5,260.5 C 227.833,260.5 229.167,260.5 230.5,260.5C 230.666,269.839 230.5,279.173 230,288.5C 225.39,297.595 218.223,300.429 208.5,297C 205.667,295.5 203.5,293.333 202,290.5C 200.58,280.914 200.08,271.247 200.5,261.5C 201.833,261.5 203.167,261.5 204.5,261.5C 204.334,270.173 204.5,278.84 205,287.5C 209.544,294.97 215.711,296.47 223.5,292C 224.46,290.581 225.293,289.081 226,287.5C 226.5,278.506 226.666,269.506 226.5,260.5 Z"/></g>
<g><path style="opacity:1" fill="#447e93" d="M 399.5,271.5 C 399.5,280.167 399.5,288.833 399.5,297.5C 400.5,297.5 401.5,297.5 402.5,297.5C 401.432,298.434 400.099,298.768 398.5,298.5C 398.173,289.318 398.507,280.318 399.5,271.5 Z"/></g>
<g><path style="opacity:1" fill="#71bebe" d="M 341.5,260.5 C 348.712,259.138 354.712,261.138 359.5,266.5C 359.167,267.5 358.5,268.167 357.5,268.5C 348.03,262.203 339.863,263.536 333,272.5C 329.642,284.799 334.142,292.132 346.5,294.5C 350.617,294.351 354.283,293.017 357.5,290.5C 358.086,290.709 358.586,291.043 359,291.5C 359.163,293.387 358.329,294.887 356.5,296C 343.334,301.165 333.834,297.332 328,284.5C 327.023,279.266 327.69,274.266 330,269.5C 333.161,265.491 336.994,262.491 341.5,260.5 Z"/></g>
</svg>
