<?xml version="1.0" encoding="UTF-8"?>
<!DOCTYPE svg PUBLIC "-//W3C//DTD SVG 1.1//EN" "http://www.w3.org/Graphics/SVG/1.1/DTD/svg11.dtd">
<svg xmlns="http://www.w3.org/2000/svg" version="1.1" viewBox="80 -38 105 263" style="shape-rendering:geometricPrecision; text-rendering:geometricPrecision; image-rendering:optimizeQuality; fill-rule:evenodd; clip-rule:evenodd" xmlns:xlink="http://www.w3.org/1999/xlink">
<g><path style="opacity:1" fill="#252525" d="M -0.5,0.5 C 10.8333,8.5 22.1667,16.5 33.5,24.5C 33.8333,25.5 34.5,26.1667 35.5,26.5C 45.86,34.8533 56.5267,42.8533 67.5,50.5C 78.2782,58.4041 88.9448,66.5707 99.5,75C 154.832,75.5 210.166,75.6667 265.5,75.5C 265.5,88.1667 265.5,100.833 265.5,113.5C 210.166,113.333 154.832,113.5 99.5,114C 88.9448,122.429 78.2782,130.596 67.5,138.5C 56.5267,146.147 45.86,154.147 35.5,162.5C 34.5,162.833 33.8333,163.5 33.5,164.5C 22.1667,172.5 10.8333,180.5 -0.5,188.5C -0.5,183.5 -0.5,178.5 -0.5,173.5C 34.7885,147.544 69.7885,121.211 104.5,94.5C 69.7885,67.7892 34.7885,41.4559 -0.5,15.5C -0.5,10.5 -0.5,5.5 -0.5,0.5 Z"/></g>
<g><path style="opacity:1" fill="#379d10" d="M -0.5,0.5 C -0.5,0.166667 -0.5,-0.166667 -0.5,-0.5C 88.1667,-0.5 176.833,-0.5 265.5,-0.5C 265.5,7.83333 265.5,16.1667 265.5,24.5C 188.167,24.5 110.833,24.5 33.5,24.5C 22.1667,16.5 10.8333,8.5 -0.5,0.5 Z"/></g>
<g><path style="opacity:1" fill="#fdfdfd" d="M -0.5,15.5 C 34.7885,41.4559 69.7885,67.7892 104.5,94.5C 69.7885,121.211 34.7885,147.544 -0.5,173.5C -0.5,120.833 -0.5,68.1667 -0.5,15.5 Z"/></g>
<g><path style="opacity:1" fill="#cac72a" d="M 33.5,24.5 C 110.833,24.5 188.167,24.5 265.5,24.5C 265.5,24.8333 265.5,25.1667 265.5,25.5C 188.665,25.1674 111.998,25.5007 35.5,26.5C 34.5,26.1667 33.8333,25.5 33.5,24.5 Z"/></g>
<g><path style="opacity:1" fill="#fed30f" d="M 265.5,25.5 C 265.5,33.8333 265.5,42.1667 265.5,50.5C 199.5,50.5 133.5,50.5 67.5,50.5C 56.5267,42.8533 45.86,34.8533 35.5,26.5C 111.998,25.5007 188.665,25.1674 265.5,25.5 Z"/></g>
<g><path style="opacity:1" fill="#cc3625" d="M 67.5,50.5 C 133.5,50.5 199.5,50.5 265.5,50.5C 265.5,58.8333 265.5,67.1667 265.5,75.5C 210.166,75.6667 154.832,75.5 99.5,75C 88.9448,66.5707 78.2782,58.4041 67.5,50.5 Z"/></g>
<g><path style="opacity:1" fill="#e82919" d="M 36.5,64.5 C 37.4972,64.4701 38.1639,64.9701 38.5,66C 40.4013,71.8707 42.4013,77.704 44.5,83.5C 52.1451,84.3315 59.8117,84.8315 67.5,85C 61.4025,88.7986 55.5692,92.9652 50,97.5C 51.4627,104.886 53.1294,112.219 55,119.5C 49.5541,114.879 43.7207,110.879 37.5,107.5C 31.2793,110.879 25.4459,114.879 20,119.5C 21.3922,112.64 23.2255,105.807 25.5,99C 20.1851,94.0291 14.5185,89.3624 8.5,85C 15.8559,84.8313 23.1892,84.3313 30.5,83.5C 32.9083,77.2761 34.9083,70.9428 36.5,64.5 Z"/></g>
<g><path style="opacity:1" fill="#cc3625" d="M 265.5,113.5 C 265.5,121.833 265.5,130.167 265.5,138.5C 199.5,138.5 133.5,138.5 67.5,138.5C 78.2782,130.596 88.9448,122.429 99.5,114C 154.832,113.5 210.166,113.333 265.5,113.5 Z"/></g>
<g><path style="opacity:1" fill="#fed30f" d="M 67.5,138.5 C 133.5,138.5 199.5,138.5 265.5,138.5C 265.5,146.833 265.5,155.167 265.5,163.5C 188.665,163.833 111.998,163.499 35.5,162.5C 45.86,154.147 56.5267,146.147 67.5,138.5 Z"/></g>
<g><path style="opacity:1" fill="#cac72a" d="M 35.5,162.5 C 111.998,163.499 188.665,163.833 265.5,163.5C 265.5,163.833 265.5,164.167 265.5,164.5C 188.167,164.5 110.833,164.5 33.5,164.5C 33.8333,163.5 34.5,162.833 35.5,162.5 Z"/></g>
<g><path style="opacity:1" fill="#379d10" d="M 33.5,164.5 C 110.833,164.5 188.167,164.5 265.5,164.5C 265.5,172.833 265.5,181.167 265.5,189.5C 176.833,189.5 88.1667,189.5 -0.5,189.5C -0.5,189.167 -0.5,188.833 -0.5,188.5C 10.8333,180.5 22.1667,172.5 33.5,164.5 Z"/></g>
</svg>
